<?xml version="1.0" encoding="UTF-8"?>
<svg width="420px" height="420px" viewBox="0 0 420 420" version="1.1" xmlns="http://www.w3.org/2000/svg" xmlns:xlink="http://www.w3.org/1999/xlink">
    <!-- Generator: Sketch 54.1 (76490) - https://sketchapp.com -->
    <title>Artboard</title>
    <desc>Created with Sketch.</desc>
    <g id="Artboard" stroke="none" stroke-width="1" fill="none" fill-rule="evenodd">
        <ellipse id="Oval" stroke="#111111" stroke-width="14" cx="210.501425" cy="210" rx="174.501425" ry="175"></ellipse>
        <g id="risk" transform="translate(89.000000, 73.000000)" fill="#000000" fill-rule="nonzero">
            <path d="M240.360692,191.57164 L140.652661,10.9330495 C136.925072,4.1869636 129.825377,0 122.132893,0 L120.867107,0 C113.174623,0 106.075402,4.18743874 102.347338,10.9382761 L2.64025711,191.57164 C0.909827948,194.704736 0,198.243129 0,201.816682 C0,213.497132 9.49220603,223 21.1595511,223 L221.840449,223 C233.507794,223 243,213.497132 243,201.816682 C243.000474,198.243129 242.090646,194.704736 240.360692,191.57164 Z M160.784206,130.000658 L100.034088,200.955247 C99.0355078,202.113647 97.6216437,202.727057 96.187846,202.727057 C95.2879849,202.727057 94.3781569,202.489485 93.5675225,201.994386 C91.4517098,200.707697 90.5713077,198.079204 91.4911025,195.778085 L108.962931,152.044936 L86.0629844,152.044936 C84.4118152,152.044936 82.8693317,151.242894 81.9201111,149.896813 C80.9808573,148.550732 80.7435522,146.82311 81.2969478,145.274143 L106.609339,74.3195542 C107.331221,72.3001947 109.239629,70.9541135 111.375376,70.9541135 L146.813103,70.9541135 C148.494173,70.9541135 150.066082,71.7903659 151.005336,73.1815857 C151.94459,74.5723305 152.132535,76.3441402 151.509847,77.9035608 L134.038018,121.636709 L156.937965,121.636709 C158.915666,121.636709 160.714913,122.789882 161.535989,124.586399 C162.366083,126.382917 162.069451,128.501106 160.784206,130.000658 Z" id="Shape"></path>
        </g>
        <text id="600-V" font-family="AvenirNextCondensed-DemiBold, Avenir Next Condensed" font-size="53" font-style="condensed" font-weight="500" fill="#504F4F">
            <tspan x="152" y="349">600 V</tspan>
        </text>
    </g>
</svg>