<?xml version="1.0" encoding="UTF-8"?>
<svg width="420px" height="420px" viewBox="0 0 420 420" version="1.1" xmlns="http://www.w3.org/2000/svg" xmlns:xlink="http://www.w3.org/1999/xlink">
    <!-- Generator: Sketch 54.1 (76490) - https://sketchapp.com -->
    <title>Artboard</title>
    <desc>Created with Sketch.</desc>
    <g id="Artboard" stroke="none" stroke-width="1" fill="none" fill-rule="evenodd">
        <g id="fireproof" transform="translate(32.000000, 32.000000)" fill-rule="nonzero">
            <path d="M260.511466,149.128845 C258.136806,146.291227 255.46936,146.801683 254.665098,150.257297 C245.900222,187.911304 223.116148,218.141477 215.052664,206.818246 C199.612699,185.136059 236.677823,151.296132 220.985357,104.247442 C211.694617,76.3917496 192.122557,59.2133318 181.278684,51.6339223 C178.870933,49.9512819 175.397067,51.8619068 176.045944,54.511689 C179.67016,69.3235128 183.351206,104.280421 159.219022,125.361102 C147.17595,135.881368 139.841193,147.249765 135.373869,157.093247 C132.053949,164.408826 122.207851,165.61614 117.124741,159.386714 C110.005077,150.66093 101.225095,143.585524 95.9139422,139.526969 C93.5306498,137.705961 89.8956434,139.62017 90.5804893,142.33591 C98.4483035,173.54828 90.7912664,196.315903 86.0973386,217.657547 C75.1872836,267.259234 148.449245,304.006322 180.879431,301.91503 C203.338346,300.466827 269.250444,274.810683 273.512747,217.535669 C275.959344,184.660733 268.815222,159.05119 260.511466,149.128845 L260.511466,149.128845 Z" id="Path" fill="#FCB143"></path>
            <path d="M259.661796,150.839123 C257.313521,147.99612 254.675713,148.507544 253.880387,151.969716 C251.482315,162.408665 248.021437,172.275136 244.102429,180.850115 C245.999687,191.804799 246.772249,204.884194 245.707309,219.375752 C242.007406,269.736699 191.35623,295.695802 164,302.2768 C170.276532,303.652331 176.059363,304.232712 180.91384,303.915226 C203.123215,302.464275 268.302965,276.759448 272.517909,219.375752 C274.938033,186.438434 267.873289,160.780295 259.661796,150.839123 L259.661796,150.839123 Z" id="Path" fill="#FBA615"></path>
            <path d="M219.654352,239.713027 C174.237085,251.260789 182.433758,194.180159 168.712058,196.044755 C144.147797,199.381932 162.139552,247.117163 154.573942,250.231572 C139.263135,256.533442 130.470458,220.614306 129.663383,224.313842 C127.02465,236.403334 113.865326,266.244815 126.182516,287.461277 C144.984923,298.658252 165.963855,304.808957 179.641194,303.91427 C184.002832,303.6293 190.011531,302.412757 196.889553,300.20967 C196.941783,300.190865 196.994014,300.172783 197.046961,300.156148 C213.712193,284.87775 223.809212,266.836452 228.713192,249.155344 C230.269387,243.544923 225.243773,238.291798 219.654352,239.713027 L219.654352,239.713027 Z" id="Path" fill="#FCEE56"></path>
            <path d="M220,270 C201.680662,287.99161 177.308937,298.417703 161,302.264834 C167.445409,303.649917 173.383834,304.234328 178.368927,303.914638 C182.855072,303.627495 189.052102,302.390685 196.140372,300.156471 C206.461208,290.889797 214.300456,280.60402 220,270 L220,270 Z" id="Path" fill="#FBE709"></path>
            <path d="M176.756332,75.6915213 C182.798073,83.6584183 188.410937,93.344362 192.278914,104.826173 C208.297937,152.385497 170.460496,186.593946 186.222486,208.51179 C194.454147,219.958815 216.196925,221.435079 219.557446,210.820763 C217.306572,211.249075 215.364873,210.548266 213.90052,208.51179 C198.13853,186.593946 235.976706,152.386222 219.957683,104.826173 C210.47317,76.6677253 190.492903,59.3026002 179.422865,51.6408122 C176.964896,49.9398837 173.418577,51.8712746 174.080987,54.5498566 C175.344855,59.6722097 176.616066,67.1796314 176.756332,75.6915213 Z" id="Path" fill="#FBA615"></path>
            <path d="M178.5,357 C130.820746,357 85.9960563,338.432408 52.2814648,304.718535 C18.5668732,271.004662 0,226.179254 0,178.5 C0,130.820746 18.5675915,85.9960563 52.2814648,52.2814648 C85.995338,18.5668732 130.820746,0 178.5,0 C226.179254,0 271.003944,18.5675915 304.718535,52.2814648 C338.432408,85.9960563 357,130.820746 357,178.5 C357,226.179254 338.432408,271.003944 304.718535,304.718535 C271.003944,338.432408 226.179254,357 178.5,357 Z M77.9739718,296.039197 L80.4679437,298.088535 C107.96269,320.680817 142.777732,333.12338 178.500718,333.12338 C219.802099,333.12338 258.631056,317.039704 287.83538,287.83538 C315.159887,260.510873 331.184662,224.221141 332.958887,185.649338 C334.72162,147.333254 322.337239,109.978986 298.089254,80.4679437 L296.039197,77.9739718 L77.9739718,296.039197 Z M178.499282,23.8766197 C137.197901,23.8766197 98.3689437,39.9602958 69.1646197,69.1646197 C41.840831,96.4891268 25.815338,132.778859 24.0411127,171.350662 C22.2783803,209.667465 34.6627606,247.021014 58.9114648,276.532056 L60.9608028,279.026028 L279.026028,60.9600845 L276.531338,58.9107465 C249.03731,36.3184648 214.221549,23.8766197 178.499282,23.8766197 Z" id="Shape" fill="#000000"></path>
            <path d="M304.456042,52.2813596 C270.572177,18.5675542 225.522432,0 177.603791,0 C173.040558,0 168.504036,0.170957403 164,0.504970815 C206.793034,3.67630246 246.590838,21.7783928 277.247737,52.2820779 C291.676679,66.6389082 303.333462,83.0156217 311.975522,100.764304 C326.902586,126.272154 334.224262,155.666053 332.838182,185.649683 C331.68095,210.676266 324.487776,234.73888 312.082366,256.018767 C303.429477,273.851491 291.735154,290.302909 277.247737,304.717922 C246.590838,335.221607 206.792313,353.323698 164,356.495029 C168.504036,356.829043 173.040558,357 177.603791,357 C225.522432,357 270.572177,338.432446 304.456042,304.71864 C338.339185,271.003398 357,226.178798 357,178.499641 C357,130.820483 338.339185,85.9958833 304.456042,52.2813596 L304.456042,52.2813596 Z" id="Path" fill="#000000"></path>
        </g>
    </g>
</svg>