<?xml version="1.0" encoding="UTF-8"?>
<svg width="420px" height="420px" viewBox="0 0 420 420" version="1.1" xmlns="http://www.w3.org/2000/svg" xmlns:xlink="http://www.w3.org/1999/xlink">
    <!-- Generator: Sketch 54.1 (76490) - https://sketchapp.com -->
    <title>Artboard</title>
    <desc>Created with Sketch.</desc>
    <g id="Artboard" stroke="none" stroke-width="1" fill="none" fill-rule="evenodd">
        <ellipse id="Oval" stroke="#111111" stroke-width="14" cx="210.501425" cy="210" rx="174.501425" ry="175"></ellipse>
        <g id="hot" transform="translate(170.000000, 78.000000)" fill-rule="nonzero">
            <path d="M68.3326341,192.517327 L68.3326341,27.3039368 C68.3326341,12.2239297 56.0957005,0 40.9996517,0 C25.9036024,0 13.6666683,12.2239297 13.6666683,27.3039368 L13.6666683,192.517327 C-3.2097748,207.59532 -4.65546283,233.487331 10.440586,250.347855 C25.5366353,267.206364 51.456191,268.650516 68.3326341,253.570509 C85.2110939,238.490502 86.6547658,212.59849 71.5587165,195.739981 C70.5445172,194.60601 69.467812,193.530449 68.3326341,192.517327 Z" id="Path" fill="#000000"></path>
            <path d="M51.1979682,201.303944 L51.1979682,26.119542 C51.1979682,21.0825036 47.0801619,17 41.9995659,17 C36.9210054,17 32.8031985,21.0825036 32.8031985,26.119542 L32.8031985,201.303944 C21.1622015,206.338964 15.8454882,219.777121 20.9260841,231.316297 C26.0046447,242.855475 39.5590071,248.126606 51.1979682,243.091586 C62.8369298,238.054547 68.1536432,224.618409 63.0750826,213.079232 C60.7546181,207.8081 56.5126462,203.602496 51.1979682,201.303944 Z" id="Path" fill="#A8D6DA"></path>
            <path d="M42.0025466,245 C54.7303732,244.973697 65.0264693,234.717364 64.9999489,222.093719 C64.9815886,213.041276 59.5775149,204.852802 51.2214996,201.214829 L51.2214996,85 L32.7856329,85 L32.7856329,201.214829 C21.1308686,206.289376 15.832877,219.774966 20.9513448,231.332309 C24.6193415,239.619927 32.8753948,244.979767 42.0025466,245 L42.0025466,245 Z" id="Path" fill="#E06661"></path>
        </g>
        <rect id="Rectangle" fill="#000000" x="67" y="235" width="86" height="10"></rect>
        <rect id="Rectangle" fill="#000000" transform="translate(212.649939, 209.007372) rotate(-27.000000) translate(-212.649939, -209.007372) " x="143.149939" y="204.007372" width="139" height="10"></rect>
        <circle id="Oval" stroke="#000000" stroke-width="3" cx="265" cy="282" r="5"></circle>
        <rect id="Rectangle-Copy" fill="#000000" x="272" y="173" width="85" height="10"></rect>
        <text id="0" font-family="AvenirNextCondensed-DemiBold, Avenir Next Condensed" font-size="70" font-style="condensed" font-weight="500" fill="#504F4F">
            <tspan x="97" y="226">0</tspan>
        </text>
        <ellipse id="Oval-Copy" stroke="#111111" stroke-width="14" cx="210.501425" cy="210" rx="174.501425" ry="175"></ellipse>
        <text id="0-copy" font-family="AvenirNextCondensed-DemiBold, Avenir Next Condensed" font-size="70" font-style="condensed" font-weight="500" fill="#000000">
            <tspan x="97" y="226">0</tspan>
        </text>
        <text id="C" font-family="AvenirNextCondensed-DemiBold, Avenir Next Condensed" font-size="70" font-style="condensed" font-weight="500" fill="#000000">
            <tspan x="270" y="326">C</tspan>
        </text>
        <text id="80" font-family="AvenirNextCondensed-DemiBold, Avenir Next Condensed" font-size="70" font-style="condensed" font-weight="500" fill="#000000">
            <tspan x="277" y="168">80</tspan>
        </text>
    </g>
</svg>