<?xml version="1.0" encoding="UTF-8"?>
<svg width="30px" height="31px" viewBox="0 0 30 31" version="1.1" xmlns="http://www.w3.org/2000/svg" xmlns:xlink="http://www.w3.org/1999/xlink">
    <!-- Generator: Sketch 54.1 (76490) - https://sketchapp.com -->
    <title>construction-and-tools(1)</title>
    <desc>Created with Sketch.</desc>
    <g id="Welcome" stroke="none" stroke-width="1" fill="none" fill-rule="evenodd">
        <g id="Artboard" transform="translate(-406.000000, -108.000000)" fill-rule="nonzero">
            <g id="construction-and-tools(1)" transform="translate(421.221987, 123.778013) rotate(-90.000000) translate(-421.221987, -123.778013) translate(406.221987, 108.778013)">
                <path d="M11.5496829,20.2940803 L3.07737844,28.7663848 C2.8273554,29.0167259 2.48806043,29.1573928 2.13424947,29.1573928 C1.78043852,29.1573928 1.44114354,29.0167259 1.19112051,28.7663848 L0.771247357,28.3471459 C0.250531548,27.8259562 0.250531548,26.9814433 0.771247357,26.4602537 L6.59302326,20.6391121 C7.41057082,19.8215645 8.44312896,20.2376321 9.43382664,20.5205074 C10.2057082,20.7412262 10.9515856,20.8813953 11.5496829,20.2940803 L11.5496829,20.2940803 Z" id="Path" fill="#000000"></path>
                <g id="Group" transform="translate(9.386892, 2.156448)" fill="#6D7486">
                    <path d="M2.06828753,16.6649049 C2.60422833,17.2008457 2.47610994,17.8249471 2.17484144,18.1262156 C2.17183072,18.1293429 2.16865494,18.132307 2.1653277,18.1350951 C2.16469345,18.1363636 2.16342495,18.1369979 2.1627907,18.1376321 C1.56469345,18.7249471 0.818816068,18.584778 0.0469344609,18.3640592 L1.36490486,17.046723 L1.90718816,16.5044397 L2.06828753,16.6649049 Z" id="Path"></path>
                    <path d="M3.33107822,15.0716702 L3.32917548,15.0824524 L1.90718816,16.5044397 L1.36490486,17.046723 L1.2038055,16.8856237 C0.41987315,16.1016913 1.09725159,15.4249471 1.09725159,15.4249471 C1.13657505,15.3856237 1.17589852,15.3494715 1.21585624,15.3158562 C1.86723044,14.7634249 2.59408034,14.9213531 3.33107822,15.0716702 L3.33107822,15.0716702 Z" id="Path"></path>
                    <path d="M7.06934461,11.664482 C7.85264271,12.4477801 7.17589852,13.1251586 7.17589852,13.1251586 C7.16257928,13.1384778 7.14989429,13.1511628 7.13657505,13.1638478 C6.46300211,13.8019027 5.70443975,13.6338266 4.93446089,13.477167 L6.29682875,12.1154334 L6.90824524,11.5033827 L7.06934461,11.664482 Z" id="Path"></path>
                    <path d="M8.27061311,10.1410148 L6.90824524,11.5033827 L6.29682875,12.1154334 L6.2961945,12.1147992 L6.13509514,11.954334 C5.35179704,11.1704017 6.02854123,10.4930233 6.02854123,10.4930233 C6.06786469,10.4536998 6.10718816,10.4175476 6.14714588,10.3839323 C6.80042283,9.82959831 7.53044397,9.99069767 8.27061311,10.1410148 Z" id="Path"></path>
                    <path d="M12.0006342,6.73255814 C12.7845666,7.51649049 12.1071882,8.19386892 12.1071882,8.19386892 C12.0951374,8.20591966 12.0824524,8.2179704 12.0704017,8.22938689 C11.3980973,8.86871036 10.6401691,8.70317125 9.87145877,8.54651163 L9.87272727,8.53890063 L11.2553911,7.15623679 L11.8395349,6.57145877 L12.0006342,6.73255814 Z" id="Path"></path>
                    <path d="M13.2285412,5.18245243 L11.8395349,6.57145877 L11.2553911,7.15623679 L11.0942918,6.99513742 C10.3395349,6.24038055 10.9877378,5.53382664 10.9877378,5.53382664 C11.0194503,5.50211416 11.0511628,5.47230444 11.0835095,5.44439746 C11.7424947,4.86723044 12.4801268,5.02959831 13.2285412,5.18245243 L13.2285412,5.18245243 Z" id="Path"></path>
                    <path d="M17.0016913,1.73150106 C17.6961945,2.42600423 17.1082452,3.19281184 17.1082452,3.19281184 C17.097463,3.20359408 17.0866808,3.21374207 17.0765328,3.22452431 C16.4023256,3.86955603 15.6418605,3.70211416 14.8699789,3.5448203 L14.8706131,3.5410148 L16.2564482,2.1551797 L16.840592,1.57040169 L17.0016913,1.73150106 Z" id="Path"></path>
                    <path d="M18.2682875,0.141437632 L18.2682875,0.142706131 L16.840592,1.57040169 L16.2564482,2.1551797 L16.0953488,1.99408034 C15.4008457,1.29957717 15.9887949,0.532769556 15.9887949,0.532769556 C16.0116279,0.509936575 16.0338266,0.488372093 16.0566596,0.46807611 C16.7486258,-0.16807611 17.4900634,-0.00317124736 18.2682875,0.141437632 L18.2682875,0.141437632 Z" id="Path"></path>
                </g>
                <path d="M2.0397463,27.7287526 L7.8615222,21.907611 C8.54200846,21.2271247 9.37147992,21.4013531 10.2019027,21.6419873 L11.5496829,20.2940803 C10.9515856,20.8813953 10.2057082,20.7412262 9.43382664,20.5205074 C8.44312896,20.2376321 7.41057082,19.8215645 6.59302326,20.6391121 L0.771247357,26.4602537 C0.250531548,26.9814433 0.250531548,27.8259562 0.771247357,28.3471459 L1.19112051,28.7663848 C1.33859549,28.9139545 1.51883587,29.0246109 1.71716702,29.0893446 C1.55926624,28.6112819 1.68403078,28.0850434 2.0397463,27.7287526 L2.0397463,27.7287526 Z" id="Path" fill="#FFFFFF"></path>
                <path d="M16.5234672,15.320296 L15.0361522,16.8082452 C14.3042283,17.5395349 13.5057082,17.3879493 12.7179704,17.2281184 C11.9809725,17.0778013 11.2541226,16.9198732 10.6027484,17.4723044 L10.5983087,17.4672304 L12.0107822,16.0547569 C12.7395349,15.32537 13.5361522,15.4737844 14.3213531,15.6336152 C15.0913319,15.7902748 15.8498943,15.958351 16.5234672,15.320296 L16.5234672,15.320296 Z" id="Path" fill="#FFFFFF"></path>
                <path d="M17.6575053,12.297463 C16.9173362,12.1471459 16.187315,11.9860465 15.5340381,12.5403805 L15.5295983,12.5353066 L16.9420719,11.122833 C17.6733615,10.3921776 18.4718816,10.5424947 19.258351,10.7029598 C20.0270613,10.8596195 20.7849894,11.0251586 21.4572939,10.3858351 L21.4579281,10.3864693 L19.9674419,11.8763214 C19.2386892,12.6057082 18.4427061,12.4572939 17.6575053,12.297463 L17.6575053,12.297463 Z" id="Path" fill="#FFFFFF"></path>
                <path d="M26.4634249,5.38097252 L24.9266385,6.91775899 C24.1972516,7.64714588 23.4006342,7.4987315 22.6154334,7.33890063 C21.867019,7.18604651 21.1293869,7.02367865 20.4704017,7.60084567 L20.4678647,7.59767442 L21.943129,6.12241015 C22.6737844,5.39175476 23.4710359,5.54143763 24.256871,5.7012685 C25.0287526,5.85856237 25.7892178,6.02600423 26.4634249,5.38097252 L26.4634249,5.38097252 Z" id="Path" fill="#FFFFFF"></path>
                <path d="M29.5560254,0.398942918 L29.3638478,2.2807611 C28.7790698,2.49260042 28.2082452,2.40063425 27.6551797,2.29788584 C26.8769556,2.15327696 26.135518,1.98837209 25.4435518,2.62452431 L25.4422833,2.62262156 L27.1293869,0.93551797 C27.2750907,0.786756895 27.4533436,0.673856172 27.6501057,0.605708245 L27.6646934,0.591120507 L29.5560254,0.398942918 Z" id="Path" fill="#FFFFFF"></path>
                <path d="M29.517463,0.0200422833 L27.6263214,0.212727273 C27.5679059,0.218702827 27.511696,0.238250327 27.4621776,0.269809725 C27.236082,0.358722632 27.0310963,0.493968243 26.8604017,0.666849894 L25.1732981,2.35395349 C25.169556,2.35769556 25.1669556,2.36207188 25.1635307,2.3659408 C25.1445032,2.38382664 25.1254757,2.40158562 25.1064482,2.42048626 C25.0947137,2.43227223 25.0837402,2.44479219 25.0735941,2.4579704 C24.8135518,2.79653277 24.5102537,3.59682875 25.1097463,4.30674419 L24.1284989,5.28805497 C23.3690486,5.14217759 22.4738055,5.05338266 21.6739535,5.85317125 L20.1984989,7.32862579 C20.1928541,7.33433404 20.1888584,7.34093023 20.1835941,7.34689218 C20.157463,7.37082452 20.1314588,7.39572939 20.1055814,7.42160677 C20.1017125,7.42541226 20.097907,7.42940803 20.0941649,7.43340381 C19.9421405,7.61025354 19.8331596,7.81992238 19.7757717,8.04596195 C19.6964271,8.36359408 19.6967442,8.83090909 20.1083087,9.30811839 L19.1275687,10.2887949 C18.3681184,10.1429175 17.4729387,10.0541226 16.6730233,10.8539112 L15.2606131,12.2663848 C15.2521776,12.2748837 15.2458985,12.2845877 15.2384144,12.2935941 C15.2076533,12.3213108 15.177019,12.3499789 15.1465751,12.3804228 C14.9855604,12.5521626 14.8690777,12.7607383 14.807315,12.987907 C14.722833,13.3045877 14.7205497,13.7743763 15.1489852,14.2675053 L14.1960254,15.2204651 C13.4365751,15.0745877 12.5413319,14.9857928 11.7414799,15.7856448 L10.3291332,17.1979281 C10.3206342,17.2064271 10.3144186,17.2161311 10.306871,17.2252008 C10.2761734,17.2529175 10.2454757,17.2815222 10.2150317,17.3119662 C10.0540918,17.4837751 9.93763953,17.692357 9.8758351,17.9195137 C9.79128964,18.2361945 9.78906977,18.7059831 10.2175053,19.1990486 L9.32448203,20.0921353 L9.26403805,20.0742495 C8.30841438,19.7902326 7.22524313,19.468351 6.32372093,20.3698732 L0.502135307,26.1913319 C-0.166300287,26.8613499 -0.166300287,27.9459863 0.502135307,28.6160042 L0.921945032,29.035814 C1.59199184,29.7041798 2.67657053,29.7041798 3.34661734,29.035814 L11.8215856,20.5607822 L11.8252643,20.5570402 C11.8270402,20.5553488 11.8288161,20.5535729 11.830592,20.5517125 C12.0676429,20.3088834 12.2010689,19.9834485 12.2027061,19.6441015 C12.2024538,19.2827573 12.0688679,18.9342144 11.8275476,18.6652643 L12.850592,17.6422199 C13.6101057,17.7880973 14.5052854,17.8768922 15.3051374,17.0771036 L16.7927061,15.589852 C16.7949894,15.5875687 16.7964482,15.5848414 16.7986681,15.5824947 C16.809704,15.5719027 16.82074,15.5618182 16.831649,15.5507822 C17.1936786,15.1887526 17.4690698,14.4047569 16.8289218,13.6639535 L17.7821987,12.7106765 C18.5415856,12.8565539 19.4368288,12.9453488 20.2367442,12.1455603 L21.7272304,10.655074 C21.7293235,10.652981 21.7306554,10.6505074 21.732685,10.6487315 C21.7428964,10.6388372 21.7531712,10.629704 21.7633827,10.6193023 C21.9243916,10.4475338 22.0408727,10.2389392 22.1026427,10.0117548 C22.1871247,9.69513742 22.189408,9.22528541 21.7609725,8.73221987 L22.7413953,7.75173362 C23.5007822,7.89761099 24.3960254,7.98640592 25.1959408,7.18668076 L26.7324101,5.65014799 C26.7342495,5.64837209 26.7353911,5.64621564 26.7371036,5.64443975 C26.7461734,5.63562368 26.7553066,5.62737844 26.7643763,5.61830867 C26.7761231,5.60655251 26.7870774,5.59403033 26.797167,5.58082452 C27.0572093,5.24226216 27.3605708,4.4420296 26.7610782,3.73205074 L27.785074,2.70799154 C28.2884778,2.79475687 28.8390063,2.85095137 29.4120507,2.6659408 C29.6296761,2.63388607 29.7815798,2.43350063 29.7536575,2.21530655 L29.9347357,0.437378436 C29.9463445,0.32357487 29.906143,0.210586312 29.8252603,0.129691306 C29.7443776,0.0487962989 29.6313952,0.00857767705 29.5175899,0.0201691332 L29.517463,0.0200422833 Z M2.80845666,28.4978436 C2.43585051,28.8695296 1.83271186,28.8695296 1.46010571,28.4978436 L1.04016913,28.0778436 C0.668448165,27.7052518 0.668448165,27.1020843 1.04016913,26.7294926 L6.86162791,20.9079704 C7.09559314,20.6638969 7.42217474,20.5306223 7.76010571,20.5413108 C8.11909091,20.5413108 8.53706131,20.652241 9.04699789,20.8038266 C9.42754757,20.9169133 9.82921776,21.0363425 10.2285412,21.0771882 L2.80845666,28.4978436 Z M11.2924313,20.0135518 C10.9874207,20.3186258 10.6373784,20.375074 10.1871247,20.3056871 L11.0204651,19.4723467 L11.2858985,19.2069133 C11.3841528,19.3287611 11.4390276,19.479862 11.4418605,19.6363636 C11.4419674,19.7765471 11.3885135,19.9114752 11.2924313,20.0135518 L11.2924313,20.0135518 Z M10.7590909,18.6573996 C10.6210148,18.4756871 10.4646089,18.1545032 10.7531924,17.8501903 C11.1031712,17.500148 11.4677378,17.4324736 11.9360677,17.4804228 L10.7590909,18.6573996 Z M14.7671036,16.5390063 C14.19926,17.1068499 13.6356025,17.0264905 12.7628753,16.8486469 C12.4758962,16.783591 12.1848874,16.7378017 11.891797,16.7115856 L12.2795772,16.3238055 C12.8473573,15.7560254 13.4110148,15.8361945 14.2838055,16.0142283 C14.5707482,16.0792371 14.8617131,16.125005 15.1547569,16.1512262 L14.7671036,16.5390063 Z M16.2934884,15.012685 C15.9435095,15.3626638 15.5788795,15.4304017 15.1105497,15.3824524 L15.9522622,14.5408034 L16.287463,14.2055391 C16.4257294,14.3869979 16.5820719,14.7082452 16.2934884,15.012685 L16.2934884,15.012685 Z M16.0259619,13.3907188 L15.6907611,13.7259831 C15.5526216,13.5442072 15.3962791,13.2230233 15.6848626,12.9187104 C16.0348414,12.5686681 16.3994715,12.5009302 16.8678013,12.5488795 L16.0259619,13.3907188 Z M19.6986469,11.6075899 C19.1453277,12.1609091 18.5956871,12.0987526 17.7603171,11.9304863 C17.7427587,11.9255837 17.7248684,11.921959 17.7067865,11.9196406 L17.6941015,11.917167 C17.4071822,11.8521204 17.1162387,11.8063102 16.8232135,11.7800423 L17.2108668,11.392389 C17.7786469,10.8246089 18.3423044,10.9049049 19.2150951,11.0827484 C19.5022399,11.147846 19.7934189,11.1936566 20.0866808,11.2198732 L19.6986469,11.6075899 Z M21.2250317,10.0811416 C20.8750529,10.4310571 20.5104863,10.4987315 20.0422199,10.4508457 L20.9111416,9.58192389 L21.2188161,9.27424947 C21.3572093,9.45545455 21.5137421,9.77663848 21.2250317,10.0809514 L21.2250317,10.0811416 Z M20.957759,8.4589852 L20.6498309,8.76691332 C20.5189218,8.59737844 20.472241,8.42778013 20.5095349,8.25164905 C20.534625,8.14201948 20.5835656,8.03926587 20.6528753,7.95069767 C21.0001903,7.60820296 21.3626004,7.54217759 21.8269979,7.5897463 L20.957759,8.4589852 Z M24.6576533,6.64852008 C24.0898732,7.21636364 23.5260888,7.13606765 22.6534249,6.95816068 C22.3664544,6.89317201 22.0754712,6.84738342 21.7824101,6.82109937 L22.2121142,6.39139535 C22.7799577,5.82361522 23.3435518,5.90372093 24.2163425,6.08181818 C24.503287,6.14681735 24.7942512,6.1925851 25.0872939,6.21881607 L24.6576533,6.64852008 Z M26.205222,5.1005074 C25.8614588,5.43291755 25.502093,5.49716702 25.042833,5.45004228 L26.2187949,4.27414376 C26.479408,4.64010571 26.2769556,4.99598309 26.2053488,5.10031712 L26.205222,5.1005074 Z M25.9585624,3.45799154 L25.652093,3.76446089 C25.3914799,3.39818182 25.5940592,3.04230444 25.665666,2.9379704 C26.0266173,2.58805497 26.392833,2.51765328 26.858055,2.55862579 L25.9585624,3.45799154 Z M29.0117759,1.98608879 C28.5691966,2.08084567 28.119704,1.99750529 27.6481395,1.90947146 C27.3724941,1.85216645 27.0934692,1.81252971 26.8127696,1.79080338 L27.3988161,1.20475687 C27.5033881,1.09687523 27.6317276,1.0149282 27.7735941,0.965454545 C27.7767019,0.964376321 27.7796195,0.962917548 27.7827273,0.961775899 L29.1301268,0.824524313 L29.0117759,1.98608879 Z" id="Shape" fill="#000000"></path>
            </g>
        </g>
    </g>
</svg>