<?xml version="1.0" encoding="UTF-8"?>
<svg width="45px" height="14px" viewBox="0 0 45 14" version="1.1" xmlns="http://www.w3.org/2000/svg" xmlns:xlink="http://www.w3.org/1999/xlink">
    <!-- Generator: Sketch 54.1 (76490) - https://sketchapp.com -->
    <title>car</title>
    <desc>Created with Sketch.</desc>
    <g id="Welcome" stroke="none" stroke-width="1" fill="none" fill-rule="evenodd">
        <g id="DesktopHD" transform="translate(-279.000000, -91.000000)" fill="#000000" fill-rule="nonzero">
            <g id="car" transform="translate(279.000000, 91.000000)">
                <path d="M44.1409118,11.7551955 C44.605607,10.1601746 44.4818642,8.81625353 43.7728776,7.7569124 C42.4236503,5.74467933 39.4247964,5.48714097 38.8523297,5.45680867 L37.7305892,4.83413814 L37.6572601,4.80309046 C36.4116379,4.4366706 31.7207989,4.28930143 31.0180619,4.26898451 C29.9099317,3.70583396 28.9894295,3.17873878 28.1744768,2.71245126 C25.32242,1.07951497 23.4376682,0 18.0418701,0 C11.5076658,0 6.17491959,2.91805272 5.4596833,3.32653718 C5.0691504,3.35686948 4.72403153,3.38434024 4.39780046,3.41095253 L3.50132468,2.16146225 L4.52070999,2.27220374 C4.92485322,2.31598526 5.11331451,2.09435919 4.9416578,1.77730085 C4.76944556,1.46024252 4.30238932,1.16750724 3.89741281,1.12343957 L0.571077985,0.762313553 C0.166934761,0.718675108 -0.0215265291,0.9401581 0.150824585,1.25721644 C0.323036817,1.57427478 0.790093058,1.86701005 1.19506957,1.91107773 L1.70601215,1.9663054 L2.84011303,3.54730479 C0.92036328,3.73545087 0.92036328,3.85334621 0.92036328,4.17269378 C0.92036328,6.79543585 0.594965488,7.39993562 0.527052761,7.51625711 L0,7.08116035 L0,9.80233931 L0.312204112,10.2158315 C0.299982599,10.6128698 0.426503038,10.9774296 0.68357146,11.2790357 C1.51421772,12.2525307 3.42132932,12.2807168 3.63562244,12.2807168 C4.27919622,12.2807168 5.60925796,11.9421969 6.52156615,11.6865186 C6.45823649,11.5747755 6.39282362,11.4643202 6.34102107,11.3442787 C6.29102397,11.2285295 6.25727593,11.1056265 6.21811153,10.9841542 C6.10547918,10.6286082 6.02895584,10.2550345 6.02895584,9.86171621 C6.02895584,7.84805237 7.61900249,6.21096684 9.57250029,6.21096684 C11.5259981,6.21096684 13.1167391,7.84862467 13.1167391,9.86243159 C13.1167391,10.730622 12.8082848,11.5189756 12.3149801,12.1465107 C12.2104028,12.279143 12.1029091,12.4080552 11.9820827,12.5243767 C11.8401465,12.6614444 11.6919607,12.7903566 11.5301645,12.9022427 C15.6038171,12.9178381 27.1075943,12.9757842 34.9604721,13.1556319 C34.8454787,13.0378796 34.7475678,12.9022427 34.6497956,12.7688951 C34.5592453,12.6467074 34.4800833,12.5185106 34.4052265,12.3843045 C34.1046884,11.8486247 33.9191436,11.2361126 33.9191436,10.5736667 C33.9191436,8.56071825 35.5098846,6.92334657 37.4631047,6.92334657 C39.4163247,6.92334657 41.0070658,8.56143363 41.0070658,10.5736667 C41.0070658,11.3070787 40.7913838,11.9865508 40.4304326,12.5592875 C40.3464097,12.6912043 40.2462766,12.8103874 40.1471157,12.9304289 C40.0385108,13.0623457 39.9226842,13.1852488 39.7961638,13.3001395 C40.5195941,13.3223164 41.143169,13.3333333 41.6774436,13.3333333 C44.3943693,13.3333333 44.9251718,13.0918196 44.9912791,12.6153736 C45.0132223,12.4701506 45.0629416,12.1116 44.1409118,11.7551955 Z" id="Path"></path>
                <path d="M7.16536797,11.212777 C7.69033189,11.9888331 8.57864358,12.5 9.58326118,12.5 C9.61616162,12.5 9.64675325,12.4910549 9.67893218,12.4894679 C10.0506494,12.4774931 10.4066378,12.4014601 10.7310245,12.2623788 C10.958153,12.1645602 11.1633478,12.0315386 11.3561328,11.8820695 C12.046176,11.3479628 12.5,10.521699 12.5,9.58333333 C12.5,7.97553093 11.1917749,6.66666667 9.58340548,6.66666667 C7.97503608,6.66666667 6.66666667,7.97553093 6.66666667,9.58333333 C6.66666667,9.90982802 6.73318903,10.2197311 6.83246753,10.513331 C6.87402597,10.6359649 6.92135642,10.7547034 6.97893218,10.8698349 C7.03679654,10.9864093 7.09278499,11.1058691 7.16536797,11.212777 Z" id="Path"></path>
                <path d="M37.0826841,13.3333333 C37.4658884,13.3333333 37.8290379,13.2541145 38.1652074,13.1196301 C38.3944663,13.0269917 38.6067003,12.9044839 38.8032079,12.7596102 C38.9525364,12.6489347 39.090034,12.5264269 39.2162779,12.3903552 C39.6981689,11.8703104 40,11.1798513 40,10.4162338 C40,8.80819275 38.6912476,7.5 37.0834055,7.5 C35.4755633,7.5 34.1666667,8.80819275 34.1666667,10.4162338 C34.1666667,11.1201125 34.4280997,11.7581919 34.8450653,12.2633742 C34.9630853,12.4060835 35.0930804,12.5360948 35.2357721,12.6548508 C35.4249215,12.8118455 35.6295087,12.9469071 35.8551606,13.0523879 C36.2286983,13.2272754 36.6424897,13.3333333 37.0826841,13.3333333 Z" id="Path"></path>
            </g>
        </g>
    </g>
</svg>