<?xml version="1.0" encoding="UTF-8"?>
<svg width="29px" height="28px" viewBox="0 0 29 28" version="1.1" xmlns="http://www.w3.org/2000/svg" xmlns:xlink="http://www.w3.org/1999/xlink">
    <!-- Generator: Sketch 54.1 (76490) - https://sketchapp.com -->
    <title>Path</title>
    <desc>Created with Sketch.</desc>
    <g id="Welcome" stroke="none" stroke-width="1" fill="none" fill-rule="evenodd">
        <g id="Desktop-Produs" transform="translate(-1372.000000, -20.000000)" fill="#000000" fill-rule="nonzero">
            <g id="supermarket-copy-6" transform="translate(1372.000000, 20.000000)">
                <path d="M25.375,21.93125 L25.375,19.9375 L8.3375,19.9375 L9.425,17.94375 L26.1,16.3125 L29,5.4375 L6.70625,5.4375 L5.4375,-3.55271368e-15 L0,-3.55271368e-15 L0,1.8125 L3.9875,1.8125 L7.79375,17.0375 L5.4375,21.75 L5.4375,24.46875 C5.4375,25.91875 6.70625,27.1875 8.15625,27.1875 C9.60625,27.1875 10.875,25.91875 10.875,24.46875 C10.875,23.01875 9.60625,21.75 8.15625,21.75 L21.75,21.75 L21.75,24.46875 C21.75,25.91875 23.01875,27.1875 24.46875,27.1875 C25.91875,27.1875 27.1875,25.91875 27.1875,24.46875 C27.1875,23.2 26.4625,22.29375 25.375,21.93125 L25.375,21.93125 Z" id="Path"></path>
            </g>
        </g>
    </g>
</svg>