<?xml version="1.0" encoding="UTF-8"?>
<svg width="25px" height="25px" viewBox="0 0 420 420" version="1.1" xmlns="http://www.w3.org/2000/svg" xmlns:xlink="http://www.w3.org/1999/xlink">
    <!-- Generator: Sketch 54.1 (76490) - https://sketchapp.com -->
    <title>Artboard</title>
    <desc>Created with Sketch.</desc>
    <g id="Artboard" stroke="none" stroke-width="1" fill="none" fill-rule="evenodd">
        <g id="close(1)" transform="translate(42.000000, 42.000000)" fill="#000000" fill-rule="nonzero">
            <g id="Group">
                <path d="M49.5475969,287.401395 C64.9859796,302.839204 82.9696293,314.962034 103.000497,323.434604 C123.751787,332.211505 145.78001,336.661281 168.474209,336.661281 C191.167835,336.661281 213.196631,332.211505 233.947922,323.434604 C253.978216,314.962034 271.962439,302.838631 287.401395,287.401395 C302.839204,271.962439 314.96318,253.978789 323.434604,233.947922 C332.211505,213.196631 336.662427,191.167835 336.662427,168.474782 C336.662427,145.78001 332.211505,123.751787 323.434604,103.00107 C314.96318,82.9702024 302.838631,64.9865527 287.401395,49.5481701 C271.962439,34.1097874 253.978789,21.9863844 233.947922,13.5143878 C213.196058,4.73691327 191.167835,0.287137755 168.474209,0.287137755 C145.78001,0.287137755 123.751787,4.73748639 103.000497,13.5143878 C82.9696293,21.9863844 64.9859796,34.1103605 49.5475969,49.5481701 C34.1092143,64.9859796 21.9858112,82.9702024 13.5132415,103.000497 C4.73691327,123.751787 0.286564626,145.78001 0.286564626,168.474782 C0.286564626,191.168408 4.73691327,213.196631 13.5138146,233.947922 C21.9858112,253.978789 34.1097874,271.962439 49.5475969,287.401395 Z M168.474209,24.8399949 C247.801602,24.8399949 312.108423,89.1473895 312.108423,168.474782 C312.108423,247.801602 247.801602,312.108423 168.474209,312.108423 C89.1468163,312.108423 24.8394218,247.801602 24.8394218,168.474782 C24.8394218,89.1473895 89.1468163,24.8399949 168.474209,24.8399949 Z" id="Shape"></path>
                <path d="M168.474209,336.947845 C145.739891,336.947845 123.674415,332.490046 102.888736,323.698816 C82.8234813,315.211345 64.8088827,303.06731 49.3452823,287.603709 C33.8805357,272.138389 21.7365,254.123218 13.2501752,234.059109 C4.45779932,213.272284 0,191.206235 0,168.474782 C0,145.742757 4.45779932,123.676134 13.249602,102.888736 C21.7359269,82.8246276 33.8805357,64.8100289 49.3447092,49.3452823 C64.8088827,33.8805357 82.8240544,21.7365 102.888163,13.2501752 C123.675561,4.45837245 145.741611,0.000573129252 168.473636,0.000573129252 C191.207381,0.000573129252 213.27343,4.45837245 234.058536,13.2507483 C254.123218,21.7370731 272.137816,33.881682 287.603136,49.3458554 C303.068456,64.8117483 315.212491,82.8263469 323.698243,102.88931 C332.490619,123.676707 336.948418,145.742757 336.948418,168.474782 C336.948418,191.206235 332.490619,213.272284 323.698243,234.059682 C315.212491,254.123218 303.069029,272.137816 287.603136,287.604282 C272.138963,303.06731 254.123791,315.211345 234.058536,323.699389 C213.27343,332.490046 191.207381,336.947845 168.474209,336.947845 Z M168.474209,0.573702381 C145.818983,0.573702381 123.828587,5.01602721 103.112257,13.7780272 C83.1163503,22.2356956 65.1625034,34.338466 49.7504847,49.7504847 C34.3378929,65.1630765 22.2351224,83.1163503 13.7774541,103.111684 C5.01545408,123.828587 0.573129252,145.819556 0.573129252,168.474782 C0.573129252,191.128862 5.01545408,213.120405 13.7774541,233.836735 C22.2351224,253.832641 34.3378929,271.785915 49.7504847,287.198507 C65.1619303,302.609379 83.1152041,314.71215 103.112257,323.170964 C123.826294,331.932391 145.817264,336.374716 168.474209,336.374716 C191.131155,336.374716 213.121551,331.932391 233.836162,323.170391 C253.832641,314.71215 271.786488,302.609379 287.197934,287.198507 C302.611099,271.784196 314.713296,253.830922 323.169818,233.836735 C331.932391,213.120405 336.375289,191.129435 336.375289,168.474782 C336.375289,145.819556 331.932391,123.828587 323.169818,103.11283 C314.713869,83.1180697 302.611099,65.1647959 287.197934,49.7510578 C271.785342,34.3390391 253.831495,22.2362687 233.836162,13.7786003 C213.120978,5.01602721 191.130009,0.573702381 168.474209,0.573702381 Z M168.474209,312.394988 C130.031565,312.394988 93.8894609,297.424852 66.7065136,270.241905 C39.5235663,243.058384 24.5528571,206.917427 24.5528571,168.474782 C24.5528571,130.032138 39.5229932,93.890034 66.7065136,66.7070867 C93.8894609,39.5241395 130.031565,24.5534303 168.474209,24.5534303 C206.916854,24.5534303 243.058384,39.5241395 270.241332,66.7070867 C297.424852,93.8906071 312.394988,130.032138 312.394988,168.474782 C312.394988,206.917427 297.424852,243.058957 270.241332,270.241905 C243.058384,297.424852 206.916281,312.394988 168.474209,312.394988 Z M168.474209,25.1265595 C130.18459,25.1265595 94.186915,40.0376633 67.111716,67.1122891 C40.0370901,94.1874881 25.1259864,130.185163 25.1259864,168.474782 C25.1259864,206.764401 40.0370901,242.762077 67.111716,269.836129 C94.1863418,296.910755 130.18459,311.821859 168.474209,311.821859 C206.763828,311.821859 242.761503,296.910755 269.836129,269.836129 C296.910755,242.762077 311.821859,206.763828 311.821859,168.474782 C311.821859,130.185163 296.910755,94.186915 269.836129,67.1122891 C242.76093,40.0370901 206.763828,25.1265595 168.474209,25.1265595 Z" id="Shape"></path>
            </g>
            <g id="Group" transform="translate(102.000000, 102.000000)">
                <path d="M3.96706897,128.980763 C6.3650819,131.379349 9.5072069,132.578069 12.6499052,132.578069 C15.7926034,132.578069 18.9353017,131.378776 21.3327414,128.980763 L66.4736293,83.839875 L111.615091,128.980763 C114.01253,131.379349 117.155228,132.578069 120.297927,132.578069 C123.440625,132.578069 126.58275,131.378776 128.980763,128.980763 C133.776216,124.186457 133.776216,116.411116 128.980763,111.615664 L83.8387284,66.4747759 L128.979616,21.3333147 C133.775069,16.5378621 133.775069,8.76252155 128.979616,3.96764224 C124.18531,-0.827810345 116.40997,-0.827810345 111.614517,3.96764224 L66.473056,49.1091034 L21.3321681,3.96764224 C16.5367155,-0.827810345 8.761375,-0.827810345 3.96649569,3.96764224 C-0.828956897,8.76309483 -0.828956897,16.5378621 3.96649569,21.3333147 L49.1079569,66.4747759 L3.96649569,111.615664 C-0.828383621,116.411116 -0.828383621,124.186457 3.96706897,128.980763 Z" id="Path"></path>
                <path d="M120.2985,132.86528 C116.941397,132.86528 113.786086,131.558211 111.412724,129.183703 L66.4742026,84.245181 L21.5362543,129.183703 C19.1628922,131.558211 16.0070086,132.86528 12.6504784,132.86528 C9.29394828,132.86528 6.13806466,131.558211 3.76470259,129.183703 C1.39134052,126.810341 0.0842715517,123.65503 0.0842715517,120.299073 C0.0842715517,116.942543 1.39134052,113.787233 3.76470259,111.413297 L48.7032241,66.4747759 L3.76470259,21.5362543 C-1.13451293,16.6364655 -1.13451293,8.66449138 3.76470259,3.76470259 C6.13806466,1.39134052 9.293375,0.0842715517 12.6504784,0.0842715517 C16.0070086,0.0842715517 19.1628922,1.39134052 21.5362543,3.76470259 L66.4747759,48.7032241 L111.413297,3.76470259 C113.787233,1.39134052 116.942543,0.0842715517 120.299073,0.0842715517 C123.65503,0.0842715517 126.810341,1.39134052 129.183703,3.76470259 C131.557638,6.13806466 132.864134,9.29394828 132.864134,12.6504784 C132.864134,16.0070086 131.557638,19.1628922 129.183703,21.5362543 L84.245181,66.4747759 L129.184849,111.413297 C131.558784,113.787233 132.865853,116.942543 132.865853,120.299073 C132.865853,123.65503 131.558784,126.810341 129.184849,129.183703 C126.809767,131.557638 123.654457,132.86528 120.2985,132.86528 Z M66.4742026,83.434569 L111.81803,128.778397 C114.08247,131.043983 117.094461,132.292004 120.2985,132.292004 C123.501392,132.292004 126.513384,131.043983 128.77897,128.778397 C131.043983,126.513957 132.292004,123.502539 132.292004,120.299073 C132.292004,117.095608 131.043983,114.083616 128.77897,111.818603 L83.4339957,66.4747759 L128.777823,21.1309483 C131.042836,18.8659353 132.290284,15.853944 132.290284,12.6504784 C132.290284,9.44701293 131.042836,6.43559483 128.777823,4.1705819 C126.513384,1.90556897 123.501966,0.65812069 120.2985,0.65812069 C117.095034,0.65812069 114.083043,1.90556897 111.81803,4.1705819 L66.4742026,49.5144095 L21.130375,4.1705819 C18.8653621,1.90556897 15.8533707,0.65812069 12.6499052,0.65812069 C9.44643966,0.65812069 6.43502155,1.90556897 4.17000862,4.1705819 C-0.50562931,8.8467931 -0.50562931,16.4547371 4.17000862,21.1309483 L49.5138362,66.4747759 L4.17000862,111.818603 C1.90499569,114.083616 0.657547414,117.095608 0.657547414,120.299073 C0.657547414,123.502539 1.90499569,126.513957 4.17000862,128.778397 C6.43559483,131.043983 9.44701293,132.292004 12.6504784,132.292004 C15.853944,132.292004 18.8653621,131.043983 21.1309483,128.778397 L66.4742026,83.434569 Z" id="Shape"></path>
            </g>
        </g>
    </g>
</svg>