<?xml version="1.0" encoding="UTF-8"?>
<svg width="21px" height="34px" viewBox="0 0 25 40" version="1.1" xmlns="http://www.w3.org/2000/svg" xmlns:xlink="http://www.w3.org/1999/xlink">
    <!-- Generator: Sketch 54.1 (76490) - https://sketchapp.com -->
    <title>compass</title>
    <desc>Created with Sketch.</desc>
    <g id="Welcome" stroke="none" stroke-width="1" fill="none" fill-rule="evenodd">
        <g id="Artboard" transform="translate(-385.000000, -382.000000)" fill="#000000" fill-rule="nonzero">
            <g id="compass" transform="translate(385.000000, 382.000000)">
                <polygon id="Path" points="24.3570312 39.4140625 12.5000781 7.8078125 0.643046875 39.4140625 12.5000781 15.5524219"></polygon>
                <path d="M24.9057031,39.2082812 L16.7279688,17.4096094 C17.9014844,16.8925 18.9807031,16.1565625 19.9147656,15.2225781 C20.1435938,14.99375 20.1435938,14.6227344 19.9147656,14.3939844 C19.6859375,14.1652344 19.315,14.1651562 19.0860938,14.3939844 C18.2724219,15.2077344 17.3345313,15.851875 16.3153906,16.3097656 L14.7514063,12.1407031 C16.3145313,11.3251562 17.3847656,9.6896875 17.3847656,7.80796875 C17.3847656,7.10421875 17.2382031,6.42492187 16.9491406,5.78890625 C16.8152344,5.494375 16.468125,5.36390625 16.1732031,5.49796875 C15.8785938,5.631875 15.7483594,5.97921875 15.8821875,6.27382812 C16.1016406,6.75648437 16.2128125,7.27265625 16.2128125,7.80796875 C16.2128125,9.18765625 15.4557813,10.393125 14.3357813,11.033125 L13.0486719,7.6021875 C12.9628125,7.37351562 12.7442969,7.22203125 12.5000781,7.22203125 C12.2558594,7.22203125 12.0372656,7.37351562 11.9514844,7.6021875 L10.664375,11.0332031 C9.544375,10.3932031 8.78726562,9.18773437 8.78726562,7.80804687 C8.78726562,5.96015625 10.144375,4.42375 11.9141406,4.141875 L11.9141406,5.40070312 C11.9141406,5.72429687 12.1764844,5.98664062 12.5000781,5.98664062 C12.82375,5.98664062 13.0860156,5.72429687 13.0860156,5.40070312 L13.0860156,4.143125 C13.5611719,4.21875 14.0182812,4.38414062 14.4305469,4.635625 C14.7067188,4.80398437 15.0673437,4.716875 15.2359375,4.44054687 C15.4044531,4.16429687 15.3171875,3.80375 15.0409375,3.63515625 C14.4444531,3.27125 13.7776562,3.04210937 13.0860937,2.95890625 L13.0860937,0.5859375 C13.0860937,0.26234375 12.8238281,0 12.5001563,0 C12.1765625,0 11.9142187,0.26234375 11.9142187,0.5859375 L11.9142187,2.95953125 C9.49625,3.25007813 7.61546875,5.3128125 7.61546875,7.8078125 C7.61546875,9.68960937 8.68578125,11.3250781 10.2489063,12.1405469 L8.68484375,16.3096875 C7.66570313,15.8517969 6.72773438,15.2076563 5.91398438,14.3939063 C5.68515625,14.1650781 5.31414063,14.1650781 5.08539063,14.3939063 C4.8565625,14.6227344 4.8565625,14.99375 5.08539063,15.2225 C6.01945313,16.1565625 7.09875,16.8924219 8.27226563,17.4096094 L0.094453125,39.2082812 C-0.01921875,39.51125 0.13421875,39.8490625 0.437265625,39.9626562 C0.7403125,40.07625 1.07796875,39.9228906 1.19164063,39.6198438 L9.3696875,17.8203125 C10.37,18.1317187 11.4225,18.2938281 12.5,18.2938281 C13.5775781,18.2938281 14.6300781,18.1317969 15.6303906,17.8203125 L23.8084375,39.6198438 C23.8967188,39.8550781 24.1199219,40.0001563 24.3571094,40.0001563 C24.4254688,40.0001563 24.4950781,39.988125 24.5628906,39.9626563 C24.8658594,39.8489844 25.0192969,39.51125 24.9057031,39.2082812 Z M12.5000781,9.4759375 L13.2392969,11.4464062 C13.0003125,11.4949219 12.753125,11.5205469 12.5000781,11.5205469 C12.2470312,11.5205469 11.9998437,11.4949219 11.7608594,11.4464062 L12.5000781,9.4759375 Z M12.5,17.1219531 C11.5653906,17.1219531 10.6517969,16.9851562 9.78203125,16.7211719 L11.3455469,12.5534375 C11.7159375,12.6435937 12.1022656,12.6925 12.5,12.6925 C12.8977344,12.6925 13.2840625,12.6435937 13.6544531,12.5534375 L15.2179687,16.7211719 C14.3482813,16.9851562 13.4346875,17.1219531 12.5,17.1219531 Z" id="Shape"></path>
            </g>
        </g>
    </g>
</svg>