<?xml version="1.0" encoding="UTF-8"?>
<svg width="32px" height="32px" viewBox="0 0 32 32" version="1.1" xmlns="http://www.w3.org/2000/svg" xmlns:xlink="http://www.w3.org/1999/xlink">
    <!-- Generator: Sketch 54.1 (76490) - https://sketchapp.com -->
    <title>hammer</title>
    <desc>Created with Sketch.</desc>
    <g id="Welcome" stroke="none" stroke-width="1" fill="none" fill-rule="evenodd">
        <g id="Artboard" transform="translate(-245.000000, -305.000000)" fill="#000000" fill-rule="nonzero">
            <g id="hammer" transform="translate(245.000000, 305.000000)">
                <path d="M31.7,2.8c-2.4-0.2-4.7-0.1-7.1-0.1c-0.2-0.6-0.7-0.8-1.1-1.1c-0.4-0.2-0.7-0.5-1.2-0.5 c-0.6-0.1-1.2,0-1.7-0.3c-0.5-0.1-1-0.1-1.5,0c-0.2-0.3-0.4-0.7-0.9-0.6c-1.5,0-3.1,0-4.6,0c-1-0.1-1.7,1-2.7,0.9 c-1.4,0.1-2.8,0-4.1-0.1C7.6,1,8.4,1,9.3,0.9c0.3,0,0.6-0.1,0.8-0.2c0.1-0.1,0.1-0.3,0.2-0.5C8.9,0,7.6,0.1,6.3,0.1 C5.5,0,4.7-0.1,4,0.1C3.4,0.4,3.1,1.1,3.1,1.8C3.3,2.2,3.6,2.6,3.5,3C3.3,3.7,2.8,4.1,2.6,4.7c-1.3,3.1-2.1,6.5-2.1,9.9 c0,0.6,0.1,1.2-0.1,1.7c-0.1,0.3-0.3,0.6-0.3,0.9c-0.1,1.2,0.1,2.3,0.1,3.5c0.1,0.8,0.1,1.6,0.3,2.3c0.3,0.9,0.8,1.7,1.4,2.4 c0.7,0.9,1.7,1.4,2.7,1.8c1.2,0.4,2.6,0.2,3.9-0.1c0.5-0.1,0.9-0.4,1.4-0.5c0.5,0.2,0.9,0.5,1.4,0.6c1,0.2,2,0.4,3.1,0.3 c0.8,0,1.6-0.3,2.4-0.5c0.6-0.2,1-0.5,1.5-0.9c1-0.7,1.6-1.7,2.2-2.7c0.7-1.2,0.9-2.7,0.8-4.1c-0.1-1-0.4-2-1-2.7 c-0.9-0.8-2.2-0.8-3.2-0.3c-0.9,0.3-1.4,1.1-1.9,1.9c-0.8,1.4-1.6,2.8-2.5,4.1c-0.8,1.1-1.6,2.2-2.6,3c-0.2,0.1-0.4,0.2-0.6,0.1 c-0.7-0.6-1.4-1.3-1.8-2.2c-1.2-2.5-0.1-6.1,2.4-7.3c1-0.6,2.2-0.8,3.3-1c1.3-0.3,2.7-0.5,4-1.1c1.5-0.5,2.9-1.2,4.3-2.1 c0.7-0.5,1.4-1.1,2.1-1.6c0.3-0.3,0.6-0.7,1-0.8c0.5-0.2,1-0.1,1.5-0.3C26.5,9,26.7,8.8,27,8.6c-0.1-0.1-0.3-0.3-0.5-0.4 c0.4-0.5,0.8-0.8,1.1-1.4c-0.1,0-0.2-0.1-0.3-0.1c-0.4,0.4-0.8,0.8-1.2,1.2C25.8,7.6,25.4,7.3,25,7c0.4-0.4,0.8-0.8,1.2-1.3 c-0.1-0.1-0.2-0.2-0.3-0.3c-0.4,0.4-0.8,0.9-1.3,1.3c-0.2-0.1-0.3-0.2-0.5-0.4c-0.2,0.2-0.4,0.4-0.6,0.7c-0.1,0.5,0,1.1-0.1,1.6 C23.3,9,23,9.3,22.8,9.7c-0.3,0.6-0.9,1-1.5,1.4c-1.3,0.8-2.7,1.6-4.2,2.1c-1.7,0.7-3.4,1-5.2,1.3c-1.1,0.2-2.2,0.7-3.2,1.4 c-1,0.7-1.6,1.7-2,2.8c-0.4,1-0.6,2.2-0.4,3.2c0.2,1.2,0.7,2.4,1.6,3.3c0.3,0.3,0.6,0.6,1,1c-1,0.5-2.2,0.5-3.3,0.5 c-0.8,0-1.5-0.4-2.2-0.8c-0.7-0.4-1.2-1.2-1.6-1.9c-0.5-0.7-0.8-1.7-0.7-2.6c0.2-0.4,0.5-0.7,0.8-1c0.3-0.3,0.7,0,1,0 c0.6,0.1,1.3,0.3,1.9,0c0.3-0.4,0.7-0.8,0.7-1.3c-0.4-1-1.5-1.7-1.3-2.9c0-0.7,0-1.4,0.2-2.1c0.1-0.4,0.6-0.4,0.9-0.6 c0.3-0.2,0.6-0.3,0.9-0.4c0.2-0.1,0.1-0.5,0.1-0.7c-0.1-0.8,0.2-1.5,0.1-2.3c0-0.4,0.1-0.9,0.5-1C7.3,9,7.6,9.1,8,9.1 c0.2,0,0.3-0.3,0.4-0.4c1.5,0.2,2.9,0.1,4.4,0.2c0.7,0,1.3,0.1,2,0c0.6-0.3,1.1-0.8,1.7-1.2C17.3,7,18.3,6.5,19,5.5 c1,0.1,2,0,3-0.1c1-0.2,2.1-0.7,2.6-1.6c2.4-0.1,4.7,0.1,7.1,0.1C32.1,3.8,32.1,2.9,31.7,2.8z M12.6,23.6c1.4-1.7,2.4-3.8,3.6-5.7 c0.5-0.7,1.2-1.1,2.1-1.1c0.5,0,1.2,0.1,1.6,0.6c0.4,0.6,0.6,1.3,0.6,2c0.1,1.5-0.2,3.1-1,4.3c-0.8,1.3-2,2.4-3.5,2.8 c-1,0.3-2.1,0.4-3.1,0.2c-0.8-0.1-1.6-0.2-2.3-0.6C11.3,25.4,12,24.6,12.6,23.6z M25.5,3.5c-0.3,0-0.5,0-0.8,0 C24.8,3.3,25,3.1,25,3c0.2,0,0.5,0,0.7,0C25.7,3.2,25.6,3.3,25.5,3.5z M26.8,3.5c-0.2,0-0.5,0.1-0.7,0.1c0.1-0.2,0.2-0.4,0.3-0.5 c0.2,0,0.5-0.1,0.7-0.1C27,3.1,26.9,3.3,26.8,3.5z M28.2,3.5c-0.2,0-0.5,0.1-0.7,0.1c0.1-0.2,0.2-0.4,0.3-0.5 c0.2,0,0.5-0.1,0.7-0.1C28.4,3.1,28.3,3.3,28.2,3.5z M29.6,3.4c-0.2,0-0.5,0.1-0.7,0.1C29,3.3,29,3.2,29.2,3C29.4,3,29.7,3,29.9,3 C29.8,3.1,29.7,3.3,29.6,3.4z M30.3,3.6c0.1-0.2,0.1-0.4,0.2-0.6c0.1,0,0.4,0,0.6,0C30.9,3.3,30.7,3.6,30.3,3.6z" id="Shape"></path>
            </g>
        </g>
    </g>
</svg>