<?xml version="1.0" encoding="UTF-8"?>
<svg width="25px" height="25px" viewBox="0 0 25 25" version="1.1" xmlns="http://www.w3.org/2000/svg" xmlns:xlink="http://www.w3.org/1999/xlink">
    <!-- Generator: Sketch 54.1 (76490) - https://sketchapp.com -->
    <title>Path</title>
    <desc>Created with Sketch.</desc>
    <g id="Welcome" stroke="none" stroke-width="1" fill="none" fill-rule="evenodd">
        <g id="Desktop-Produs" transform="translate(-683.000000, -2041.000000)" fill="#717171" fill-rule="nonzero">
            <g id="facebook" transform="translate(683.000000, 2041.000000)">
                <path d="M23.6199951,-9.92616735e-24 L1.37878418,-9.92616735e-24 C0.617218008,0.000457765625 -0.000152587891,0.618133555 -9.92616735e-24,1.38000488 L-9.92616735e-24,23.6212158 C0.000457765625,24.382782 0.618133555,25.0001526 1.38000488,25 L13.3544922,25 L13.3544922,15.3320312 L10.1074219,15.3320312 L10.1074219,11.5478516 L13.3544922,11.5478516 L13.3544922,8.76296996 C13.3544922,5.53344727 15.3260803,3.77563477 18.2069397,3.77563477 C19.586792,3.77563477 20.7725525,3.87847898 21.1181641,3.92440797 L21.1181641,7.29980469 L19.1316223,7.29980469 C17.5642395,7.29980469 17.2607422,8.04458617 17.2607422,9.13772582 L17.2607422,11.5478516 L21.0083008,11.5478516 L20.5200195,15.3320312 L17.2607422,15.3320312 L17.2607422,25 L23.6199951,25 C24.3820191,25.0001526 24.9998474,24.3826294 25,23.6206055 C25,23.6204529 25,23.6203003 25,23.6199951 L25,1.37878418 C24.9996948,0.617218008 24.3818664,-0.000152587891 23.6199951,-9.92616735e-24 Z" id="Path"></path>
            </g>
        </g>
    </g>
</svg>