<?xml version="1.0" encoding="UTF-8"?>
<svg width="30px" height="30px" viewBox="0 0 30 30" version="1.1" xmlns="http://www.w3.org/2000/svg" xmlns:xlink="http://www.w3.org/1999/xlink">
    <!-- Generator: Sketch 54.1 (76490) - https://sketchapp.com -->
    <title>filter</title>
    <desc>Created with Sketch.</desc>
    <g id="Welcome" stroke="none" stroke-width="1" fill="none" fill-rule="evenodd">
        <g id="Tablet-Open-Filter" transform="translate(-162.000000, -68.000000)" fill="#3B3B3B" fill-rule="nonzero">
            <g id="filter" transform="translate(162.000000, 68.000000)">
                <path d="M29.7992706,1.57951354 C29.3962097,0.605163574 28.4902954,0 27.435379,0 L2.56462096,0 C1.50970459,0 0.603790313,0.605163574 0.200729355,1.57951354 C-0.202102676,2.55249023 0.0107574609,3.61953738 0.755996719,4.36386105 L12.2172546,15.8145905 L12.2172546,28.6800384 C12.2172546,29.2034912 12.5134277,29.6630859 12.9901886,29.8796081 C13.1680298,29.9604035 13.3550262,30 13.5397339,30 C13.8507843,30 14.1558838,29.8880768 14.403305,29.6717835 L16.9324494,27.460556 C17.4728394,26.9881439 17.7827454,26.3056183 17.7827454,25.5880737 L17.7827454,15.8145905 L29.2442321,4.36386105 C29.9892425,3.61953738 30.2021027,2.55249023 29.7992706,1.57951354 L29.7992706,1.57951354 Z M28.6230469,3.74221805 L17.1615601,15.1929474 L14.4140625,15.1929474 C14.1716766,15.1929474 13.9748382,15.3904724 13.9748382,15.6324005 C13.9748382,15.8745575 14.1716766,16.0718537 14.4140625,16.0718537 L16.904068,16.0718537 L16.904068,25.5880737 C16.904068,26.0522461 16.7035675,26.4935303 16.3540649,26.7990875 L13.8249206,29.0100861 C13.6269379,29.1831207 13.4140778,29.106903 13.3534241,29.0794372 C13.2929993,29.0519714 13.0961609,28.9421081 13.0961609,28.6802673 L13.0961609,15.4502106 L1.37695312,3.74198912 C0.792617812,3.15834047 0.805664062,2.41584779 1.01257324,1.91551207 C1.21994016,1.41448975 1.7365265,0.87890625 2.56462096,0.87890625 L27.435379,0.87890625 C28.2634735,0.87890625 28.7800598,1.41448975 28.9874268,1.91551207 C29.1943359,2.41584779 29.2073822,3.15834047 28.6230469,3.74221805 Z" id="Shape"></path>
            </g>
        </g>
    </g>
</svg>