<svg width="28px" height="28px" version="1.1" id="Layer_1" xmlns="http://www.w3.org/2000/svg" xmlns:xlink="http://www.w3.org/1999/xlink" x="0px" y="0px" viewBox="0 0 60 61.3" style="enable-background:new 0 0 60 61.3;" xml:space="preserve">
<path class="st0" d="M44.4,29.6c1.9,0,3.4-1.5,3.4-3.4s-1.5-3.4-3.4-3.4S41,24.3,41,26.2S42.5,29.6,44.4,29.6z M44.4,24.2 c1.1,0,2,0.9,2,2s-0.9,2-2,2c-1.1,0-2-0.9-2-2C42.4,25.1,43.3,24.2,44.4,24.2z"></path> <path class="st0" d="M49.9,50c-2.2,0-4,1.8-4,4s1.8,4,4,4c2.2,0,4-1.8,4-4S52.1,50,49.9,50z M49.9,56.5c-1.4,0-2.6-1.2-2.6-2.6 c0-1.4,1.2-2.6,2.6-2.6c1.4,0,2.6,1.2,2.6,2.6C52.5,55.3,51.3,56.5,49.9,56.5z"></path> <path class="st0" d="M49.9,52c-1.1,0-1.9,0.9-1.9,1.9c0,1.1,0.9,1.9,1.9,1.9s1.9-0.9,1.9-1.9C51.8,52.9,51,52,49.9,52z M49.9,54.4 c-0.3,0-0.5-0.2-0.5-0.5s0.2-0.5,0.5-0.5c0.3,0,0.5,0.2,0.5,0.5S50.2,54.4,49.9,54.4z"></path> <path class="st0" d="M59.4,40.3l-0.8-2.6c-0.9-2.7-3.4-4.6-6.3-4.6h-0.6V18.6c0-0.4-0.3-0.7-0.7-0.7h-4.7v-1.7 c0.9-0.6,1.5-1.7,1.5-2.8c0-1.9-1.5-3.4-3.4-3.4S41,11.5,41,13.4c0,1.2,0.6,2.2,1.5,2.8v1.7h-4v-0.9c0-0.4-0.3-0.7-0.7-0.7h-6.1 c-0.4,0-0.7,0.3-0.7,0.7v3.1c0,0.4,0.3,0.7,0.7,0.7h0.5v0.8h-1.7c-0.4,0-0.7,0.3-0.7,0.7c0,0.4,0.3,0.7,0.7,0.7h1.7v0.8h-1.7 c-0.4,0-0.7,0.3-0.7,0.7c0,0.4,0.3,0.7,0.7,0.7h1.7V26h-1.7c-0.4,0-0.7,0.3-0.7,0.7c0,0.4,0.3,0.7,0.7,0.7h1.7v0.8h-1.7 c-0.4,0-0.7,0.3-0.7,0.7c0,0.4,0.3,0.7,0.7,0.7h1.7V30h-1.1c-0.4,0-0.7,0.3-0.7,0.7v1.2H30l-0.8-1.9v-4.6c0-0.4-0.3-0.7-0.7-0.7 h-1.6L19,6.6c0-0.1-0.1-0.1-0.1-0.2c-0.1-0.1-0.2-0.2-0.4-0.3L1.6,0C1.5,0,1.2,0,1.1,0.1C0.9,0.2,0.8,0.3,0.7,0.5L0,3.4 c-0.1,0.3,0.1,0.7,0.4,0.8l14.1,5.9L21,24.8h-1.6c-0.4,0-0.7,0.3-0.7,0.7v0.8h-1.3c-0.3,0-0.6,0.2-0.7,0.5h-3.2 c-0.4,0-0.7,0.3-0.7,0.7v1.7c0,0.4,0.3,0.7,0.7,0.7h3.2c0.1,0.3,0.3,0.5,0.7,0.5h1.3v2.8h-4.2c-2.7,0-5.1,1.7-6.1,4.2l-0.6,1.6 c-1.2,3-1.2,6.3-0.1,9.3l0.8,2.2c0.9,2.6,3.4,4.3,6.2,4.3h1.9v5.8c0,0.4,0.3,0.7,0.7,0.7H19c0.4,0,0.7-0.3,0.7-0.7v-5.8h22.9 c0.4,3.7,3.5,6.5,7.3,6.5c4.1,0,7.4-3.3,7.4-7.4c0-0.4,0-0.8-0.1-1.2c0.6-0.7,1.2-1.4,1.5-2.3l0.6-1.6 C60.2,46.1,60.3,43.1,59.4,40.3z M16.7,28.4h-2.5v-0.3h2.5V28.4z M18.7,28.9h-0.6v-1.3h0.6V28.9z M15.7,9.3 c-0.1-0.2-0.2-0.3-0.4-0.4L1.5,3.2l0.4-1.6l15.9,5.8l10.7,24.5h-2.9L15.7,9.3z M22,32.6v0.5h-1.9v-3.5h0v-2.7v-0.8h1.5l2.5,5.8h-1.4 C22.3,31.9,22,32.3,22,32.6z M35.9,38.1H23.4v-4.8h12.4V38.1z M37.2,32.3c-0.1-0.2-0.3-0.4-0.6-0.4h-4.6v-0.6H33h4.2V32.3z M37.2,30 h-3.5v-0.5h3.5V30z M37.2,28.1h-3.5v-0.8h3.5V28.1z M37.2,26h-3.5v-0.8h3.5V26z M37.2,23.8h-3.5V23h3.5V23.8z M37.2,21.6h-3.5v-0.8 h3.5V21.6z M37.2,18.6v0.9H33h-0.5v-1.7h4.7V18.6z M42.4,13.4c0-1.1,0.9-2,2-2c1.1,0,2,0.9,2,2s-0.9,2-2,2 C43.3,15.4,42.4,14.5,42.4,13.4z M45,16.8v1.2h-1.1v-1.2h0c0.2,0,0.4,0.1,0.5,0.1C44.6,16.8,44.8,16.8,45,16.8z M38.5,33.1v-2.4 V20.2v-0.9h4.7h2.5h4.7v13.8H38.5z M49.9,59.9c-3.3,0-6-2.7-6-6s2.7-6,6-6s6,2.7,6,6S53.2,59.9,49.9,59.9z"></path> </svg>