<?xml version="1.0" encoding="UTF-8"?>
<svg width="18px" height="17px" viewBox="0 0 17 16" version="1.1" xmlns="http://www.w3.org/2000/svg" xmlns:xlink="http://www.w3.org/1999/xlink">
    <!-- Generator: Sketch 54.1 (76490) - https://sketchapp.com -->
    <title>heart</title>
    <desc>Created with Sketch.</desc>
    <g id="Welcome" stroke="none" stroke-width="1" fill="none" fill-rule="evenodd">
        <g id="Desktop-Categorie-Selectata" transform="translate(-837.000000, -973.000000)" fill="#717171" fill-rule="nonzero">
            <g id="heart" transform="translate(837.000000, 973.000000)">
                <path d="M15.5945481,1.53204494 C14.7160962,0.577474157 13.4851611,0.0343370787 12.1955084,0.0323235955 C10.9048243,0.0338337079 9.67260879,0.576683146 8.79280544,1.53143371 L8.49295816,1.8517573 L8.19311088,1.53143371 C6.44733891,-0.368107865 3.50893515,-0.477195506 1.63000837,1.28773034 C1.54675105,1.36596854 1.46633891,1.44722697 1.38894979,1.53143371 C-0.462983264,3.55088539 -0.462983264,6.67185618 1.38894979,8.69130787 L8.05230962,15.7953438 C8.282841,16.0413843 8.66701255,16.0519191 8.91038285,15.8188584 C8.91834937,15.811236 8.92610251,15.8033978 8.93364226,15.7953438 L15.5945837,8.69130787 C17.4463745,6.67207191 17.4463745,3.5512809 15.5945481,1.53204494 Z" id="Path"></path>
            </g>
        </g>
    </g>
</svg>