<?xml version="1.0" encoding="UTF-8"?>
<svg width="16px" height="15px" viewBox="0 0 16 15" version="1.1" xmlns="http://www.w3.org/2000/svg" xmlns:xlink="http://www.w3.org/1999/xlink">
    <!-- Generator: Sketch 54.1 (76490) - https://sketchapp.com -->
    <title>supermarket copy</title>
    <desc>Created with Sketch.</desc>
    <g id="Welcome" stroke="none" stroke-width="1" fill="none" fill-rule="evenodd">
        <g id="Desktop-Categorie-Selectata" transform="translate(-950.000000, -972.000000)" fill="#444444" fill-rule="nonzero">
            <g id="supermarket-copy" transform="translate(950.000000, 972.000000)">
                <path d="M14,12.1 L14,11 L4.6,11 L5.2,9.9 L14.4,9 L16,3 L3.7,3 L3,0 L-2.66453526e-15,0 L-2.66453526e-15,1 L2.2,1 L4.3,9.4 L3,12 L3,13.5 C3,14.3 3.7,15 4.5,15 C5.3,15 6,14.3 6,13.5 C6,12.7 5.3,12 4.5,12 L12,12 L12,13.5 C12,14.3 12.7,15 13.5,15 C14.3,15 15,14.3 15,13.5 C15,12.8 14.6,12.3 14,12.1 L14,12.1 Z" id="Path"></path>
            </g>
        </g>
    </g>
</svg>