<?xml version="1.0" encoding="UTF-8"?>
<svg width="512px" height="512px" viewBox="0 0 512 512" version="1.1" xmlns="http://www.w3.org/2000/svg" xmlns:xlink="http://www.w3.org/1999/xlink">
    <!-- Generator: Sketch 54.1 (76490) - https://sketchapp.com -->
    <title>Artboard</title>
    <desc>Created with Sketch.</desc>
    <g id="Artboard" stroke="none" stroke-width="1" fill="none" fill-rule="evenodd">
        <g id="settings" transform="translate(40.000000, 41.000000)" fill="#000000" fill-rule="nonzero">
            <path d="M421.358978,166.425873 L388.232956,159.224564 C385.352433,150.405426 381.78466,141.803314 377.572388,133.516876 L395.911064,104.991142 C399.18618,99.8943255 398.466049,93.2026978 394.184723,88.921371 L342.578629,37.3152771 C338.297302,33.0339512 331.605675,32.3138201 326.508858,35.5889361 L297.983124,53.9276123 C289.696686,49.7153399 281.094574,46.1475673 272.275436,43.2670445 L265.074127,10.1410217 C263.788414,4.22213745 258.546913,0 252.489921,0 L179.510079,0 C173.453087,0 168.211586,4.22213745 166.925873,10.1410217 L159.724564,43.2670445 C150.905426,46.1475673 142.303314,49.7153399 134.016876,53.9276123 L105.491142,35.5889361 C100.394325,32.3138201 93.7026978,33.0339512 89.421371,37.3152771 L37.8152771,88.921371 C33.5339512,93.2026978 32.8138201,99.8943255 36.0889361,104.991142 L54.4276123,133.516876 C50.2153399,141.803314 46.6475673,150.405426 43.7670445,159.224564 L10.6410217,166.425873 C4.72213745,167.714874 0.5,172.953087 0.5,179.010079 L0.5,251.989921 C0.5,258.046913 4.72213745,263.285126 10.6410217,264.574127 L43.7670445,271.775436 C46.6475673,280.594574 50.2153399,289.196686 54.4276123,297.483124 L36.0889361,326.008858 C32.8138201,331.105675 33.5339512,337.797302 37.8152771,342.078629 L89.421371,393.684723 C93.7026978,397.966049 100.394325,398.68618 105.491142,395.411064 L134.016876,377.072388 C142.303314,381.28466 150.905426,384.852433 159.724564,387.732956 L166.925873,420.858978 C168.211586,426.777863 173.453087,431 179.510079,431 L252.489921,431 C258.546913,431 263.788414,426.777863 265.074127,420.858978 L272.275436,387.732956 C281.094574,384.852433 289.696686,381.28466 297.983124,377.072388 L326.508858,395.411064 C331.605675,398.68618 338.297302,397.969338 342.578629,393.684723 L394.184723,342.078629 C398.466049,337.797302 399.18618,331.105675 395.911064,326.008858 L377.572388,297.483124 C381.78466,289.196686 385.352433,280.594574 388.232956,271.775436 L421.358978,264.574127 C427.277863,263.285126 431.5,258.046913 431.5,251.989921 L431.5,179.010079 C431.5,172.953087 427.277863,167.714874 421.358978,166.425873 Z M293.271034,215.5 C293.271034,258.106102 258.606102,292.771034 216,292.771034 C173.393898,292.771034 138.728966,258.106102 138.728966,215.5 C138.728966,172.893898 173.393898,138.228966 216,138.228966 C258.606102,138.228966 293.271034,172.893898 293.271034,215.5 Z" id="Shape"></path>
        </g>
        <g id="tick" transform="translate(124.000000, 124.000000)" fill-rule="nonzero">
            <path d="M132.500275,0.000540368225 C205.677658,0.000540368225 265,59.3228846 265,132.50027 C265,205.677656 205.677658,265 132.500275,265 C59.3228918,265 0.000549592508,205.677656 0.000549592508,132.50027 L0.000549592508,132.50027 C-0.20767229,59.530386 58.7767597,0.208762258 131.745921,0.000540368225 C131.997372,-0.000180122742 132.248823,-0.000180122742 132.500275,0.000540368225 Z" id="Path" fill="#3EC24F"></path>
            <polygon id="Path" fill="#D4E1F4" points="206 95.0456999 111.76936 189 59 136.761605 80.4849206 115.715905 111.76936 146.533105 184.515801 74"></polygon>
        </g>
    </g>
</svg>