<?xml version="1.0" encoding="UTF-8"?>
<svg width="25px" height="25px" viewBox="0 0 22 22" version="1.1" xmlns="http://www.w3.org/2000/svg" xmlns:xlink="http://www.w3.org/1999/xlink">
    <!-- Generator: Sketch 54.1 (76490) - https://sketchapp.com -->
    <title>hammer</title>
    <desc>Created with Sketch.</desc>
    <g id="Welcome" stroke="none" stroke-width="1" fill="none" fill-rule="evenodd">
        <g id="Artboard" transform="translate(-245.000000, -305.000000)" fill="#000000" fill-rule="nonzero">
            <g id="hammer" transform="translate(245.000000, 305.000000)">
                <path d="M17.5114175,9.51771079 L18.3154257,10.3217189 C18.4554012,10.4616497 18.6823014,10.4616497 18.822277,10.3217189 L21.8641018,7.27989409 C22.0040326,7.13991853 22.0040326,6.91301833 21.8641018,6.77304277 L21.0600937,5.96939308 C20.8589124,5.76704684 20.5851446,5.65359674 20.2998167,5.65431365 L19.2244603,5.65431365 L19.0757026,5.50591446 L19.5829124,4.99906314 C19.7229776,4.85917719 19.723112,4.63218737 19.5831813,4.4921222 C19.5830916,4.49203259 19.583002,4.49194297 19.5829124,4.49185336 L17.5956538,2.50531161 C17.1958004,2.10568228 16.6980448,1.81806925 16.152167,1.67119348 L16.1134542,1.66043992 C14.9943218,1.3605499 13.8211527,1.32228513 12.6848595,1.54860285 L9.38387373,2.1106558 C9.18856212,2.14309572 9.05656212,2.32765377 9.08895723,2.52296538 C9.11404888,2.67423218 9.23260692,2.79274542 9.38387373,2.81788187 L12.4045499,3.31971487 C13.0921955,3.45668839 13.7306884,3.77512831 14.2538045,4.24201222 L12.9924114,5.50591446 C12.8524807,5.64589002 12.8524807,5.87279022 12.9924114,6.01276578 L13.2433279,6.26368228 L10.5108473,8.999389 L9.80111202,8.28965377 L10.8148147,7.27523422 C10.9545214,7.13530346 10.9545214,6.9086721 10.8148147,6.76874134 L10.3237352,6.27766191 C10.25778,6.21166191 10.1686599,6.17397963 10.0753279,6.17263544 L9.31433401,6.16224033 L9.18959267,5.71704277 C9.17270061,5.65803259 9.14115682,5.60426477 9.09782892,5.56075764 L4.2845336,0.745670061 C3.30389817,-0.234248473 1.71452138,-0.233710794 0.734602851,0.746924644 C-0.245315682,1.72756008 -0.244778004,3.31689206 0.735857434,4.2968554 L5.52836253,9.08936049 C5.57057026,9.13165784 5.62272505,9.16270876 5.67998778,9.17969043 L6.15637067,9.32127902 L6.18325458,10.1098737 C6.18643585,10.2006965 6.2239389,10.2869043 6.28828106,10.351112 L6.76143788,10.8242688 C6.90141344,10.9641996 7.12831365,10.9641996 7.26828921,10.8242688 L8.27948269,9.812 L8.98850102,10.5206599 L0.347653768,19.1658086 C-0.0729450102,19.5808961 -0.0773808554,20.2583707 0.337751527,20.6789695 C0.341022403,20.6822851 0.344338086,20.6856008 0.347653768,20.6888717 L0.853071283,21.1946477 C1.27290835,21.6147536 1.95378819,21.6149328 2.37384929,21.1951405 C2.37402851,21.1949613 2.37416293,21.1948269 2.37434216,21.1946477 L11.0198493,12.5509328 L17.47378,19.0030713 C17.4694786,19.0639633 17.4809491,19.124945 17.5071161,19.1801466 L18.0132505,20.196 C18.0412098,20.2516945 18.0832383,20.2991446 18.1351242,20.3336456 L19.6560367,21.3477067 C19.7981629,21.4423381 19.9872912,21.4235642 20.1080448,21.3029002 L21.1221059,20.2888391 C21.2429939,20.1682648 21.2620367,19.9790916 21.1676293,19.836831 L20.1535682,18.3159185 C20.1190224,18.264167 20.0715723,18.2222729 20.0159226,18.1944033 L19.2649654,17.8187454 C19.2498208,17.7626477 19.2208758,17.7112546 19.1807291,17.6692709 L12.5411202,11.0296619 L15.2753931,8.29574745 L15.5263096,8.54666395 C15.6685255,8.68112831 15.890945,8.68112831 16.0331609,8.54666395 L17.0468635,7.53260285 L17.1956212,7.68136049 L17.1956212,8.7567169 C17.1949043,9.04240326 17.3086232,9.31648473 17.5114175,9.51771079 Z" id="Shape"></path>
            </g>
        </g>
    </g>
</svg>