<?xml version="1.0" encoding="UTF-8"?>
<svg width="25px" height="24px" viewBox="0 0 25 24" version="1.1" xmlns="http://www.w3.org/2000/svg" xmlns:xlink="http://www.w3.org/1999/xlink">
    <!-- Generator: Sketch 54.1 (76490) - https://sketchapp.com -->
    <title>heart copy 6</title>
    <desc>Created with Sketch.</desc>
    <g id="Welcome" stroke="none" stroke-width="1" fill="none" fill-rule="evenodd">
        <g id="Desktop-Produs" transform="translate(-1481.000000, -22.000000)" fill="#000000" fill-rule="nonzero">
            <g id="heart-copy-6" transform="translate(1481.000000, 22.000000)">
                <path d="M22.933159,2.22855649 C21.641318,0.84001046 19.8311192,0.0499476987 17.9345711,0.0470188285 C16.0365063,0.0492154812 14.2244247,0.838859833 12.9305962,2.22766736 L12.4896444,2.69361925 L12.0486925,2.22766736 C9.48138075,-0.535460251 5.16019874,-0.694142259 2.39707113,1.87316946 C2.27463389,1.98697699 2.15638075,2.10517782 2.04257322,2.22766736 C-0.680857741,5.16521967 -0.680857741,9.70507322 2.04257322,12.6426255 L11.8416318,22.9763598 C12.1806485,23.3342573 12.7456067,23.3495816 13.1035042,23.0105649 C13.1152197,22.999477 13.1266213,22.9880753 13.1377092,22.9763598 L22.9332113,12.6426255 C25.6564331,9.70538703 25.6564331,5.16579498 22.933159,2.22855649 Z" id="Path"></path>
            </g>
        </g>
    </g>
</svg>