<svg id="Õ__1" data-name="Õº≤„_1" xmlns="http://www.w3.org/2000/svg" viewBox="0 0 392.02 104.57"><defs><style>.cls-1{fill:#231f20;}.cls-2,.cls-3{fill:#f99e2c;}.cls-2{fill-rule:evenodd;}</style></defs><rect class="cls-1" width="392.02" height="104.57"/><path class="cls-2" d="M361.49,149.5h15.68v22.41h-5.91a50.19,50.19,0,0,0-14.07,1.93,24.45,24.45,0,0,0-10.71,6.73c-2.88,3.19-4.16,7-4.16,12,0,5.94,1.28,10.59,3.69,13.95a19.41,19.41,0,0,0,10.05,6.9,52.91,52.91,0,0,0,14.88,1.9h6.23v21.93H354.8c-7.36,0-13.6-1.44-18.86-4.32a35.68,35.68,0,0,1-12.63-11.19,46.79,46.79,0,0,1-7-14.43,59.39,59.39,0,0,1-2.39-14.24,44.86,44.86,0,0,1,5.9-22.41,38.17,38.17,0,0,1,16.63-15.53,54.12,54.12,0,0,1,25.07-5.61" transform="translate(-96.05 -140.43)"/><path class="cls-2" d="M304,171.43H280.33c-7,0-12.29,2.25-16.14,6.73a25.32,25.32,0,0,0-5.58,16.32,26.91,26.91,0,0,0,2.87,11.22,20,20,0,0,0,7.34,8.48,20.75,20.75,0,0,0,11.51,3.21,30.55,30.55,0,0,0,13.74-3.06,22.26,22.26,0,0,0,9.92-8.79v24.33q-7.46,8.65-24,8.63a57,57,0,0,1-20.29-3.37,43.76,43.76,0,0,1-15-9.75,41.92,41.92,0,0,1-9.11-15,56.1,56.1,0,0,1-3-19,46.29,46.29,0,0,1,2.56-15.55,42.52,42.52,0,0,1,8.3-13.43A38.59,38.59,0,0,1,257.65,153c5.59-2.39,12.31-3.53,19.82-3.53H304Z" transform="translate(-96.05 -140.43)"/><path class="cls-2" d="M199.63,149.5c9,0,15.18,1.77,19,5.13,3.65,3.36,5.58,9,5.58,16.81v65.79H196V180.88a30.38,30.38,0,0,0-.48-6.89,3,3,0,0,0-1.92-2.22,44.7,44.7,0,0,0-6.39-.33H173.76v65.79h-26V149.5Z" transform="translate(-96.05 -140.43)"/><rect class="cls-3" x="13.15" y="9.07" width="25.72" height="25.62"/><rect class="cls-3" x="13.15" y="44.96" width="25.72" height="51.85"/><rect class="cls-3" x="192.25" y="41.25" width="23.35" height="23.22"/><path class="cls-2" d="M430.37,147.1a42.44,42.44,0,0,1,22.35,6.26,43.82,43.82,0,0,1,16.47,17,44.85,44.85,0,0,1,6.07,18.87H448.75a20.3,20.3,0,0,0-2.24-5.76,19.49,19.49,0,0,0-6.88-7,17.36,17.36,0,0,0-9.26-2.72A17.8,17.8,0,0,0,417,179.44a18.05,18.05,0,0,0-5.3,9.76H385.32a43,43,0,0,1,5.89-18.87,46.54,46.54,0,0,1,16.47-17,43.65,43.65,0,0,1,22.69-6.26m44.89,50.27a47.71,47.71,0,0,1-22.54,35.85,42.26,42.26,0,0,1-22.35,6.26,43.46,43.46,0,0,1-22.69-6.26,45.46,45.46,0,0,1-16.47-17,44.3,44.3,0,0,1-5.89-18.89h26.33a27.3,27.3,0,0,0,2.09,5.77,20.67,20.67,0,0,0,7,7.21,18.61,18.61,0,0,0,9.6,2.55,17.43,17.43,0,0,0,13.1-5.77,18.65,18.65,0,0,0,5.11-9.76Z" transform="translate(-96.05 -140.43)"/></svg>