<?xml version="1.0" encoding="UTF-8"?>
<svg width="25px" height="25px" viewBox="0 0 25 25" version="1.1" xmlns="http://www.w3.org/2000/svg" xmlns:xlink="http://www.w3.org/1999/xlink">
    <!-- Generator: Sketch 54.1 (76490) - https://sketchapp.com -->
    <title>instagram-sketched</title>
    <desc>Created with Sketch.</desc>
    <g id="Welcome" stroke="none" stroke-width="1" fill="none" fill-rule="evenodd">
        <g id="Desktop-Categorie-Selectata" transform="translate(-764.000000, -2041.000000)" fill="#717171" fill-rule="nonzero">
            <g id="instagram-sketched" transform="translate(764.000000, 2041.000000)">
                <path d="M18.359375,4.44335938 L6.640625,4.44335938 C5.42907715,4.44335938 4.44335938,5.42907715 4.44335938,6.640625 L4.44335938,18.359375 C4.44335938,19.5709229 5.42907715,20.5566406 6.640625,20.5566406 L18.359375,20.5566406 C19.5709229,20.5566406 20.5566406,19.5709229 20.5566406,18.359375 L20.5566406,6.640625 C20.5566406,5.42907715 19.5709229,4.44335938 18.359375,4.44335938 Z M12.5,17.6269531 C9.67330933,17.6269531 7.37304688,15.3266907 7.37304688,12.5 C7.37304688,9.67330933 9.67330933,7.37304688 12.5,7.37304688 C15.3266907,7.37304688 17.6269531,9.67330933 17.6269531,12.5 C17.6269531,15.3266907 15.3266907,17.6269531 12.5,17.6269531 Z M17.6269531,8.83789062 C16.8193817,8.83789062 16.1621094,8.18061826 16.1621094,7.37304688 C16.1621094,6.56547549 16.8193817,5.90820312 17.6269531,5.90820312 C18.4345245,5.90820312 19.0917969,6.56547549 19.0917969,7.37304688 C19.0917969,8.18061826 18.4345245,8.83789062 17.6269531,8.83789062 Z" id="Shape"></path>
                <path d="M12.5,8.83789062 C10.4808808,8.83789062 8.83789062,10.4808808 8.83789062,12.5 C8.83789062,14.5191192 10.4808808,16.1621094 12.5,16.1621094 C14.5191192,16.1621094 16.1621094,14.5191192 16.1621094,12.5 C16.1621094,10.4808808 14.5191192,8.83789062 12.5,8.83789062 Z" id="Path"></path>
                <path d="M21.2890625,0 L3.7109375,0 C1.69181826,0 0,1.69181826 0,3.7109375 L0,21.2890625 C0,23.3081817 1.69181826,25 3.7109375,25 L21.2890625,25 C23.3081817,25 25,23.3081817 25,21.2890625 L25,3.7109375 C25,1.69181826 23.3081817,0 21.2890625,0 Z M22.0214844,18.359375 C22.0214844,20.3784942 20.3784942,22.0214844 18.359375,22.0214844 L6.640625,22.0214844 C4.62150576,22.0214844 2.97851562,20.3784942 2.97851562,18.359375 L2.97851562,6.640625 C2.97851562,4.62150576 4.62150576,2.97851562 6.640625,2.97851562 L18.359375,2.97851562 C20.3784942,2.97851562 22.0214844,4.62150576 22.0214844,6.640625 L22.0214844,18.359375 Z" id="Shape"></path>
            </g>
        </g>
    </g>
</svg>