<?xml version="1.0" encoding="UTF-8"?>
<svg width="32px" height="32px" viewBox="0 0 67 67" version="1.1" xmlns="http://www.w3.org/2000/svg" xmlns:xlink="http://www.w3.org/1999/xlink">
    <!-- Generator: Sketch 54.1 (76490) - https://sketchapp.com -->
    <title>construction</title>
    <desc>Created with Sketch.</desc>
    <g id="Welcome" stroke="none" stroke-width="1" fill="none" fill-rule="evenodd">
        <g id="Artboard" transform="translate(-446.000000, -180.000000)" fill="#000000">
            <g id="construction" transform="translate(483.000000, 217.018519) rotate(-45.000000) translate(-483.000000, -217.018519) translate(468.000000, 176.000000)">
                <path d="M22.5585185,0 L7.55925926,0 C3.475,0 0.152222222,3.32277778 0.152222222,7.40703704 C0.152222222,10.5307407 2.13203704,13.3166667 5.03166667,14.3692593 L5.03166667,21.2375926 C5.03166667,21.6466667 5.36333333,21.9783333 5.77240741,21.9783333 L6.54018519,21.9783333 L6.54018519,37.2962963 C6.54018519,39.5057407 7.97685185,41.3848148 9.96462963,42.0518519 L9.96462963,59.6264815 C9.96462963,60.0355556 10.2962963,60.3672222 10.7053704,60.3672222 L11.8975926,60.3672222 L11.8975926,76.8474074 C11.8975926,76.9725926 11.9292593,77.0959259 11.9898148,77.2055556 L14.4101852,81.587037 C14.5405556,81.822963 14.7888889,81.9696296 15.0585185,81.9696296 C15.3281481,81.9696296 15.5764815,81.8231481 15.7068519,81.587037 L18.1272222,77.2055556 C18.1877778,77.0959259 18.2196296,76.9725926 18.2196296,76.8474074 L18.2196296,60.3672222 L19.4125926,60.3672222 C19.8216667,60.3672222 20.1533333,60.0355556 20.1533333,59.6264815 L20.1533333,42.0514815 C22.1407407,41.3842593 23.577037,39.5053704 23.577037,37.2961111 L23.577037,21.9781481 L24.3455556,21.9781481 C24.7546296,21.9781481 25.0862963,21.6464815 25.0862963,21.2374074 L25.0862963,14.3692593 C27.9859259,13.3164815 29.9657407,10.5307407 29.9657407,7.40703704 C29.9657407,3.32277778 26.6427778,0 22.5585185,0 Z M11.4461111,54.3572222 L18.6718519,54.3572222 L18.6718519,55.7975926 L11.4461111,55.7975926 L11.4461111,54.3572222 Z M11.4461111,52.8757407 L11.4461111,51.4353704 L18.6718519,51.4353704 L18.6718519,52.8757407 L11.4461111,52.8757407 Z M11.4461111,49.9538889 L11.4461111,48.5135185 L18.6718519,48.5135185 L18.6718519,49.9538889 L11.4461111,49.9538889 Z M15.0585185,79.697037 L13.8935185,77.5881481 L16.2233333,77.5881481 L15.0585185,79.697037 Z M16.7381481,76.1068519 L13.3788889,76.1068519 L13.3788889,60.3674074 L16.7381481,60.3674074 L16.7381481,76.1068519 L16.7381481,76.1068519 Z M11.4461111,58.8859259 L11.4461111,57.2790741 L18.6718519,57.2790741 L18.6718519,58.8859259 L11.4461111,58.8859259 Z M18.6718519,47.032037 L11.4461111,47.032037 L11.4461111,42.3094444 C11.4827778,42.3101852 11.5192593,42.3122222 11.5561111,42.3122222 L18.5609259,42.3122222 C18.5981481,42.3122222 18.6348148,42.3101852 18.6718519,42.3094444 L18.6718519,47.032037 L18.6718519,47.032037 Z M18.5609259,40.8307407 L11.5561111,40.8307407 C9.8612963,40.8307407 8.44259259,39.6312963 8.10111111,38.037037 L22.0161111,38.037037 C21.6744444,39.6312963 20.2557407,40.8307407 18.5609259,40.8307407 Z M22.0955556,36.5555556 L8.02166667,36.5555556 L8.02166667,21.9783333 L22.0955556,21.9783333 L22.0955556,36.5555556 Z M6.51314815,20.497037 L6.51314815,18.7605556 L23.6048148,18.7605556 L23.6048148,20.497037 L6.51314815,20.497037 Z M24.1474074,13.1153704 C23.8268519,13.2042593 23.6048148,13.4962963 23.6048148,13.8290741 L23.6048148,17.2788889 L6.51314815,17.2788889 L6.51314815,13.8290741 C6.51314815,13.4962963 6.2912963,13.2042593 5.97055556,13.1153704 C3.41703704,12.4062963 1.6337037,10.0588889 1.6337037,7.40703704 C1.6337037,4.13962963 4.29185185,1.48148148 7.55925926,1.48148148 L22.5585185,1.48148148 C25.8259259,1.48148148 28.4842593,4.13962963 28.4842593,7.40703704 C28.4842593,10.0588889 26.7007407,12.4062963 24.1474074,13.1153704 Z" id="Shape" fill-rule="nonzero"></path>
                <rect id="Rectangle" x="2.03703704" y="2.96296296" width="2.59259259" height="9.07407407"></rect>
                <rect id="Rectangle-Copy-4" x="2.03703704" y="2.96296296" width="2.59259259" height="9.07407407"></rect>
                <rect id="Rectangle-Copy-6" x="1.2962963" y="4.25925926" width="1.66666667" height="6.11111111"></rect>
                <rect id="Rectangle-Copy" x="3.33333333" y="10.3703704" width="2.03703704" height="2.59259259"></rect>
                <rect id="Rectangle-Copy-3" x="3.51851852" y="1.66666667" width="2.03703704" height="2.59259259"></rect>
                <rect id="Rectangle-Copy-5" x="24.8148148" y="2.40740741" width="2.03703704" height="2.59259259"></rect>
                <rect id="Rectangle-Copy-7" x="25.9259259" y="2.96296296" width="2.03703704" height="9.07407407"></rect>
                <rect id="Rectangle-Copy-8" x="23.8888889" y="10" width="2.40740741" height="3.33333333"></rect>
                <rect id="Rectangle-Copy-9" x="26.8518519" y="4.62962963" width="2.40740741" height="5.37037037"></rect>
                <rect id="Rectangle-Copy-2" x="5.55555556" y="0.925925926" width="20.1851852" height="2.96296296"></rect>
                <rect id="Rectangle" x="10.9259259" y="42.2222222" width="8.33333333" height="5.55555556"></rect>
                <path d="M22.4131481,3.04240741 L7.70462963,3.04240741 C5.29796296,3.04240741 3.34,5.00037037 3.34,7.40703704 C3.34,9.8137037 5.29796296,11.7716667 7.70462963,11.7716667 L22.4131481,11.7716667 C24.8198148,11.7716667 26.7777778,9.8137037 26.7777778,7.40703704 C26.7777778,5.00037037 24.8198148,3.04240741 22.4131481,3.04240741 Z M22.4131481,10.2901852 L7.70462963,10.2901852 C6.115,10.2901852 4.82148148,8.99685185 4.82148148,7.40703704 C4.82148148,5.81722222 6.11481481,4.52388889 7.70462963,4.52388889 L22.4131481,4.52388889 C24.002963,4.52388889 25.2962963,5.81722222 25.2962963,7.40703704 C25.2962963,8.99685185 24.002963,10.2901852 22.4131481,10.2901852 Z" id="Shape" fill-rule="nonzero"></path>
                <rect id="Rectangle" x="5" y="10.7407407" width="18.8888889" height="6.66666667"></rect>
                <rect id="Rectangle-Copy-10" x="5.74074074" y="15" width="18.8888889" height="6.66666667"></rect>
                <rect id="Rectangle" x="7.40740741" y="20.7407407" width="15.3703704" height="16.2962963"></rect>
                <rect id="Rectangle-Copy-11" x="12.7777778" y="60.1851852" width="4.81481481" height="16.2962963"></rect>
            </g>
        </g>
    </g>
</svg>