<?xml version="1.0" encoding="UTF-8"?>
<svg width="42px" height="34px" viewBox="0 0 42 34" version="1.1" xmlns="http://www.w3.org/2000/svg" xmlns:xlink="http://www.w3.org/1999/xlink">
    <!-- Generator: Sketch 54.1 (76490) - https://sketchapp.com -->
    <title>mastercard</title>
    <desc>Created with Sketch.</desc>
    <g id="Welcome" stroke="none" stroke-width="1" fill="none" fill-rule="evenodd">
        <g id="Desktop-Categorie-Selectata" transform="translate(-1156.000000, -2041.000000)" fill-rule="nonzero">
            <g id="mastercard" transform="translate(1155.000000, 2040.000000)">
                <g id="Group" transform="translate(22.567156, 31.650794) scale(-1, 1) rotate(-180.000000) translate(-22.567156, -31.650794) translate(2.567156, 28.650794)" fill="#231F20">
                    <path d="M39.3444663,0.81967638 L39.3444663,0.735249713 L39.4223355,0.735249713 C39.4395487,0.735249713 39.4543029,0.739348095 39.4649587,0.745905506 C39.4747948,0.752462917 39.4805325,0.763938387 39.4805325,0.777872885 C39.4805325,0.791807383 39.4747948,0.802463176 39.4649587,0.809020587 C39.4543029,0.816397675 39.4395487,0.81967638 39.4223355,0.81967638 L39.3444663,0.81967638 Z M39.4231552,0.87869308 C39.4633193,0.87869308 39.494467,0.86967664 39.5165983,0.851643759 C39.5387296,0.833610879 39.5493854,0.809020587 39.5493854,0.777872885 C39.5493854,0.751643241 39.5411886,0.730331655 39.5231557,0.713118451 C39.5059425,0.696724923 39.4813522,0.68606913 39.4485652,0.681970748 L39.5518444,0.563117673 L39.4715161,0.563117673 L39.375614,0.681151072 L39.3444663,0.681151072 L39.3444663,0.563117673 L39.2772528,0.563117673 L39.2772528,0.87869308 L39.4231552,0.87869308 Z M39.4026633,0.454100715 C39.4395487,0.454100715 39.4739751,0.461477802 39.5051228,0.475412301 C39.5370902,0.489346799 39.5649592,0.508199356 39.5887298,0.531969971 C39.6125004,0.555740586 39.631353,0.583609583 39.6452875,0.616396638 C39.6584023,0.648364017 39.6657794,0.682790425 39.6657794,0.719675862 C39.6657794,0.756561299 39.6584023,0.790987707 39.6452875,0.822955086 C39.631353,0.854922465 39.6125004,0.883611138 39.5887298,0.907381753 C39.5649592,0.931152368 39.5370902,0.950004925 39.5051228,0.963939423 C39.4739751,0.977054245 39.4395487,0.983611656 39.4026633,0.983611656 C39.3657778,0.983611656 39.3305318,0.977054245 39.2985644,0.963939423 C39.2657773,0.950004925 39.2370887,0.931152368 39.213318,0.907381753 C39.1895474,0.883611138 39.1706949,0.854922465 39.15758,0.822955086 C39.1436455,0.790987707 39.1370881,0.756561299 39.1370881,0.719675862 C39.1370881,0.682790425 39.1436455,0.648364017 39.15758,0.616396638 C39.1706949,0.583609583 39.1895474,0.555740586 39.213318,0.531969971 C39.2370887,0.508199356 39.2657773,0.489346799 39.2985644,0.475412301 C39.3305318,0.461477802 39.3657778,0.454100715 39.4026633,0.454100715 L39.4026633,0.454100715 Z M39.4026633,1.05984156 C39.4510242,1.05984156 39.4952867,1.05082512 39.5379099,1.03279224 C39.5797134,1.01557904 39.6157791,0.990988744 39.6477465,0.959841041 C39.6788942,0.929513015 39.7034845,0.893447255 39.7215174,0.851643759 C39.7395503,0.81065994 39.7485667,0.766397416 39.7485667,0.719675862 C39.7485667,0.672954308 39.7395503,0.628691784 39.7215174,0.587707965 C39.7034845,0.546724146 39.6788942,0.510658385 39.6477465,0.479510683 C39.6157791,0.449182656 39.5797134,0.424592365 39.5379099,0.406559485 C39.4952867,0.388526604 39.4510242,0.379510164 39.4026633,0.379510164 C39.3534827,0.379510164 39.3084005,0.388526604 39.2657773,0.406559485 C39.2231542,0.424592365 39.1862687,0.449182656 39.155121,0.479510683 C39.1239733,0.510658385 39.099383,0.546724146 39.0813501,0.587707965 C39.0633173,0.628691784 39.0543008,0.672954308 39.0543008,0.719675862 C39.0543008,0.766397416 39.0633173,0.81065994 39.0813501,0.851643759 C39.099383,0.893447255 39.1239733,0.929513015 39.155121,0.959841041 C39.1862687,0.990988744 39.2231542,1.01557904 39.2657773,1.03279224 C39.3084005,1.05082512 39.3534827,1.05984156 39.4026633,1.05984156 L39.4026633,1.05984156 Z M7.46725183,2.27542163 C7.46725183,2.8770641 7.86151616,3.37132895 8.5057818,3.37132895 C9.12135876,3.37132895 9.53693469,2.89837568 9.53693469,2.27542163 C9.53693469,1.65246758 9.12135876,1.17951431 8.5057818,1.17951431 C7.86151616,1.17951431 7.46725183,1.67377917 7.46725183,2.27542163 L7.46725183,2.27542163 Z M10.2385777,2.27542163 L10.2385777,3.98690591 L9.49431151,3.98690591 L9.49431151,3.57132999 C9.25824472,3.87952831 8.90004614,4.07297193 8.41315837,4.07297193 C7.45331733,4.07297193 6.70085441,3.32050902 6.70085441,2.27542163 C6.70085441,1.22951457 7.45331733,0.47787133 8.41315837,0.47787133 C8.90004614,0.47787133 9.25824472,0.671314956 9.49431151,0.979513275 L9.49431151,0.56393735 L10.2385777,0.56393735 L10.2385777,2.27542163 Z M35.3895277,2.27542163 C35.3895277,2.8770641 35.7837921,3.37132895 36.4280577,3.37132895 C37.0444543,3.37132895 37.4592106,2.89837568 37.4592106,2.27542163 C37.4592106,1.65246758 37.0444543,1.17951431 36.4280577,1.17951431 C35.7837921,1.17951431 35.3895277,1.67377917 35.3895277,2.27542163 L35.3895277,2.27542163 Z M38.1616732,2.27542163 L38.1616732,5.3615032 L37.4165874,5.3615032 L37.4165874,3.57132999 C37.1805206,3.87952831 36.822322,4.07297193 36.3354343,4.07297193 C35.3755932,4.07297193 34.6231303,3.32050902 34.6231303,2.27542163 C34.6231303,1.22951457 35.3755932,0.47787133 36.3354343,0.47787133 C36.822322,0.47787133 37.1805206,0.671314956 37.4165874,0.979513275 L37.4165874,0.56393735 L38.1616732,0.56393735 L38.1616732,2.27542163 Z M19.4771502,3.40657504 C19.9566608,3.40657504 20.2648592,3.10575381 20.3435481,2.57624286 L18.5673094,2.57624286 C18.646818,3.07050772 18.9468195,3.40657504 19.4771502,3.40657504 L19.4771502,3.40657504 Z M19.4919043,4.07297193 C18.4886204,4.07297193 17.7869775,3.34264028 17.7869775,2.27542163 C17.7869775,1.1868914 18.5173091,0.47787133 19.5419046,0.47787133 C20.057481,0.47787133 20.5296146,0.606560521 20.9451905,0.957382012 L20.5804346,1.50902422 C20.2935478,1.28033451 19.9279722,1.15082564 19.5845278,1.15082564 C19.1050171,1.15082564 18.6681296,1.37295794 18.560752,1.98935458 L21.1025684,1.98935458 C21.1099455,2.08197801 21.1173226,2.17542111 21.1173226,2.27542163 C21.1099455,3.34264028 20.4509257,4.07297193 19.4919043,4.07297193 L19.4919043,4.07297193 Z M28.4788362,2.27542163 C28.4788362,2.8770641 28.8731005,3.37132895 29.5173661,3.37132895 C30.1329431,3.37132895 30.548519,2.89837568 30.548519,2.27542163 C30.548519,1.65246758 30.1329431,1.17951431 29.5173661,1.17951431 C28.8731005,1.17951431 28.4788362,1.67377917 28.4788362,2.27542163 L28.4788362,2.27542163 Z M31.250162,2.27542163 L31.250162,3.98690591 L30.5058958,3.98690591 L30.5058958,3.57132999 C30.2690094,3.87952831 29.9116305,4.07297193 29.4247427,4.07297193 C28.4649017,4.07297193 27.7124387,3.32050902 27.7124387,2.27542163 C27.7124387,1.22951457 28.4649017,0.47787133 29.4247427,0.47787133 C29.9116305,0.47787133 30.2690094,0.671314956 30.5058958,0.979513275 L30.5058958,0.56393735 L31.250162,0.56393735 L31.250162,2.27542163 Z M24.2755357,2.27542163 C24.2755357,1.23689166 24.9984902,0.47787133 26.1017747,0.47787133 C26.6173511,0.47787133 26.9607955,0.592626023 27.3329286,0.886070167 L26.9755497,1.48771263 C26.69604,1.28689192 26.4025959,1.17951431 26.0796434,1.17951431 C25.485378,1.1868914 25.0484905,1.61640182 25.0484905,2.27542163 C25.0484905,2.93444144 25.485378,3.36395187 26.0796434,3.37132895 C26.4025959,3.37132895 26.69604,3.26395135 26.9755497,3.06313063 L27.3329286,3.6647731 C26.9607955,3.95821724 26.6173511,4.07297193 26.1017747,4.07297193 C24.9984902,4.07297193 24.2755357,3.31395161 24.2755357,2.27542163 L24.2755357,2.27542163 Z M33.8714871,4.07297193 C33.4419766,4.07297193 33.162467,3.87215122 32.9690234,3.57132999 L32.9690234,3.98690591 L32.2313146,3.98690591 L32.2313146,0.56393735 L32.9764005,0.56393735 L32.9764005,2.48279976 C32.9764005,3.04919613 33.2198443,3.36395187 33.7067321,3.36395187 C33.8575526,3.36395187 34.0149304,3.34264028 34.1723083,3.27788585 L34.4018177,3.97952883 C34.2370627,4.04428326 34.0223075,4.07297193 33.8714871,4.07297193 L33.8714871,4.07297193 Z M13.9197443,3.71477336 C13.5615457,3.95084015 13.0681005,4.07297193 12.5238354,4.07297193 C11.6566178,4.07297193 11.0984182,3.65739601 11.0984182,2.97706461 C11.0984182,2.418865 11.5139941,2.07460092 12.2795719,1.96722331 L12.631213,1.91722305 C13.0394119,1.85984571 13.2320358,1.7524681 13.2320358,1.55902448 C13.2320358,1.294269 12.9599033,1.14344855 12.4517039,1.14344855 C11.9361275,1.14344855 11.5639944,1.3082035 11.3131734,1.50164713 L10.9623519,0.922135928 C11.3705507,0.621314696 11.8861272,0.47787133 12.4443268,0.47787133 C13.4328565,0.47787133 14.0058103,0.943447514 14.0058103,1.59509024 C14.0058103,2.1967327 13.5549883,2.51148843 12.8099025,2.61886604 L12.459081,2.66968597 C12.1369482,2.71230914 11.8787501,2.7762439 11.8787501,3.00575329 C11.8787501,3.25657426 12.122194,3.40657504 12.5303928,3.40657504 C12.9672803,3.40657504 13.3902333,3.24182008 13.5976115,3.11313089 L13.9197443,3.71477336 Z M23.5230728,4.07297193 C23.0935623,4.07297193 22.8140527,3.87215122 22.6214287,3.57132999 L22.6214287,3.98690591 L21.88372,3.98690591 L21.88372,0.56393735 L22.6279862,0.56393735 L22.6279862,2.48279976 C22.6279862,3.04919613 22.87143,3.36395187 23.3583178,3.36395187 C23.5091383,3.36395187 23.6665161,3.34264028 23.823894,3.27788585 L24.0534034,3.97952883 C23.8886484,4.04428326 23.6738932,4.07297193 23.5230728,4.07297193 L23.5230728,4.07297193 Z M17.1714005,3.98690591 L15.9541811,3.98690591 L15.9541811,5.02543589 L15.2017182,5.02543589 L15.2017182,3.98690591 L14.5074523,3.98690591 L14.5074523,3.30657452 L15.2017182,3.30657452 L15.2017182,1.74509101 C15.2017182,0.950824601 15.5099165,0.47787133 16.3902489,0.47787133 C16.7132014,0.47787133 17.0853345,0.577871848 17.3214013,0.742626801 L17.1066461,1.38033502 C16.8845138,1.25164583 16.6410699,1.1868914 16.4476262,1.1868914 C16.0754932,1.1868914 15.9541811,1.41640079 15.9541811,1.75984519 L15.9541811,3.30657452 L17.1714005,3.30657452 L17.1714005,3.98690591 Z M6.04265428,0.56393735 L6.04265428,2.71230914 C6.04265428,3.52132973 5.52707783,4.06559485 4.69592598,4.07297193 C4.25903847,4.08034902 3.80821646,3.94428274 3.49264106,3.46395238 C3.25657426,3.84346255 2.88444118,4.07297193 2.36148765,4.07297193 C1.99591199,4.07297193 1.63853308,3.96559433 1.35902344,3.56477258 L1.35902344,3.98690591 L0.613937609,3.98690591 L0.613937609,0.56393735 L1.36558085,0.56393735 L1.36558085,2.46148817 C1.36558085,3.05575355 1.69509075,3.37132895 2.20410979,3.37132895 C2.69837464,3.37132895 2.94837594,3.04919613 2.94837594,2.46886526 L2.94837594,0.56393735 L3.70083886,0.56393735 L3.70083886,2.46148817 C3.70083886,3.05575355 4.04428326,3.37132895 4.53854812,3.37132895 C5.04674747,3.37132895 5.29019136,3.04919613 5.29019136,2.46886526 L5.29019136,0.56393735 L6.04265428,0.56393735 Z" id="Shape"></path>
                </g>
                <g id="Group" transform="translate(42.231289, 22.583514) scale(-1, 1) rotate(-180.000000) translate(-42.231289, -22.583514) translate(40.731289, 21.583514)" fill="#0F0F0F">
                    <path d="M2.27375,-5.55111512e-17 L2.27375,1.037 L2.06975,1.037 L1.83367453,0.3247 L1.59888208,1.037 L1.39359906,1.037 L1.39359906,-5.55111512e-17 L1.53858019,-5.55111512e-17 L1.53858019,0.782 L1.75925943,0.1071 L1.90937264,0.1071 L2.13005189,0.7837 L2.13005189,-5.55111512e-17 L2.27375,-5.55111512e-17 Z M0.979183962,1.11022302e-16 L0.979183962,0.8602 L1.24091981,0.8602 L1.24091981,1.0353 L0.57375,1.0353 L0.57375,0.8602 L0.835485849,0.8602 L0.835485849,1.11022302e-16 L0.979183962,1.11022302e-16 Z" id="Shape"></path>
                </g>
                <polygon id="Path" fill="#4F4F4F" points="27.5508925 24.8540214 16.270834 24.8540214 16.270834 4.58178517 27.5508925 4.58178517"></polygon>
                <g id="Group" transform="translate(11.599933, 14.331086) scale(-1, 1) rotate(-180.000000) translate(-11.599933, -14.331086) translate(0.599933, 0.831086)" fill="#000000">
                    <path d="M16.3935276,13.1148221 C16.3935276,17.2271385 18.3189474,20.8902722 21.3173236,23.2509402 C19.1246893,24.9771787 16.3574618,26.0075119 13.3500692,26.0075119 C6.23036017,26.0075119 0.459018773,20.2353508 0.459018773,13.1148221 C0.459018773,5.99429337 6.23036017,0.222132299 13.3500692,0.222132299 C16.3574618,0.222132299 19.1246893,1.25246551 21.3173236,2.97870397 C18.3189474,5.33937194 16.3935276,9.00250569 16.3935276,13.1148221" id="Path"></path>
                </g>
                <g id="Group" transform="translate(32.452500, 14.331086) scale(-1, 1) rotate(-180.000000) translate(-32.452500, -14.331086) translate(21.452500, 0.831086)" fill="#B7B7B7">
                    <path d="M21.3115859,13.1148221 C21.3115859,5.99429337 15.5402445,0.222132299 8.42053546,0.222132299 C5.41314282,0.222132299 2.64591536,1.25246551 0.452461362,2.97870397 C3.45165724,5.33937194 5.37707706,9.00250569 5.37707706,13.1148221 C5.37707706,17.2271385 3.45165724,20.8902722 0.452461362,23.2509402 C2.64591536,24.9771787 5.41314282,26.0075119 8.42053546,26.0075119 C15.5402445,26.0075119 21.3115859,20.2353508 21.3115859,13.1148221" id="Path"></path>
                </g>
            </g>
        </g>
    </g>
</svg>