<?xml version="1.0" encoding="UTF-8"?>
<svg width="20px" height="20px" viewBox="0 0 450 450" version="1.1" xmlns="http://www.w3.org/2000/svg" xmlns:xlink="http://www.w3.org/1999/xlink">
    <!-- Generator: Sketch 54.1 (76490) - https://sketchapp.com -->
    <title>misc</title>
    <desc>Created with Sketch.</desc>
    <g id="Welcome" stroke="none" stroke-width="1" fill="none" fill-rule="evenodd">
        <g id="Artboard" transform="translate(-31.000000, -31.000000)" fill-rule="nonzero">
            <g id="misc" transform="translate(31.000000, 31.000000)">
                <path d="M440.350877,251.62807 L440.350877,197.499123 L398.674561,187.116667 C394.092105,165.710526 385.669298,145.730702 374.150877,127.936842 L396.276316,91.1298246 L357.995614,52.8491228 L321.188596,74.9745614 C303.394737,63.4570175 283.414912,55.0333333 262.008772,50.4508772 L251.626316,8.77368421 L197.497368,8.77368421 L187.114035,50.45 C165.707895,55.0324561 145.72807,63.4552632 127.934211,74.9736842 L91.127193,52.8482456 L52.8464912,91.1289474 L74.9719298,127.935965 C63.454386,145.729825 55.0307018,165.709649 50.4482456,187.115789 L8.77192982,197.498246 L8.77192982,251.627193 L50.4482456,262.009649 C55.0307018,283.415789 63.4535088,303.395614 74.9719298,321.189474 L52.8464912,357.996491 L91.127193,396.277193 L127.934211,374.151754 C145.72807,385.669298 165.707895,394.092982 187.114035,398.675439 L197.496491,440.352632 L251.625439,440.352632 L262.007895,398.676316 C283.414035,394.09386 303.39386,385.671053 321.187719,374.152632 L357.994737,396.27807 L396.275439,357.997368 L374.15,321.190351 C385.667544,303.396491 394.091228,283.416667 398.673684,262.010526 L440.350877,251.62807 Z" id="Path" fill="#B1B1B1"></path>
                <circle id="Oval" fill="#919191" cx="224.561404" cy="224.563158" r="122.807018"></circle>
                <circle id="Oval" fill="#FFFFFF" cx="224.561404" cy="224.563158" r="54.3859649"></circle>
                <path d="M442.471053,188.986842 L406.018421,179.905263 C401.514035,161.519298 394.275439,144.050877 384.442982,127.840351 L403.794737,95.6473684 C405.870175,92.195614 405.327193,87.7736842 402.478947,84.9254386 L364.197368,46.6438596 C361.35,43.795614 356.927193,43.2535088 353.475439,45.3280702 L321.282456,64.6798246 C305.07193,54.8473684 287.604386,47.6087719 269.217544,43.104386 L260.137719,6.65350877 C259.164035,2.74473684 255.653509,0.00175438596 251.626316,0.00175438596 L197.497368,0.00175438596 C193.469298,0.00175438596 189.959649,2.74473684 188.985088,6.65350877 L179.904386,43.1061404 C161.519298,47.6105263 144.049123,54.8508772 127.839474,64.6824561 L95.6464912,45.3298246 C92.1938596,43.254386 87.7719298,43.7964912 84.9245614,46.645614 L46.6429825,84.9263158 C43.7947368,87.7745614 43.2526316,92.1964912 45.327193,95.6482456 L64.6789474,127.841228 C54.8464912,144.051754 47.6078947,161.519298 43.1035088,179.90614 L6.65175439,188.986842 C2.74298246,189.960526 0,193.471053 0,197.498246 L0,251.627193 C0,255.655263 2.74298246,259.164912 6.65175439,260.139474 L43.104386,269.220175 C47.6087719,287.60614 54.8473684,305.074561 64.6807018,321.285088 L45.3280702,353.47807 C43.2526316,356.930702 43.795614,361.352632 46.6438596,364.2 L84.9254386,402.481579 C87.772807,405.329825 92.195614,405.87193 95.6473684,403.797368 L127.840351,384.444737 C144.051754,394.277193 161.519298,401.515789 179.905263,406.021053 L188.985965,442.473684 C189.959649,446.382456 193.470175,449.125439 197.498246,449.125439 L251.627193,449.125439 C255.655263,449.125439 259.164912,446.382456 260.139474,442.473684 L269.221053,406.021053 C287.60614,401.516667 305.074561,394.27807 321.285965,384.444737 L353.478947,403.797368 C356.930702,405.87193 361.352632,405.329825 364.200877,402.481579 L402.482456,364.2 C405.330702,361.351754 405.872807,356.929825 403.798246,353.47807 L384.446491,321.285088 C394.278947,305.074561 401.517544,287.60614 406.02193,269.220175 L442.474561,260.139474 C446.383333,259.165789 449.126316,255.655263 449.126316,251.627193 L449.126316,197.498246 C449.122807,193.471053 446.379825,189.960526 442.471053,188.986842 Z M431.578947,244.772807 L396.553509,253.498246 C393.302632,254.307895 390.797368,256.898246 390.096491,260.173684 C385.801754,280.238596 377.958772,299.163158 366.786842,316.423684 C364.966667,319.235965 364.907018,322.838596 366.632456,325.708772 L385.226316,356.641228 L356.639474,385.22807 L325.707018,366.634211 C322.835965,364.907895 319.233333,364.968421 316.42193,366.788596 C299.160526,377.961404 280.235088,385.803509 260.17193,390.098246 C256.896491,390.799123 254.30614,393.304386 253.496491,396.555263 L244.771053,431.580702 L204.351754,431.580702 L195.626316,396.555263 C194.816667,393.304386 192.226316,390.799123 188.950877,390.098246 C168.886842,385.803509 149.962281,377.961404 132.700877,366.788596 C129.887719,364.967544 126.285088,364.908772 123.415789,366.634211 L92.4833333,385.22807 L63.895614,356.642105 L82.4903509,325.709649 C84.2157895,322.839474 84.1561404,319.235965 82.3359649,316.424561 C71.1631579,299.163158 63.3201754,280.238596 59.0254386,260.174561 C58.3245614,256.899123 55.8192982,254.308772 52.5684211,253.499123 L17.5438596,244.772807 L17.5438596,204.353509 L52.5692982,195.62807 C55.8201754,194.818421 58.3254386,192.22807 59.0263158,188.952632 C63.3210526,168.887719 71.1640351,149.963158 82.3359649,132.702632 C84.1561404,129.890351 84.2157895,126.287719 82.4903509,123.417544 L63.895614,92.4842105 L92.4824561,63.8973684 L123.414912,82.4912281 C126.285965,84.2175439 129.888596,84.1570175 132.700877,82.3368421 C149.960526,71.1649123 168.885088,63.3219298 188.950877,59.027193 C192.226316,58.3263158 194.816667,55.8210526 195.626316,52.5701754 L204.351754,17.545614 L244.771053,17.545614 L253.496491,52.5710526 C254.30614,55.8219298 256.896491,58.327193 260.17193,59.0280702 C280.236842,63.322807 299.161404,71.1657895 316.42193,82.3377193 C319.233333,84.1578947 322.836842,84.2175439 325.707018,82.4921053 L356.639474,63.8982456 L385.226316,92.4850877 L366.632456,123.417544 C364.907018,126.287719 364.966667,129.891228 366.786842,132.702632 C377.958772,149.963158 385.801754,168.887719 390.096491,188.952632 C390.797368,192.22807 393.302632,194.818421 396.553509,195.62807 L431.578947,204.353509 L431.578947,244.772807 Z" id="Shape" fill="#000000"></path>
                <path d="M224.561404,92.9842105 C204.103509,92.9842105 184.496491,97.5526316 166.284211,106.563158 C161.942105,108.711404 160.163158,113.972807 162.312281,118.314912 C164.460526,122.657018 169.721053,124.436842 174.064035,122.286842 C189.835965,114.484211 206.826316,110.52807 224.561404,110.52807 C287.440351,110.52807 338.596491,161.684211 338.596491,224.563158 C338.596491,287.442105 287.440351,338.598246 224.561404,338.598246 C161.682456,338.598246 110.526316,287.442105 110.526316,224.563158 C110.526316,204.12193 115.994737,184.073684 126.342105,166.585965 C128.809649,162.416667 127.428947,157.036842 123.259649,154.569298 C119.091228,152.103509 113.710526,153.482456 111.242982,157.651754 C99.2964912,177.842982 92.9824561,200.980702 92.9824561,224.563158 C92.9824561,297.115789 152.008772,356.142105 224.561404,356.142105 C297.114035,356.142105 356.140351,297.115789 356.140351,224.563158 C356.140351,152.010526 297.114035,92.9842105 224.561404,92.9842105 Z" id="Path" fill="#000000"></path>
                <path d="M224.561404,161.405263 C189.735965,161.405263 161.403509,189.737719 161.403509,224.563158 C161.403509,259.388596 189.735965,287.721053 224.561404,287.721053 C259.386842,287.721053 287.719298,259.388596 287.719298,224.563158 C287.719298,189.737719 259.386842,161.405263 224.561404,161.405263 Z M224.561404,270.177193 C199.409649,270.177193 178.947368,249.714912 178.947368,224.563158 C178.947368,199.411404 199.409649,178.949123 224.561404,178.949123 C249.713158,178.949123 270.175439,199.411404 270.175439,224.563158 C270.175439,249.714912 249.713158,270.177193 224.561404,270.177193 Z" id="Shape" fill="#000000"></path>
                <path d="M140.868421,143.475439 C143.175439,143.475439 145.438596,142.536842 147.070175,140.905263 C148.701754,139.273684 149.640351,137.010526 149.640351,134.703509 C149.640351,132.396491 148.701754,130.133333 147.070175,128.501754 C145.438596,126.870175 143.175439,125.931579 140.868421,125.931579 C138.561404,125.931579 136.298246,126.870175 134.666667,128.501754 C133.035088,130.133333 132.096491,132.396491 132.096491,134.703509 C132.096491,137.010526 133.035088,139.273684 134.666667,140.905263 C136.298246,142.536842 138.561404,143.475439 140.868421,143.475439 Z" id="Path" fill="#000000"></path>
            </g>
        </g>
    </g>
</svg>