<?xml version="1.0" encoding="UTF-8"?>
<svg width="25px" height="25px" viewBox="0 0 420 420" version="1.1" xmlns="http://www.w3.org/2000/svg" xmlns:xlink="http://www.w3.org/1999/xlink">
    <!-- Generator: Sketch 54.1 (76490) - https://sketchapp.com -->
    <title>Artboard</title>
    <desc>Created with Sketch.</desc>
    <g id="Artboard" stroke="none" stroke-width="1" fill="none" fill-rule="evenodd">
        <g id="news" transform="translate(41.000000, 82.000000)" fill="#000000" fill-rule="nonzero">
            <path d="M335.525692,28.2340669 L302.104938,28.2340669 L302.104938,4.03172927 C302.104938,2.1124971 300.549838,0.557377049 298.630631,0.557377049 L3.47430755,0.557377049 C1.55510006,0.557377049 0,2.1124971 0,4.03172927 L0,233.951157 C0,246.415743 10.1415037,256.557377 22.6059295,256.557377 L317.077814,256.557377 C329.165625,256.557377 339,246.723571 339,234.635604 L339,31.7084191 C339,29.7891869 337.4449,28.2340669 335.525692,28.2340669 Z M332.051385,234.635604 C332.051385,242.892055 325.334159,249.608673 317.077814,249.608673 C308.82147,249.608673 302.104938,242.892055 302.104938,234.635604 L302.104938,225.013733 C302.104938,223.094501 300.549838,221.539381 298.630631,221.539381 C296.711423,221.539381 295.156323,223.094501 295.156323,225.013733 L295.156323,234.635604 C295.156323,240.421096 297.413234,245.686824 301.087661,249.608673 L22.6059295,249.608673 C13.9722752,249.608673 6.94861509,242.584227 6.94861509,233.950462 L6.94861509,7.5060815 L295.157018,7.5060815 L295.157018,192.566063 C295.157018,194.485295 296.712118,196.040415 298.631326,196.040415 C300.550533,196.040415 302.105633,194.485295 302.105633,192.566063 L302.105633,35.1827713 L332.05208,35.1827713 L332.05208,234.635604 L332.051385,234.635604 Z M141.828878,46.6814874 L31.1450826,46.6814874 C29.2258751,46.6814874 27.670775,48.2366075 27.670775,50.1558396 L27.670775,133.165758 C27.670775,135.08499 29.2258751,136.64011 31.1450826,136.64011 L141.828878,136.64011 C143.748085,136.64011 145.303185,135.08499 145.303185,133.165758 L145.303185,50.1558396 C145.303185,48.2373024 143.748085,46.6814874 141.828878,46.6814874 Z M138.35457,129.691406 L34.6193901,129.691406 L34.6193901,53.6301919 L138.35457,53.6301919 L138.35457,129.691406 Z M156.801753,50.1558396 C156.801753,48.2366075 158.356853,46.6814874 160.276061,46.6814874 L270.959856,46.6814874 C272.879063,46.6814874 274.434163,48.2366075 274.434163,50.1558396 C274.434163,52.0750718 272.879063,53.6301919 270.959856,53.6301919 L160.276061,53.6301919 C158.356853,53.6301919 156.801753,52.0750718 156.801753,50.1558396 Z M156.801753,77.8339192 C156.801753,75.914687 158.356853,74.359567 160.276061,74.359567 L270.959856,74.359567 C272.879063,74.359567 274.434163,75.914687 274.434163,77.8339192 C274.434163,79.7531514 272.879063,81.3082714 270.959856,81.3082714 L160.276061,81.3082714 C158.356853,81.3082714 156.801753,79.7524565 156.801753,77.8339192 Z M156.801753,105.511304 C156.801753,103.592072 158.356853,102.036952 160.276061,102.036952 L270.959856,102.036952 C272.879063,102.036952 274.434163,103.592072 274.434163,105.511304 C274.434163,107.430536 272.879063,108.985656 270.959856,108.985656 L160.276061,108.985656 C158.356853,108.985656 156.801753,107.429841 156.801753,105.511304 Z M160.276061,136.662346 C158.356853,136.662346 156.801753,135.107226 156.801753,133.187994 C156.801753,131.268762 158.356853,129.713641 160.276061,129.713641 L270.959856,129.713641 C272.879063,129.713641 274.434163,131.268762 274.434163,133.187994 C274.434163,135.107226 272.879063,136.662346 270.959856,136.662346 L160.276061,136.662346 Z M145.303185,160.865378 C145.303185,162.784611 143.748085,164.339731 141.828878,164.339731 L31.1450826,164.339731 C29.2258751,164.339731 27.670775,162.784611 27.670775,160.865378 C27.670775,158.946146 29.2258751,157.391026 31.1450826,157.391026 L141.828878,157.391026 C143.748085,157.391026 145.303185,158.946146 145.303185,160.865378 Z M145.303185,188.521222 C145.303185,190.440454 143.748085,191.995574 141.828878,191.995574 L31.1450826,191.995574 C29.2258751,191.995574 27.670775,190.440454 27.670775,188.521222 C27.670775,186.60199 29.2258751,185.04687 31.1450826,185.04687 L141.828878,185.04687 C143.748085,185.04687 145.303185,186.60199 145.303185,188.521222 Z M145.303185,216.176371 C145.303185,218.095603 143.748085,219.650723 141.828878,219.650723 L31.1450826,219.650723 C29.2258751,219.650723 27.670775,218.095603 27.670775,216.176371 C27.670775,214.257139 29.2258751,212.702019 31.1450826,212.702019 L141.828878,212.702019 C143.748085,212.702019 145.303185,214.257834 145.303185,216.176371 Z M275.752316,160.865378 C275.752316,162.784611 274.197216,164.339731 272.278008,164.339731 L161.594213,164.339731 C159.675006,164.339731 158.119906,162.784611 158.119906,160.865378 C158.119906,158.946146 159.675006,157.391026 161.594213,157.391026 L272.278008,157.391026 C274.196521,157.391026 275.752316,158.946146 275.752316,160.865378 Z M275.752316,188.521222 C275.752316,190.440454 274.197216,191.995574 272.278008,191.995574 L161.594213,191.995574 C159.675006,191.995574 158.119906,190.440454 158.119906,188.521222 C158.119906,186.60199 159.675006,185.04687 161.594213,185.04687 L272.278008,185.04687 C274.196521,185.04687 275.752316,186.60199 275.752316,188.521222 Z M275.752316,216.176371 C275.752316,218.095603 274.197216,219.650723 272.278008,219.650723 L161.594213,219.650723 C159.675006,219.650723 158.119906,218.095603 158.119906,216.176371 C158.119906,214.257139 159.675006,212.702019 161.594213,212.702019 L272.278008,212.702019 C274.196521,212.702019 275.752316,214.257834 275.752316,216.176371 Z" id="Shape"></path>
        </g>
    </g>
</svg>