<?xml version="1.0" encoding="UTF-8"?>
<svg width="512px" height="512px" viewBox="0 0 512 512" version="1.1" xmlns="http://www.w3.org/2000/svg" xmlns:xlink="http://www.w3.org/1999/xlink">
    <!-- Generator: Sketch 54.1 (76490) - https://sketchapp.com -->
    <title>Artboard</title>
    <desc>Created with Sketch.</desc>
    <g id="Artboard" stroke="none" stroke-width="1" fill="none" fill-rule="evenodd">
        <g id="next" transform="translate(83.000000, 116.000000)" fill="#000000" fill-rule="nonzero">
            <path d="M343.880786,147.042516 L199.64724,2.96602832 C197.586123,0.91524034 194.516405,0.32282057 191.79257,1.40610244 C189.097784,2.53271558 187.353502,5.16170525 187.353502,8.07911873 L187.353502,87.5195632 L7.20613778,87.5195632 C3.22847403,87.5202402 0,90.7551907 0,94.7416679 L0,210.291959 C0,214.278437 3.22847403,217.514064 7.20613778,217.514064 L187.354178,217.514064 L187.354178,296.65119 C187.354178,299.568603 189.112646,302.197593 191.807432,303.324206 C192.70119,303.699969 193.637508,303.873294 194.560316,303.873294 C196.433628,303.873294 198.278567,303.136663 199.662102,301.76428 L343.895648,157.268697 C345.250135,155.91121 346,154.076401 346,152.155607 C345.999324,150.234813 345.235273,148.400681 343.880786,147.042516 Z" id="Path"></path>
        </g>
    </g>
</svg>