<?xml version="1.0" encoding="UTF-8"?>
<svg width="18px" height="17px" viewBox="0 0 319 296" version="1.1" xmlns="http://www.w3.org/2000/svg" xmlns:xlink="http://www.w3.org/1999/xlink">
    <!-- Generator: Sketch 54.1 (76490) - https://sketchapp.com -->
    <title>heart</title>
    <desc>Created with Sketch.</desc>
    <g id="Welcome" stroke="none" stroke-width="1" fill="none" fill-rule="evenodd">
        <g id="Artboard" transform="translate(-97.000000, -121.000000)" fill="#F99E2C" fill-rule="nonzero">
            <g id="heart" transform="translate(97.000000, 121.000000)">
                <path d="M292.912744,27.8253561 C276.412763,10.1157304 253.29208,0.039207573 229.068505,0.00185253122 C204.825557,0.0298688132 181.680826,10.1010552 165.15546,27.8140161 L159.523423,33.7568033 L153.891384,27.8140161 C121.10051,-7.42713164 65.9084069,-9.4509745 30.6164835,23.2927219 C29.0526593,24.7442321 27.5422764,26.2517748 26.0886748,27.8140161 C-8.69622494,65.2797902 -8.69622494,123.181441 26.0886748,160.647215 L151.246711,292.444478 C155.576786,297.009131 162.79269,297.204578 167.363919,292.880732 C167.513555,292.739316 167.659182,292.593898 167.800801,292.444478 L292.913412,160.647215 C327.695641,123.185443 327.695641,65.2871277 292.912744,27.8253561 Z" id="Path"></path>
            </g>
        </g>
    </g>
</svg>