<?xml version="1.0" encoding="UTF-8"?>
<svg width="82px" height="23px" viewBox="0 0 82 23" version="1.1" xmlns="http://www.w3.org/2000/svg" xmlns:xlink="http://www.w3.org/1999/xlink">
    <!-- Generator: Sketch 54.1 (76490) - https://sketchapp.com -->
    <title>paypal</title>
    <desc>Created with Sketch.</desc>
    <g id="Welcome" stroke="none" stroke-width="1" fill="none" fill-rule="evenodd">
        <g id="Desktop-Categorie-Selectata" transform="translate(-1208.000000, -2046.000000)" fill="#000000" fill-rule="nonzero">
            <g id="paypal" transform="translate(1208.000000, 2046.000000)">
                <path d="M14.5268627,4.12614493 C14.2615686,3.60166184 13.8419216,3.16908213 13.3209804,2.84425121 C12.7775294,2.51625121 12.136,2.28649275 11.4028235,2.15022222 C10.6567843,2.01712077 9.79498039,1.95690821 8.7965098,1.94740097 L4.18682353,1.95057005 C3.70768627,1.95690821 3.23819608,2.32452174 3.12564706,2.78086957 L0.0241176471,16.0941836 C-0.0884313725,16.5441932 0.212235294,16.921314 0.691372549,16.921314 L2.89894118,16.921314 C3.37807843,16.921314 3.85239216,16.555285 3.9585098,16.0941836 L4.71580392,12.8617198 C4.81709804,12.4117101 5.28980392,12.0361739 5.77376471,12.0361739 L6.40564706,12.0361739 C9.10521569,12.0330048 11.1954118,11.4895072 12.6971373,10.4009275 C14.206902,9.31076329 14.9513333,7.87041546 14.9513333,6.08622222 C14.9497255,5.30504348 14.8194902,4.64904348 14.5268627,4.12614493 Z M9.76603922,8.47571014 C9.09878431,8.95741063 8.17105882,9.19826087 6.97482353,9.19826087 L6.43458824,9.19826087 C5.95384314,9.19826087 5.65960784,8.82430918 5.76411765,8.36796135 L6.42815686,5.5411401 C6.52141176,5.08796135 7.00537255,4.71242512 7.47968627,4.7155942 L8.20321569,4.71084058 C9.04733333,4.71084058 9.69207843,4.85503382 10.1229804,5.13391304 C10.5490588,5.40962319 10.762902,5.84854106 10.7596863,6.43006763 C10.772549,7.31424155 10.4300784,7.99400966 9.76603922,8.47571014 Z" id="Shape"></path>
                <polygon id="Path" points="77.4578431 2.99002899 77.3195686 3.03122705 77.1346667 3.05657971 76.9079608 3.02171981 76.7921961 2.91080193 76.7391373 2.73650242 76.7359216 2.47505314 76.7359216 1.50689855 77.4739216 1.50689855 77.4739216 1.20742029 76.7359216 1.20742029 76.7359216 0.603710145 76.3709412 0.603710145 76.3709412 1.20742029 76.1233333 1.20742029 76.1233333 1.50689855 76.3709412 1.50689855 76.3709412 2.63350725 76.5413725 3.1912657 77.0430196 3.3687343 77.2536471 3.35130435 77.4771373 3.30852174 77.4771373 2.99002899"></polygon>
                <polygon id="Path" points="80.8809412 1.36112077 80.3535686 1.14720773 79.9644706 1.22485024 79.5689412 1.48788406 79.3390196 1.23594203 78.966 1.14879227 78.607451 1.22643478 78.2681961 1.44193237 78.2681961 1.20742029 77.9096471 1.20742029 77.9096471 3.32278261 78.2665882 3.32278261 78.2665882 1.74299517 78.5672549 1.55918841 78.8663137 1.48629952 79.1107059 1.52908213 79.2312941 1.65109179 79.2843529 1.85391304 79.3020392 2.11536232 79.3020392 3.32436715 79.6605882 3.32436715 79.6605882 1.97116908 79.6541569 1.85866667 79.6477255 1.7556715 79.9532157 1.56394203 80.2554902 1.4894686 80.4918431 1.53225121 80.6204706 1.65426087 80.6654902 1.85866667 80.6896078 2.11694686 80.6896078 3.32595169 81.0497647 3.32595169 81.0497647 1.95215459"></polygon>
                <path d="M25.1723922,6.02917874 C24.3395294,5.56649275 23.0243137,5.33514976 21.2267451,5.33514976 C20.3376078,5.33514976 19.4516863,5.40328502 18.5561176,5.53955556 C17.8952941,5.63938164 17.8309804,5.65839614 17.4241961,5.74554589 C16.584902,5.92618357 16.4530588,6.75172947 16.4530588,6.75172947 L16.1829412,7.84664734 C16.0301961,8.54542995 16.4385882,8.51849275 16.6090196,8.45986473 C16.9756078,8.35211594 17.1798039,8.24119807 17.9290588,8.0764058 C18.644549,7.91636715 19.3986275,7.79594203 19.9967451,7.80386473 C20.879451,7.80386473 21.5547451,7.89576812 22.0049412,8.08274396 C22.4487059,8.27288889 22.6705882,8.59930435 22.6705882,9.07149758 L22.632,9.37889855 L22.3136471,9.57221256 C21.0611373,9.64985507 20.1559216,9.76394203 19.0577647,9.92081159 C17.9837255,10.0681739 17.0415294,10.3264541 16.2585098,10.6798068 C15.4176078,11.0442512 14.7937647,11.5338744 14.3580392,12.156599 C13.9367843,12.7824928 13.7261569,13.5414879 13.7261569,14.432 C13.7261569,15.2702222 14.0316471,15.9626667 14.6249412,16.4982415 C15.221451,17.0243092 16.0092941,17.2810048 16.9514902,17.2810048 C17.548,17.2778357 18.009451,17.2318841 18.337451,17.1542415 L19.4066667,16.7913816 L20.3118824,16.2970048 L21.1447451,15.7550918 L21.156,15.7709372 L21.0723922,16.1195362 L21.0675686,16.1337971 L21.0675686,16.1369662 C20.9775294,16.5616232 21.238,16.9102222 21.6576471,16.9514203 L21.6656863,16.9609275 L21.7042745,16.9609275 L23.3973333,16.9609275 L23.7156863,16.9609275 L23.7446275,16.9482512 C24.1851765,16.8975459 24.5983922,16.5489469 24.6948627,16.1337971 L26.3043137,9.26798068 L26.3879216,8.70863768 L26.4265098,8.18415459 C26.4329412,7.21124638 26.0068627,6.49028019 25.1723922,6.02917874 Z M21.6126275,13.7490628 L21.268549,14.1959034 L20.4003137,14.6379903 C19.9919216,14.8011981 19.6044314,14.8835942 19.2458824,14.8835942 C18.7024314,14.8835942 18.2763529,14.8059517 17.988549,14.6474976 L17.5624706,13.8314589 C17.5624706,13.389372 17.6653725,13.0391884 17.8856471,12.7698164 L18.8214118,12.1423382 C19.2217647,12.0092367 19.710549,11.8967343 20.2765098,11.8190918 C20.7813725,11.7572947 21.7782353,11.6447923 21.9084706,11.6416232 L22.0612157,11.9062415 C22.0306667,12.0567729 21.7476863,13.2229952 21.6126275,13.7490628 Z" id="Shape"></path>
                <path d="M65.2687843,6.03868599 C64.431098,5.576 63.1174902,5.34307246 61.3247451,5.34307246 C60.4356078,5.34307246 59.5480784,5.41120773 58.6557255,5.55223188 C57.9932941,5.64730435 57.9273725,5.66790338 57.5189804,5.7534686 C56.6812941,5.93252174 56.5510588,6.76123671 56.5510588,6.76123671 L56.2809412,7.85457005 C56.1298039,8.55335266 56.528549,8.52166184 56.7150588,8.46778744 C57.0832549,8.36003865 57.2810196,8.2538744 58.0238431,8.08274396 C58.7361176,7.92428986 59.4966275,7.80703382 60.0963529,7.8102029 C60.9758431,7.8102029 61.6511373,7.90369082 62.0997255,8.09066667 C62.5467059,8.28081159 62.7653725,8.61039614 62.7653725,9.07783575 L62.7316078,9.38365217 L62.4164706,9.58171981 C61.151098,9.65619324 60.2442745,9.77028019 59.1573725,9.92714976 C58.086549,10.0745121 57.1411373,10.3312077 56.3565098,10.6861449 C55.5188235,11.0521739 54.8869412,11.5417971 54.4560392,12.1661063 C54.0299608,12.792 53.822549,13.5494106 53.822549,14.432 C53.822549,15.2765604 54.1248235,15.9690048 54.7261569,16.5014106 C55.3258824,17.0258937 56.1056863,17.2889275 57.0478824,17.2889275 C57.6411765,17.2825894 58.1026275,17.2445604 58.4322353,17.1605797 L59.4982353,16.8024734 L60.4114902,16.3080966 L61.2379216,15.7598454 L61.2523922,15.7772754 L61.1768235,16.1290435 L61.1687843,16.1353816 L61.172,16.1417198 C61.0723137,16.5663768 61.3343922,16.9181449 61.7588627,16.9561739 L61.7620784,16.9640966 L61.8006667,16.9640966 C62.0788235,16.9640966 63.0403137,16.9640966 63.498549,16.9640966 L63.8104706,16.9640966 L63.8442353,16.9530048 C64.2799608,16.900715 64.6915686,16.5521159 64.7832157,16.1322126 L66.3974902,9.27590338 L66.4827059,8.7133913 L66.5293333,8.18732367 C66.5309412,7.21758454 66.1096863,6.49978744 65.2687843,6.03868599 Z M61.7170588,13.75857 L61.3585098,14.2101643 L60.4983137,14.6490821 C60.0899216,14.8107053 59.7008235,14.894686 59.3487059,14.894686 C58.7875686,14.894686 58.3727451,14.8154589 58.0929804,14.6570048 L57.6620784,13.8441353 C57.6620784,13.4004638 57.7665882,13.0534493 57.9772157,12.7793237 C58.1910588,12.5210435 58.517451,12.308715 58.9226275,12.15343 C59.3181569,12.0203285 59.8069412,11.9125797 60.3761176,11.8317681 C60.8777647,11.769971 61.8714118,11.6542995 62.0000392,11.652715 L62.156,11.9173333 C62.1334902,12.0678647 61.848902,13.2293333 61.7170588,13.75857 Z" id="Shape"></path>
                <path d="M54.6168235,4.1752657 C54.3402745,3.64761353 53.925451,3.22137198 53.4012941,2.88861836 C52.8642745,2.55903382 52.2275686,2.32769082 51.4831373,2.19458937 C50.7515686,2.06624155 49.8785098,1.99652174 48.8864706,1.9949372 L44.2703529,1.99810628 C43.7896078,2.00602899 43.3281569,2.37364251 43.2172157,2.82523671 L40.1124706,16.1448889 C39.9999216,16.5964831 40.3086275,16.9704348 40.7781176,16.9704348 L42.988902,16.9672657 C43.4583922,16.9704348 43.9391373,16.5996522 44.0500784,16.1433043 L44.7977255,12.909256 C44.9070588,12.4592464 45.3813725,12.0805411 45.858902,12.0837101 L46.4907843,12.0837101 C49.1935686,12.0837101 51.2885882,11.5354589 52.7967451,10.4500483 C54.2872157,9.35196135 55.0412941,7.91478261 55.0412941,6.12900483 C55.0332549,5.35099517 54.8965882,4.69341063 54.6168235,4.1752657 Z M49.856,8.53116908 C49.1903529,9.00336232 48.2610196,9.24421256 47.0712157,9.24421256 L46.5213333,9.24421256 C46.0470196,9.24896618 45.7399216,8.86867633 45.8460392,8.41549758 L46.514902,5.59342995 C46.6129804,5.14183575 47.0921176,4.76313043 47.5696471,4.76788406 L48.2851373,4.76313043 C49.1340784,4.76788406 49.7707843,4.90573913 50.204902,5.18461836 C50.6374118,5.46349758 50.8416078,5.90083092 50.8464314,6.48077295 C50.8512549,7.36494686 50.5184314,8.04629952 49.856,8.53116908 Z" id="Shape"></path>
                <path d="M73.5459608,2.93140097 C73.6472549,2.47663768 73.3578431,2.10743961 72.8835294,2.11377778 L70.9058824,2.11377778 C70.5007059,2.11377778 70.1357255,2.41008696 69.9572549,2.7745314 L69.8479216,2.94249275 L69.7482353,3.37348792 L66.9843529,15.7550918 L66.8943137,16.1353816 L66.8975294,16.1448889 C66.8058824,16.5521159 67.0599216,16.8595169 67.4522353,16.9181449 L67.486,16.9640966 L69.5392157,16.9640966 C69.9411765,16.9640966 70.3190196,16.6630338 70.4910588,16.2922512 L70.5971765,16.1337971 L73.5523922,2.93298551 L73.5459608,2.93140097 Z" id="Path"></path>
                <path d="M40.1735686,5.50152657 C39.6510196,5.50786473 37.5270588,5.50152657 37.5270588,5.50152657 C37.0511373,5.50152657 36.4401569,5.88023188 36.1378824,6.33182609 C36.1378824,6.33182609 32.9768627,11.6780676 32.6697647,12.2152271 L32.3031765,12.2104734 L31.3191765,6.36827053 C31.2098431,5.90875362 30.7226667,5.51578744 30.1165098,5.51578744 L28.1388627,5.51895652 C27.6629412,5.51895652 27.3703137,5.89290821 27.4780392,6.34925604 C27.4780392,6.34925604 28.9797647,14.7710918 29.2804314,16.7533527 C29.4203137,17.846686 29.2627451,18.0415845 29.2627451,18.0415845 L27.3076078,21.3976425 C27.0181961,21.8539903 27.1741569,22.2263575 27.6484706,22.2263575 L29.9348235,22.2231884 C30.4107451,22.2231884 31.0361961,21.8539903 31.3191765,21.396058 L40.1140784,6.73588406 C40.1140784,6.7374686 40.9598039,5.48409662 40.1735686,5.50152657 Z" id="Path"></path>
            </g>
        </g>
    </g>
</svg>