<?xml version="1.0" encoding="UTF-8"?>
<svg width="46px" height="46px" viewBox="0 0 46 46" version="1.1" xmlns="http://www.w3.org/2000/svg" xmlns:xlink="http://www.w3.org/1999/xlink">
    <!-- Generator: Sketch 54.1 (76490) - https://sketchapp.com -->
    <title>Group 3</title>
    <desc>Created with Sketch.</desc>
    <g id="Welcome" stroke="none" stroke-width="1" fill="none" fill-rule="evenodd">
        <g id="Desktop-Produs" transform="translate(-1550.000000, -10.000000)">
            <g id="Group-3" transform="translate(1557.000000, 17.000000)">
                <circle id="Oval" stroke="#000000" stroke-width="3" cx="16" cy="16" r="16"></circle>
                <g id="avatar" transform="translate(4.000000, 7.000000)" fill="#000000" fill-rule="nonzero">
                    <path d="M23.7125281,21.9383472 L17.478044,18.6412518 L17.1901027,17.7415746 C17.1039022,17.4401369 16.9674719,17.1387579 16.6868655,17.0595403 C16.5977311,17.0344254 16.4849487,16.8717066 16.4703961,16.7581027 L16.3039804,15.0086846 C16.2948264,14.8588753 16.3549144,14.7244401 16.4340147,14.6300244 C16.9116675,14.0576626 17.1720293,13.3947579 17.2821711,12.6368509 C17.3375648,12.2557848 17.5358435,11.9043521 17.6377115,11.5290367 L18.0374377,9.43716381 C18.0791589,9.16248411 18.0710611,8.95076773 17.7640489,8.84432274 C17.6793741,8.81480685 17.6056724,8.67450367 17.6056724,8.46413692 L17.6097213,4.51710513 C17.5445281,3.56179951 17.038709,2.82308068 16.321291,2.3089291 C14.9508851,1.32668949 12.4968411,1.78216137 13.2977604,0.17997066 C13.3450562,0.0856723716 13.3299756,-0.0781613692 13.0007237,0.0429535452 C11.7722054,0.494963325 8.49993154,1.68933007 7.67788753,2.3089291 C6.94216137,2.86339364 6.45476773,3.56179951 6.38945721,4.51710513 L6.39350611,8.46413692 C6.39350611,8.63782885 6.31986308,8.81480685 6.2350709,8.84432274 C5.928,8.95070905 5.91996088,9.16248411 5.96168215,9.43716381 L6.36152567,11.5290367 C6.46315892,11.9043521 6.66155501,12.2558435 6.71700733,12.6368509 C6.82703178,13.3947579 7.08756968,14.0576626 7.56510513,14.6300244 C7.6441467,14.7244401 7.7042934,14.8588753 7.69513936,15.0086846 L7.52872372,16.7581027 C7.51411247,16.8717066 7.40115403,17.0344254 7.3121956,17.0595403 C7.03153056,17.1387579 6.89504156,17.4401369 6.80889976,17.7415746 L6.52084108,18.6412518 L0.286122249,21.9383472 C0.125222494,22.0233741 0.0245867971,22.1904939 0.0245867971,22.372401 L0.0245867971,24.6810367 C0.0245867971,24.9521956 0.244518337,25.1720685 0.515735941,25.1720685 L23.4829731,25.1720685 C23.7541907,25.1720685 23.9741222,24.9521956 23.9741222,24.6810367 L23.9741222,22.372401 C23.9740049,22.1904939 23.8733692,22.0233741 23.7125281,21.9383472 Z" id="Path"></path>
                </g>
                <circle id="Oval" stroke="#FFFFFF" stroke-width="7" cx="16" cy="16" r="19.5"></circle>
            </g>
        </g>
    </g>
</svg>