<?xml version="1.0" encoding="UTF-8"?>
<svg width="24px" height="20px" viewBox="0 0 22 17" version="1.1" xmlns="http://www.w3.org/2000/svg" xmlns:xlink="http://www.w3.org/1999/xlink">
    <!-- Generator: Sketch 54.1 (76490) - https://sketchapp.com -->
    <title>work</title>
    <desc>Created with Sketch.</desc>
    <g id="Welcome" stroke="none" stroke-width="1" fill="none" fill-rule="evenodd">
        <g id="Artboard" transform="translate(-132.000000, -72.000000)" fill="#000000" fill-rule="nonzero">
            <g id="work" transform="translate(132.000000, 72.000000)">
                <path d="M21.8444542,9.40751634 L20.8595948,7.96644444 C20.5676275,5.44460458 19.8465523,3.57837908 18.6647712,2.27746732 C17.2813235,0.754470588 15.3041634,0.0141633987 12.6203431,0.0141633987 C12.2421013,0.0141633987 11.8434771,0.0292614379 11.4354706,0.0591339869 C6.86191503,0.393519608 4.41312092,5.66136928 3.44379085,8.39957843 C3.39544118,8.42024837 3.34701961,8.44124183 3.29852614,8.46252288 C1.07656209,9.43879085 -0.00244444444,10.5257418 1.02169538e-15,11.7852059 C0.000934640523,12.2603987 0.280212418,12.7679804 0.905415033,13.431 C1.35961438,13.9125915 1.97946078,14.4497582 2.65060458,14.9434641 C3.44033987,15.524451 5.45693464,16.8828431 7.12260784,16.9487353 C7.19694771,16.951683 7.27671569,16.9531209 7.35964706,16.9531209 C7.3597549,16.9531209 7.35957516,16.9531209 7.35971895,16.9531209 C9.98196078,16.9531209 18.2821797,15.4066144 21.8341373,10.4286111 C22.0514412,10.1242059 22.0555752,9.71634314 21.8444542,9.40751634 Z M17.3752908,10.4544575 C17.1638824,10.5966667 16.9473693,10.731219 16.7277647,10.860451 C16.2488693,11.1422092 15.7546961,11.397402 15.2499902,11.6295163 C14.2895752,12.071134 13.2850523,12.4331993 12.253281,12.6672549 C11.3143987,12.8802451 10.3149444,13.0110229 9.35787255,12.8462386 C8.43728758,12.6877451 7.53154902,12.3736699 6.70931699,11.9303627 C5.89103922,11.4891765 5.05227124,10.934683 4.45798366,10.2073529 C4.82921569,10.3705915 5.20353922,10.5255621 5.58152941,10.6725163 C5.82432026,9.83626471 6.10546732,9.0074902 6.44355556,8.20474183 C6.77244118,7.42384967 7.15754902,6.67315359 7.71757843,6.03220588 C8.37700327,5.27737582 9.19474183,4.64721242 10.0568039,4.14099673 C10.7814379,3.71551961 11.5569379,3.38120588 12.3799967,3.20387582 C12.0536275,3.32458824 11.7381144,3.46683333 11.4340327,3.63665033 C10.526281,4.14372876 9.70987255,4.8266634 9.02089869,5.60334967 C8.71821895,5.94456536 8.39875163,6.31910458 8.18694771,6.72588889 C7.95267647,7.17595425 7.8013366,7.65937908 7.67699346,8.14999346 C7.43218954,9.12414052 7.28811111,10.1260392 7.19396405,11.1252778 C7.18411438,11.2295621 7.18796078,11.2202876 7.29113072,11.2483627 C7.35648366,11.2661569 7.42180065,11.283951 7.48715359,11.3016732 C7.60527778,11.3364346 7.72505556,11.3651928 7.84476144,11.393951 C8.09301634,11.4535882 8.34256536,11.5055327 8.59276144,11.5568301 C10.0960229,11.8784902 12.0977353,11.5093431 13.3369248,11.2338039 C14.5891993,10.9554248 15.8320556,10.6359575 17.081634,10.3457876 C17.080951,10.3458595 17.0919869,10.3432712 17.1211046,10.3365131 C17.307134,10.2943464 17.2652908,10.3040163 17.1966667,10.3197255 C17.3714804,10.2803987 17.5465817,10.2419706 17.722402,10.2073529 C17.7223301,10.2600163 17.413683,10.4285392 17.3752908,10.4544575 Z" id="Shape"></path>
            </g>
        </g>
    </g>
</svg>