<svg width="28px" height="28px" xmlns="http://www.w3.org/2000/svg" xml:space="preserve" version="1.1" style="shape-rendering:geometricPrecision; text-rendering:geometricPrecision; image-rendering:optimizeQuality; fill-rule:evenodd; clip-rule:evenodd" viewBox="0 0 493.8 501.29" xmlns:xlink="http://www.w3.org/1999/xlink">
 <g id="Слой_x0020_1">
 <metadata id="CorelCorpID_0Corel-Layer"></metadata> 
 <path class="fil0" d="M71.39 191.59l101.94 0 0 2.61 0 24.52 38.86 -0.05 0 -15.84 43.03 -0.38 0.05 16.33 38.57 -0.24 -0.05 -24.52 0 -2.42 86.93 0c27.53,0 58.53,62.47 58.53,139.54 0,77.07 -31,139.54 -58.53,139.54l-309.32 0c-27.53,0 -58.53,-62.47 -58.53,-139.54 0,-77.07 31,-139.54 58.53,-139.54zm292.15 14.16c18.67,8.29 33.09,62.45 33.09,128.02 0,65.57 -14.42,119.73 -33.09,128.02 1.63,0.73 3.3,1.1 5,1.1 21.03,0 38.09,-57.81 38.09,-129.12 0,-71.31 -17.05,-129.12 -38.09,-129.12 -1.69,0 -3.36,0.37 -5,1.1zm-307.78 128.8c0,-66.59 14.26,-121.41 32.57,-128.37 -1.83,-1 -3.71,-1.52 -5.63,-1.52 -20.17,0 -36.52,57.81 -36.52,129.12 0,71.31 16.35,129.12 36.52,129.12 1.34,0 2.65,-0.25 3.95,-0.75 -17.5,-9.57 -30.89,-63.05 -30.89,-127.6zm87.14 -244.62l68.99 0c0.69,0 1.26,0.57 1.26,1.26l0 2.1c0,0.69 -0.57,1.26 -1.26,1.26l-68.99 0c-0.69,0 -1.26,-0.57 -1.26,-1.26l0 -2.1c0,-0.69 0.57,-1.26 1.26,-1.26zm131.17 -81.08l4.75 0c1.12,0 2.2,-0.93 2.04,-2.04l-0.61 -3.97c-0.17,-1.11 -1.25,-2.84 -2.37,-2.84l-1.43 0c-1.12,0 -1.94,2.16 -2.54,3.1l-2.4 3.77c-0.6,0.94 -1.43,1.96 2.57,1.96zm56.74 69.44l-7.19 0c-0.93,0 -1.69,0.76 -1.69,1.69l0 7.95c0,0.93 0.76,1.69 1.69,1.69l7.19 0c0.93,0 1.69,-0.76 1.69,-1.69l0 -7.95c0,-0.93 -0.76,-1.69 -1.69,-1.69zm-43.69 -13.67c0,1.69 -4.33,3.06 -9.67,3.06 -5.34,0 -9.67,-1.37 -9.67,-3.06l0 -16.79 19.33 0 0 16.79zm27.72 -1.21c2.23,0 4.34,2.03 6.2,5.63 -0.35,0.38 -0.56,0.89 -0.56,1.44l0 1.84c0,1.17 0.96,2.13 2.13,2.13l0.66 0c0.33,0.98 0.64,2.01 0.95,3.1l-1.12 0c-1.07,0 -1.94,0.87 -1.94,1.94l0 9.11c0,1.07 0.87,1.94 1.94,1.94l3.74 0c1,7.12 1.57,15.23 1.57,23.85 0,11.49 -1.01,22.09 -2.72,30.61l-0.52 -0.2c-1.15,-0.43 -2.44,0.15 -2.87,1.3l-4.45 11.78c-0.43,1.15 0.15,2.44 1.3,2.87l1.09 0.41c-1.65,2.69 -3.47,4.19 -5.39,4.19l-63.33 0 0 -101.94 14.94 0 0 2.87c0,1.58 4.92,2.87 11,2.87 6.07,0 11,-1.28 11,-2.87l0 -2.87 26.39 0zm10.51 82.49l3.05 1.15c1.01,0.38 1.53,1.53 1.15,2.54l-3.94 10.42c-0.38,1.01 -1.53,1.53 -2.54,1.15l-3.05 -1.15c-1.01,-0.38 -1.53,-1.53 -1.15,-2.54l3.94 -10.42c0.38,-1.01 1.53,-1.53 2.54,-1.15zm4.64 -77.22l-7 0c-1.01,0 -1.83,0.83 -1.83,1.83l0 1.58c0,1.01 0.82,1.83 1.83,1.83l7 0c1.01,0 1.83,-0.82 1.83,-1.83l0 -1.58c0,-1.01 -0.82,-1.83 -1.83,-1.83zm-36.95 -48.89l-4.86 0c0.26,-0.44 0.4,-0.96 0.4,-1.5l0 -5.27c0,-1.66 -1.35,-3.01 -3.01,-3.01l-17.72 0c-1.66,0 -3.01,1.36 -3.01,3.01l0 5.27c0,1.66 1.36,3.01 3.01,3.01l0.47 0 0 1.82 1.33 0 0 0.04c0.11,-0.03 0.22,-0.04 0.34,-0.04 1.42,0 2.57,2.13 2.57,4.75 0,2.62 -1.15,4.75 -2.57,4.75 -0.12,0 -0.23,-0.01 -0.34,-0.04l0 0.04 -1.33 0 0 13.98 18.12 0 0 -3.45 6.6 0c1.71,0 3.1,-5.23 3.1,-11.68 0,-6.45 -1.39,-11.68 -3.1,-11.68zm-7.45 1.51c0.09,0 0.19,-0.01 0.28,-0.01l0 0.01 -0.28 0zm1.76 1.75c0.67,2.14 1.09,5.33 1.09,8.9 0,3.41 -0.39,6.47 -1,8.61l1.56 0c0.59,-2.13 0.96,-5.13 0.96,-8.45 0,-3.65 -0.44,-6.91 -1.14,-9.05l-1.47 0zm-25.03 0.77l6.83 0 0 0.04c0.1,-0.02 0.21,-0.04 0.32,-0.04 1.32,0 2.39,1.81 2.39,4.05 0,2.23 -1.07,4.05 -2.39,4.05 -0.11,0 -0.21,-0.01 -0.32,-0.04l0 0.04 -6.69 0c-0.56,7.64 -3.03,13.4 -5.99,13.4l-16.09 0c-3.37,0 -6.11,-7.46 -6.11,-16.67 0,-9.21 2.73,-16.67 6.11,-16.67l16.09 0c2.76,0 5.09,4.99 5.85,11.84zm-21.16 -9.71c-3,0 -5.43,6.64 -5.43,14.83 0,8.19 2.43,14.83 5.43,14.83 3,0 5.43,-6.64 5.43,-14.83 0,-8.19 -2.43,-14.83 -5.43,-14.83zm-131.13 62.72l30.02 0c-2.78,0 -5.03,19.35 -5.03,43.23 0,23.87 2.25,43.23 5.03,43.23l-30.02 0 -11.17 -8.71c-3.32,0 -6.01,-16.1 -6.01,-35.96 0,-19.86 2.69,-35.96 6.01,-35.96l11.17 -5.81zm34.74 79.5l67.21 0c0.64,0 1.16,0.57 1.16,1.26l0 2.1c0,0.69 -0.52,1.26 -1.16,1.26l-52.77 0 0 5.16 0.77 0c0.73,0 1.33,0.65 1.33,1.44l0 7.54 7.41 6.02 -0.29 0 0 4.83 -21.61 0 0 -4.83 7.12 -5.89 0 -7.68c0,-0.79 0.6,-1.44 1.33,-1.44l0.77 0 0 -5.16 -11.29 0c-0.64,0 -1.16,-0.57 -1.16,-1.26l0 -2.1c0,-0.69 0.52,-1.26 1.16,-1.26zm-2.38 -11.23l69.49 0c0.69,0 1.26,0.57 1.26,1.26l0 2.1c0,0.69 -0.57,1.26 -1.26,1.26l-69.49 0c-0.69,0 -1.26,-0.57 -1.26,-1.26l0 -2.1c0,-0.69 0.57,-1.26 1.26,-1.26zm-2.32 -11.23l71.81 0c0.69,0 1.26,0.57 1.26,1.26l0 2.1c0,0.69 -0.57,1.26 -1.26,1.26l-71.81 0c-0.69,0 -1.26,-0.57 -1.26,-1.26l0 -2.1c0,-0.69 0.57,-1.26 1.26,-1.26zm-2.32 -11.23l74.14 0c0.69,0 1.26,0.57 1.26,1.26l0 2.1c0,0.69 -0.57,1.26 -1.26,1.26l-74.14 0c-0.69,0 -1.26,-0.57 -1.26,-1.26l0 -2.1c0,-0.69 0.57,-1.26 1.26,-1.26zm0.83 -11.23l73.3 0c0.69,0 1.26,0.57 1.26,1.26l0 2.1c0,0.69 -0.57,1.26 -1.26,1.26l-73.3 0c-0.69,0 -1.26,-0.57 -1.26,-1.26l0 -2.1c0,-0.69 0.57,-1.26 1.26,-1.26zm2.37 -11.23l70.93 0c0.69,0 1.26,0.57 1.26,1.26l0 2.1c0,0.69 -0.57,1.26 -1.26,1.26l-70.93 0c-0.69,0 -1.26,-0.57 -1.26,-1.26l0 -2.1c0,-0.69 0.57,-1.26 1.26,-1.26zm4.35 -41.91l66.09 0c1.6,0 2.91,1.31 2.91,2.91l0 21.71c0,1.6 -1.31,2.91 -2.91,2.91l-66.09 0c-1.6,0 -2.91,-1.31 -2.91,-2.91l0 -21.71c0,-1.6 1.31,-2.91 2.91,-2.91zm97.25 -4.17l2.71 0c1.81,0 3.29,1.48 3.29,3.29l0 113.96c0,0.62 -0.18,1.21 -0.48,1.71l2.99 0 0 6.31 9.87 0 26.16 0 0 16.38 0 16.38 -26.16 0 0 -16.38 -54.56 0 0 16.38 -26.16 0 0 -16.38 0 -16.38 26.16 0 8.37 0c-0.2,-0.51 -0.31,-1.07 -0.31,-1.65l0 0c0,-2.51 2.05,-4.56 4.56,-4.56l9.55 0 10.72 -6.42 0 -109.36c0,-1.81 1.48,-3.29 3.29,-3.29zm-26.51 26.55l20.35 -6.98 0.19 90.7 -20.55 -9.3 0 -74.42zm243.74 236.72c2.06,0 3.73,5.25 3.73,11.73 0,6.48 -1.67,11.73 -3.73,11.73l0 0.1 -7.35 0c-1.21,22.16 -5.95,38.7 -11.62,38.7 -1.49,0 -2.91,-1.15 -4.23,-3.23 4.25,-7.61 7.23,-25.25 7.23,-45.81 0,-21.29 -3.2,-39.45 -7.69,-46.58 1.44,-2.57 3.02,-4 4.69,-4 5.56,0 10.22,15.88 11.54,37.37l7.43 0zm13.25 -13.06c6.6,0 6.67,0 12.31,0 -0.55,11.76 1.04,16.7 -3.28,23.23 -3.6,5.45 -10.21,9.28 -17.1,8.86 0,-5.67 0.04,-6.8 0.04,-13.48 2.86,0.51 7.97,-1.45 8.09,-4.31 0.2,-4.53 0.04,-7.91 -0.04,-14.3zm0.56 -31.61l12.06 0c4.47,0 8.12,3.65 8.12,8.12l0 12.64c0,4.47 -3.65,8.12 -8.12,8.12l-12.06 0c-4.47,0 -8.12,-3.65 -8.12,-8.12l0 -12.64c0,-4.46 3.65,-8.12 8.12,-8.12zm-173.4 -231.09c-1.4,0.05 -2.57,-0.54 -3.51,-1.54 0.59,-2.13 0.96,-5.13 0.96,-8.45 0,-3.65 -0.45,-6.91 -1.14,-9.05 0.89,-1 2.02,-1.64 3.39,-1.73 61.62,-3.89 116.83,21.88 148.59,64.61 21.97,29.56 45.52,101.99 40.15,186.43 -0.97,-0.42 -2.04,-0.65 -3.16,-0.65l-12.06 0c-1.42,0 -2.75,0.37 -3.91,1.01 -0.49,-87.11 -8.06,-114.08 -26.21,-156.65 -3.96,-9.28 -22.01,-42.66 -65.04,-61.5 -19.96,-8.73 -46.78,-13.53 -78.04,-12.48zm-290.63 270.9c-5.3,0 -9.6,8.57 -9.6,19.15 0,10.57 4.3,19.15 9.6,19.15 0.55,0 1.1,-0.1 1.62,-0.27 -0.47,-6.63 -0.73,-13.41 -0.73,-20.3 0,-5.93 0.19,-11.77 0.54,-17.5 -0.47,-0.14 -0.95,-0.21 -1.44,-0.21zm138.77 188.78l-34.69 0 7.29 -26.2 34.69 0 -7.29 26.2zm165.48 0l34.69 0 -7.29 -26.2 -34.69 0 7.29 26.2z"></path> </g> </svg>