<?xml version="1.0" encoding="UTF-8"?>
<svg width="511px" height="448px" viewBox="0 0 511 448" version="1.1" xmlns="http://www.w3.org/2000/svg" xmlns:xlink="http://www.w3.org/1999/xlink">
    <!-- Generator: Sketch 54.1 (76490) - https://sketchapp.com -->
    <title>rotary_phone</title>
    <desc>Created with Sketch.</desc>
    <g id="Welcome" stroke="none" stroke-width="1" fill="none" fill-rule="evenodd">
        <g id="Artboard" transform="translate(-1.000000, -32.000000)" fill-rule="nonzero">
            <g id="rotary_phone" transform="translate(0.000000, 32.000000)">
                <path d="M502.740086,98.2521014 C364.607875,-32.7610136 148.077786,-32.6761793 10.0483743,98.4437271 C4.21277193,104.279329 0.954136452,112.206846 0.999048733,120.459727 C0.916210526,128.663704 4.18382846,136.546308 10.0483743,142.284101 L60.6166082,192.894253 C72.8287563,204.258058 91.6829318,204.460663 104.136608,193.362339 C119.596413,178.993404 137.007407,166.879064 155.854596,157.379618 C166.138511,151.139805 172.102862,139.703142 171.333365,127.698589 L171.333365,71.68 C199.272795,65.4521637 227.892897,62.8123197 256.500023,63.823345 C285.11214,62.7434542 313.742222,65.3992671 341.666682,71.7229162 L341.666682,127.698589 C340.616733,139.714121 346.498246,151.278534 356.826074,157.507368 C375.780055,166.927969 393.270893,179.040312 408.756647,193.469131 C414.620195,198.931462 422.333131,201.97352 430.34648,201.985497 C438.599361,202.030409 446.526877,198.771774 452.36248,192.936172 L502.951673,142.346979 C515.091961,130.062971 514.996148,110.26963 502.739088,98.1023938 L502.740086,98.2521014 Z" id="Path" fill="#828282"></path>
                <path d="M457.047329,302.630924 C456.594214,301.745653 456.02832,300.923259 455.365614,300.182706 L338.85717,173.624889 C336.82414,171.469099 333.984686,170.257466 331.021474,170.282417 L181.979571,170.282417 C179.003384,170.279423 176.161934,171.522994 174.143875,173.710721 L57.6354308,300.161747 C56.9717271,300.9023 56.4068304,301.725692 55.9537154,302.609965 C47.8355712,318.885177 43.6018402,336.821146 43.5828772,355.008624 L43.5828772,436.4286 C43.5828772,442.308117 48.3495673,447.074807 54.2290838,447.074807 L458.771961,447.074807 C464.651478,447.074807 469.418168,442.308117 469.418168,436.4286 L469.418168,355.094456 C469.410183,336.885021 465.175454,318.926097 457.047329,302.630924 Z" id="Path" fill="#828282"></path>
                <g id="Group" transform="translate(170.666667, 212.584795)" fill="#FAFAFA">
                    <path d="M36.1174581,85.4471111 L11.3129045,85.4471111 C5.43338791,85.4471111 0.666697856,90.2138012 0.666697856,96.0933177 C0.666697856,101.972834 5.43338791,106.739524 11.3129045,106.739524 L36.1174581,106.739524 C41.9969747,106.739524 46.7636647,101.972834 46.7636647,96.0933177 C46.7636647,90.2138012 41.9969747,85.4471111 36.1174581,85.4471111 Z" id="Path"></path>
                    <path d="M98.8429474,85.4471111 L72.2918051,85.4471111 C66.4122885,85.4471111 61.6455984,90.2138012 61.6455984,96.0933177 C61.6455984,101.972834 66.4122885,106.739524 72.2918051,106.739524 L98.8429474,106.739524 C104.722464,106.739524 109.489154,101.972834 109.489154,96.0933177 C109.489154,90.2138012 104.722464,85.4471111 98.8429474,85.4471111 Z" id="Path"></path>
                    <path d="M160.354807,85.4471111 L136.039298,85.4471111 C130.159782,85.4471111 125.393092,90.2138012 125.393092,96.0933177 C125.393092,101.972834 130.159782,106.739524 136.039298,106.739524 L160.354807,106.739524 C166.234324,106.739524 171.001014,101.972834 171.001014,96.0933177 C171.001014,90.2138012 166.234324,85.4471111 160.354807,85.4471111 Z" id="Path"></path>
                    <path d="M43.2505263,42.8642807 L21.9591111,42.8642807 C16.0795945,42.8642807 11.3129045,47.6309708 11.3129045,53.5104873 C11.3129045,59.3900039 16.0795945,64.156694 21.9591111,64.156694 L43.2505263,64.156694 C49.1300429,64.156694 53.8967329,59.3900039 53.8967329,53.5104873 C53.8967329,47.6309708 49.1300429,42.8642807 43.2505263,42.8642807 Z" id="Path"></path>
                    <path d="M75.1881481,64.1556959 L96.4795634,64.1556959 C102.35908,64.1556959 107.12577,59.3890058 107.12577,53.5094893 C107.12577,47.6299727 102.35908,42.8632827 96.4795634,42.8632827 L75.1881481,42.8632827 C69.3086316,42.8632827 64.5419415,47.6299727 64.5419415,53.5094893 C64.5419415,59.3890058 69.3086316,64.1556959 75.1881481,64.1556959 Z" id="Path"></path>
                    <path d="M149.709598,64.1556959 C155.589115,64.1556959 160.355805,59.3890058 160.355805,53.5094893 C160.355805,47.6299727 155.589115,42.8632827 149.709598,42.8632827 L128.418183,42.8632827 C122.538667,42.8632827 117.771977,47.6299727 117.771977,53.5094893 C117.771977,59.3890058 122.538667,64.1556959 128.418183,64.1556959 L149.709598,64.1556959 Z" id="Path"></path>
                    <path d="M43.2505263,0.280452242 L32.6043197,0.280452242 C26.7248031,0.280452242 21.9581131,5.0471423 21.9581131,10.9266589 C21.9581131,16.8061754 26.7248031,21.5728655 32.6043197,21.5728655 L43.2505263,21.5728655 C49.1300429,21.5728655 53.8967329,16.8061754 53.8967329,10.9266589 C53.8967329,5.0471423 49.1300429,0.280452242 43.2505263,0.280452242 Z" id="Path"></path>
                    <path d="M80.5107524,21.5718674 L91.1569591,21.5718674 C97.0364756,21.5718674 101.803166,16.8051774 101.803166,10.9256608 C101.803166,5.04614425 97.0364756,0.279454191 91.1569591,0.279454191 L80.5107524,0.279454191 C74.6312359,0.279454191 69.8645458,5.04614425 69.8645458,10.9256608 C69.8645458,16.8051774 74.6312359,21.5718674 80.5107524,21.5718674 Z" id="Path"></path>
                    <path d="M128.417185,21.5718674 L139.063392,21.5718674 C144.942908,21.5718674 149.709598,16.8051774 149.709598,10.9256608 C149.709598,5.04614425 144.942908,0.279454191 139.063392,0.279454191 L128.417185,0.279454191 C122.537669,0.279454191 117.770979,5.04614425 117.770979,10.9256608 C117.770979,16.8051774 122.537669,21.5718674 128.417185,21.5718674 Z" id="Path"></path>
                </g>
                <g id="Group" transform="translate(192.623782, 126.752437)" fill="#828282">
                    <path d="M10.6472047,64.8213957 C4.76768811,64.8213957 0.000998050682,60.0547057 0.000998050682,54.1751891 L0.000998050682,11.5913606 C0.000998050682,5.71184405 4.76768811,0.945153996 10.6472047,0.945153996 C16.5267212,0.945153996 21.2934113,5.71184405 21.2934113,11.5913606 L21.2934113,54.1751891 C21.2934113,60.0547057 16.5267212,64.8213957 10.6472047,64.8213957 Z" id="Path"></path>
                    <path d="M117.106277,64.8213957 C111.22676,64.8213957 106.46007,60.0547057 106.46007,54.1751891 L106.46007,11.5913606 C106.46007,5.71184405 111.22676,0.945153996 117.106277,0.945153996 C122.985793,0.945153996 127.752483,5.71184405 127.752483,11.5913606 L127.752483,54.1751891 C127.752483,60.0547057 122.985793,64.8213957 117.106277,64.8213957 Z" id="Path"></path>
                </g>
            </g>
        </g>
    </g>
</svg>