<?xml version="1.0" encoding="UTF-8"?>
<svg width="25px" height="25px" viewBox="0 0 29 29" version="1.1" xmlns="http://www.w3.org/2000/svg" xmlns:xlink="http://www.w3.org/1999/xlink">
    <!-- Generator: Sketch 54.1 (76490) - https://sketchapp.com -->
    <title>saw-blade</title>
    <desc>Created with Sketch.</desc>
    <g id="Welcome" stroke="none" stroke-width="1" fill="none" fill-rule="evenodd">
        <g id="Artboard" transform="translate(-267.000000, -239.000000)" fill-rule="nonzero">
            <g id="saw-blade" transform="translate(267.000000, 239.000000)">
                <g id="Group">
                    <path d="M28.63,13.4205263 L27.6005263,11.5315789 C27.5284211,11.3994737 27.3981579,11.3089474 27.2492105,11.2873684 L25.6973684,11.0628947 C25.5734211,10.655 25.4289474,10.2563158 25.2631579,9.86842105 L26.1523684,9.13026316 L27.3642105,8.84842105 C27.4589474,8.82631579 27.4889474,8.70657895 27.4163158,8.64236842 L25.8028947,7.21947368 C25.69,7.12 25.5365789,7.07921053 25.3892105,7.11 L23.8526316,7.43 C23.5978947,7.09157895 23.3239474,6.76868421 23.035,6.46 L23.6207895,5.45789474 L24.6631579,4.77868421 C24.7444737,4.72552632 24.7321053,4.60289474 24.6415789,4.56736842 L22.6389474,3.78210526 C22.4986842,3.72710526 22.3407895,3.74131579 22.2126316,3.82078947 L20.8768421,4.64789474 C20.5234211,4.41710526 20.1568421,4.20552632 19.7786842,4.01315789 L19.9860526,2.87315789 L20.7331579,1.87842105 C20.7915789,1.80078947 20.7376316,1.68947368 20.6405263,1.68710526 L18.4894737,1.63421053 C18.3389474,1.63052632 18.1955263,1.69789474 18.1021053,1.81631579 L17.13,3.05 C16.7213158,2.95526316 16.3047368,2.88184211 15.8807895,2.83105263 L15.6852632,1.68763158 L16.0473684,0.497368421 C16.0755263,0.404473684 15.9871053,0.318421053 15.895,0.349210526 L13.8560526,1.035 C13.7134211,1.08289474 13.6015789,1.19552632 13.5544737,1.33868421 L13.0626316,2.83157895 C12.6389474,2.88236842 12.2223684,2.95605263 11.8136842,3.05078947 L11.2394737,2.04421053 L11.1723684,0.801842105 C11.1671053,0.704736842 11.0544737,0.654210526 10.9784211,0.715 L9.29710526,2.05684211 C9.17947368,2.15078947 9.11289474,2.29473684 9.11736842,2.44526316 L9.16578947,4.015 C8.78736842,4.20736842 8.42105263,4.41921053 8.06763158,4.65 L7.18342105,3.9 L6.69552632,2.75552632 C6.65736842,2.66605263 6.53421053,2.65710526 6.48368421,2.74026316 L5.36263158,4.57631579 C5.28421053,4.705 5.27078947,4.86289474 5.32657895,5.00263158 L5.90973684,6.46315789 C5.62105263,6.77184211 5.34710526,7.09447368 5.09263158,7.43289474 L4.00684211,7.03105263 L3.15684211,6.12263158 C3.09052632,6.05157895 2.97157895,6.08526316 2.95236842,6.18052632 L2.52684211,8.28947368 C2.49710526,8.43710526 2.53868421,8.59026316 2.63894737,8.70236842 L3.68289474,9.87131579 C3.51736842,10.2592105 3.37263158,10.6581579 3.24894737,11.0663158 L2.09263158,11.0602632 L0.983157895,10.4973684 C0.896578947,10.4534211 0.796315789,10.5257895 0.810789474,10.6218421 L1.13210526,12.7489474 C1.15473684,12.8978947 1.24605263,13.0276316 1.37868421,13.0986842 L2.76184211,13.8413158 C2.75078947,14.0507895 2.74447368,14.2615789 2.74447368,14.4739474 C2.74447368,14.6876316 2.75105263,14.8997368 2.76236842,15.1105263 L1.67184211,15.5007895 L0.436842105,15.3507895 C0.340263158,15.3392105 0.271052632,15.4413158 0.317631579,15.5265789 L1.34710526,17.4152632 C1.41921053,17.5476316 1.54921053,17.6381579 1.69842105,17.6597368 L3.25026316,17.8842105 C3.37421053,18.2921053 3.51868421,18.6907895 3.68447368,19.0786842 L2.79526316,19.8168421 L1.58342105,20.0986842 C1.48868421,20.1207895 1.45868421,20.2405263 1.53131579,20.3047368 L3.14473684,21.7276316 C3.25763158,21.8271053 3.41105263,21.8678947 3.55842105,21.8371053 L5.095,21.5171053 C5.34973684,21.8555263 5.62368421,22.1784211 5.91263158,22.4871053 L5.32684211,23.4892105 L4.28447368,24.1684211 C4.20315789,24.2215789 4.21552632,24.3442105 4.30605263,24.3797368 L6.30868421,25.165 C6.44894737,25.22 6.60684211,25.2057895 6.73473684,25.1263158 L8.07052632,24.2992105 C8.42394737,24.5297368 8.79052632,24.7415789 9.16868421,24.9339474 L8.96131579,26.0739474 L8.21421053,27.0686842 C8.15578947,27.1463158 8.20973684,27.2576316 8.30684211,27.26 L10.4573684,27.3128947 C10.6078947,27.3165789 10.7513158,27.2492105 10.8447368,27.1307895 L11.8168421,25.8971053 C12.2255263,25.9918421 12.6421053,26.0652632 13.0660526,26.1160526 L13.2613158,27.2594737 L12.8994737,28.4497368 C12.8713158,28.5426316 12.9597368,28.6286842 13.0518421,28.5978947 L15.0907895,27.9121053 C15.2334211,27.8642105 15.3452632,27.7515789 15.3923684,27.6084211 L15.8842105,26.1155263 C16.3078947,26.0647368 16.7244737,25.9910526 17.1331579,25.8963158 L17.7073684,26.9028947 L17.7744737,28.145 C17.7797368,28.2421053 17.8923684,28.2926316 17.9684211,28.2321053 L19.6497368,26.8902632 C19.7673684,26.7963158 19.8339474,26.6523684 19.8294737,26.5018421 L19.7810526,24.9321053 C20.1594737,24.7397368 20.5257895,24.5278947 20.8792105,24.2971053 L21.7634211,25.0471053 L22.2513158,26.1915789 C22.2894737,26.2810526 22.4126316,26.29 22.4631579,26.2071053 L23.5842105,24.3710526 C23.6626316,24.2423684 23.6760526,24.0844737 23.6202632,23.9447368 L23.0371053,22.4842105 C23.3257895,22.1755263 23.5997368,21.8528947 23.8542105,21.5144737 L24.94,21.9163158 L25.79,22.8247368 C25.8563158,22.8957895 25.9752632,22.8621053 25.9944737,22.7668421 L26.42,20.6581579 C26.4497368,20.5105263 26.4081579,20.3573684 26.3078947,20.2452632 L25.2639474,19.0763158 C25.4294737,18.6884211 25.5742105,18.2894737 25.6978947,17.8815789 L26.8542105,17.8876316 L27.9636842,18.4505263 C28.0502632,18.4944737 28.1505263,18.4221053 28.1360526,18.3260526 L27.8147368,16.1989474 C27.7921053,16.05 27.7007895,15.9202632 27.5681579,15.8492105 L26.185,15.1065789 C26.1960526,14.8971053 26.2023684,14.6863158 26.2023684,14.4739474 C26.2023684,14.2602632 26.1957895,14.0481579 26.1844737,13.8373684 L27.275,13.4468421 L28.51,13.5965789 C28.6073684,13.6078947 28.6765789,13.5057895 28.63,13.4205263 L28.63,13.4205263 Z M14.4736842,18.4207895 C12.2936842,18.4207895 10.5263158,16.6534211 10.5263158,14.4734211 C10.5263158,12.2934211 12.2936842,10.5260526 14.4736842,10.5260526 C16.6536842,10.5260526 18.4210526,12.2934211 18.4210526,14.4734211 C18.4210526,16.6534211 16.6536842,18.4207895 14.4736842,18.4207895 Z" id="Shape" fill="#000000"></path>
                    <path d="M14.4736842,7.89447368 C10.8402632,7.89447368 7.89473684,10.84 7.89473684,14.4734211 C7.89473684,18.1068421 10.8402632,21.0523684 14.4736842,21.0523684 C18.1071053,21.0523684 21.0526316,18.1068421 21.0526316,14.4734211 C21.0526316,10.84 18.1071053,7.89447368 14.4736842,7.89447368 Z M14.4736842,18.4207895 C12.2936842,18.4207895 10.5263158,16.6534211 10.5263158,14.4734211 C10.5263158,12.2934211 12.2936842,10.5260526 14.4736842,10.5260526 C16.6536842,10.5260526 18.4210526,12.2934211 18.4210526,14.4734211 C18.4210526,16.6534211 16.6536842,18.4207895 14.4736842,18.4207895 Z" id="Shape" fill-opacity="0" fill="#FFFFFF"></path>
                    <g>
                        <path d="M28.8610526,13.2944737 L27.8315789,11.4052632 C27.7202632,11.2015789 27.5168421,11.0597368 27.2871053,11.0268421 L25.8997368,10.8260526 C25.8044737,10.5273684 25.6976316,10.2326316 25.5810526,9.94605263 L26.2728947,9.37210526 L27.4244737,9.10421053 C27.5644737,9.07157895 27.6731579,8.96473684 27.7084211,8.825 C27.7436842,8.68526316 27.6984211,8.53973684 27.5905263,8.44447368 L25.9768421,7.02131579 C25.8028947,6.86842105 25.5636842,6.805 25.3355263,6.85184211 L23.9610526,7.13815789 C23.7747368,6.89815789 23.5734211,6.65894737 23.3602632,6.42447368 L23.8163158,5.64394737 L24.8063158,4.99894737 C24.9271053,4.92026316 24.9928947,4.78289474 24.9784211,4.63947368 C24.9636842,4.49631579 24.8715789,4.37447368 24.7373684,4.32210526 L22.7347368,3.53684211 C22.5184211,3.45157895 22.2715789,3.47447368 22.0736842,3.59684211 L20.8789474,4.33657895 C20.6171053,4.17105263 20.3468421,4.01447368 20.0721053,3.86921053 L20.2331579,2.98157895 L20.9423684,2.03710526 C21.0292105,1.92184211 21.0442105,1.77 20.9813158,1.64026316 C20.9184211,1.51052632 20.79,1.42763158 20.6463158,1.42421053 L18.4955263,1.37131579 C18.2610526,1.36736842 18.0389474,1.47157895 17.8955263,1.65342105 L17.0260526,2.75710526 C16.7223684,2.69131579 16.4147368,2.63710526 16.1076316,2.595 L15.9552632,1.70473684 L16.2992105,0.573947368 C16.3410526,0.436052632 16.3028947,0.288157895 16.1994737,0.187894737 C16.0960526,0.0873684211 15.9468421,0.0547368421 15.8107895,0.0997368421 L13.7723684,0.785526316 C13.5521053,0.859210526 13.3771053,1.03526316 13.3042105,1.25631579 L12.8642105,2.59131579 C12.5578947,2.63236842 12.2502632,2.68605263 11.9455263,2.75131579 L11.4984211,1.96736842 L11.4347368,0.787631579 C11.4271053,0.643684211 11.3407895,0.517894737 11.2094737,0.458947368 C11.0776316,0.4 10.9263158,0.418947368 10.8142105,0.508947368 L9.13236842,1.85078947 C8.95105263,1.99578947 8.84684211,2.22078947 8.85394737,2.45315789 L8.89736842,3.85710526 C8.62236842,4.00184211 8.35157895,4.15789474 8.08921053,4.32315789 L7.40078947,3.73947368 L6.93736842,2.65184211 C6.88105263,2.51947368 6.75657895,2.43078947 6.61315789,2.42052632 C6.46842105,2.40894737 6.33368421,2.48026316 6.25894737,2.60263158 L5.13789474,4.43868421 C5.01684211,4.63684211 4.99605263,4.88394737 5.08210526,5.1 L5.60368421,6.40631579 C5.39,6.64052632 5.18842105,6.87894737 5.00157895,7.11842105 L4.15631579,6.80578947 L3.34894737,5.94263158 C3.25078947,5.83763158 3.10342105,5.79710526 2.96526316,5.83605263 C2.82684211,5.87526316 2.72315789,5.98736842 2.69447368,6.12842105 L2.26894737,8.23736842 C2.22315789,8.465 2.28815789,8.70421053 2.44289474,8.87763158 L3.37605263,9.92289474 C3.25921053,10.2084211 3.15184211,10.5028947 3.05578947,10.8021053 L2.15631579,10.7971053 L1.10236842,10.2623684 C0.973684211,10.1965789 0.821578947,10.2089474 0.705,10.2934211 C0.588421053,10.3776316 0.529473684,10.5181579 0.550789474,10.6607895 L0.872105263,12.7878947 C0.906842105,13.0176316 1.04973684,13.2205263 1.25447368,13.3302632 L2.49157895,13.9944737 C2.485,14.1534211 2.48157895,14.3131579 2.48157895,14.4736842 C2.48157895,14.6257895 2.48473684,14.7771053 2.49052632,14.9281579 L1.64184211,15.2318421 L0.468421053,15.0894737 C0.323947368,15.0728947 0.186578947,15.1355263 0.105789474,15.255 C0.0247368421,15.3736842 0.0173684211,15.5263158 0.0863157895,15.6526316 L1.11578947,17.5413158 C1.22684211,17.7452632 1.43052632,17.8868421 1.66052632,17.92 L3.04789474,18.1210526 C3.14315789,18.4197368 3.24973684,18.7144737 3.36631579,19.0007895 L2.67473684,19.5747368 L1.52342105,19.8428947 C1.38315789,19.8755263 1.27421053,19.9826316 1.23894737,20.1223684 C1.20394737,20.2618421 1.24921053,20.4076316 1.35684211,20.5026316 L2.97026316,21.9252632 C3.14447368,22.0792105 3.38447368,22.1418421 3.61184211,22.0952632 L4.98631579,21.8089474 C5.17236842,22.0484211 5.37342105,22.2876316 5.58684211,22.5226316 L5.13078947,23.3028947 L4.14052632,23.9484211 C4.02,24.0271053 3.95421053,24.1647368 3.96894737,24.3078947 C3.98368421,24.4510526 4.07605263,24.5726316 4.21,24.625 L6.21263158,25.41 C6.42921053,25.4952632 6.67657895,25.4726316 6.87342105,25.3502632 L8.06815789,24.6102632 C8.32947368,24.7755263 8.6,24.9323684 8.87526316,25.0778947 L8.71394737,25.9655263 L8.00421053,26.9105263 C7.91763158,27.0257895 7.90289474,27.1776316 7.96578947,27.3073684 C8.02868421,27.4368421 8.15710526,27.5194737 8.30078947,27.5228947 L10.4513158,27.5757895 C10.6828947,27.5823684 10.9078947,27.4757895 11.0515789,27.2934211 L11.9210526,26.19 C12.225,26.2557895 12.5326316,26.31 12.8394737,26.3518421 L12.9915789,27.2423684 L12.6478947,28.3731579 C12.6060526,28.5105263 12.6439474,28.6584211 12.7471053,28.7586842 C12.82,28.8297368 12.9155263,28.8673684 13.0134211,28.8673684 C13.0542105,28.8673684 13.0957895,28.8607895 13.1357895,28.8473684 L15.1747368,28.1613158 C15.395,28.0873684 15.5697368,27.9115789 15.6426316,27.6907895 L16.0823684,26.3555263 C16.39,26.3142105 16.6978947,26.2607895 17.0010526,26.1955263 L17.4481579,26.9794737 L17.5115789,28.1592105 C17.5192105,28.3028947 17.6055263,28.4286842 17.7365789,28.4878947 C17.8678947,28.5473684 18.0194737,28.5278947 18.1323684,28.4381579 L19.8136842,27.0963158 C19.9952632,26.9515789 20.0994737,26.7265789 20.0926316,26.4939474 L20.0489474,25.09 C20.325,24.9447368 20.5957895,24.7886842 20.8571053,24.6239474 L21.5455263,25.2076316 L22.0092105,26.2947368 C22.0655263,26.4271053 22.1894737,26.5157895 22.3328947,26.5265789 C22.4763158,26.5397368 22.6123684,26.4673684 22.6878947,26.3444737 L23.8089474,24.5081579 C23.93,24.31 23.9507895,24.0631579 23.8647368,23.8471053 L23.3431579,22.5407895 C23.5571053,22.3060526 23.7586842,22.0673684 23.945,21.8286842 L24.7905263,22.1413158 L25.5978947,23.005 C25.6963158,23.1097368 25.8439474,23.1510526 25.9818421,23.1110526 C26.1202632,23.0718421 26.2239474,22.96 26.2523684,22.8189474 L26.6778947,20.71 C26.7236842,20.4826316 26.6589474,20.2434211 26.5042105,20.0697368 L25.5707895,19.0242105 C25.6878947,18.7378947 25.7955263,18.4436842 25.8910526,18.1452632 L26.7905263,18.1502632 L27.8447368,18.685 C27.9726316,18.7505263 28.1244737,18.7381579 28.2415789,18.6542105 C28.3581579,18.57 28.4176316,18.4292105 28.3963158,18.2865789 L28.0747368,16.16 C28.0402632,15.9302632 27.8973684,15.7273684 27.6923684,15.6173684 L26.4555263,14.9531579 C26.4618421,14.7942105 26.4655263,14.6344737 26.4655263,14.4739474 C26.4655263,14.3218421 26.4623684,14.1705263 26.4565789,14.0194737 L27.3052632,13.7157895 L28.4781579,13.8576316 C28.6218421,13.8763158 28.76,13.8121053 28.8410526,13.6931579 C28.9223684,13.5736842 28.93,13.4210526 28.8610526,13.2944737 L28.8610526,13.2944737 Z M27.3073684,13.1852632 C27.2665789,13.18 27.2252632,13.185 27.1871053,13.1989474 L26.0965789,13.5892105 C25.9871053,13.6281579 25.9160526,13.735 25.9223684,13.8510526 C25.9336842,14.0571053 25.9397368,14.2644737 25.9397368,14.4734211 C25.9397368,14.6810526 25.9334211,14.8871053 25.9226316,15.0923684 C25.9173684,15.1942105 25.9713158,15.29 26.0610526,15.3381579 L27.4442105,16.0807895 C27.5036842,16.1126316 27.545,16.1713158 27.555,16.2381579 L27.8347368,18.0894737 L26.9739474,17.6526316 C26.9373684,17.6342105 26.8973684,17.6244737 26.8563158,17.6242105 L25.6997368,17.6181579 C25.6994737,17.6181579 25.6989474,17.6181579 25.6984211,17.6181579 C25.5826316,17.6181579 25.4802632,17.6939474 25.4465789,17.805 C25.3257895,18.2034211 25.1831579,18.5963158 25.0226316,18.9728947 C24.9826316,19.0665789 25.0005263,19.1755263 25.0684211,19.2515789 L26.1123684,20.4205263 C26.1573684,20.4707895 26.1760526,20.5402632 26.1626316,20.6060526 L25.7923684,22.4415789 L25.1328947,21.7365789 C25.105,21.7065789 25.0705263,21.6836842 25.0318421,21.6694737 L23.9460526,21.2678947 C23.8376316,21.2278947 23.7144737,21.2631579 23.6444737,21.3565789 C23.4055263,21.6744737 23.1368421,21.9934211 22.8457895,22.305 C22.7760526,22.3794737 22.7557895,22.4873684 22.7936842,22.5823684 L23.3768421,24.0426316 C23.4018421,24.1052632 23.3955263,24.1771053 23.3605263,24.2344737 L22.3847368,25.8323684 L22.0063158,24.9444737 C21.99,24.9068421 21.9657895,24.8734211 21.9344737,24.8471053 L21.0502632,24.0971053 C20.9615789,24.0221053 20.8342105,24.0139474 20.7363158,24.0776316 C20.3936842,24.3015789 20.0323684,24.5105263 19.6628947,24.6981579 C19.5718421,24.7444737 19.5157895,24.8389474 19.5189474,24.9410526 L19.5676316,26.5105263 C19.57,26.5781579 19.5397368,26.6431579 19.4868421,26.6852632 L18.0234211,27.8531579 L17.9715789,26.8894737 C17.9692105,26.8486842 17.9573684,26.8086842 17.9371053,26.7734211 L17.3631579,25.7668421 C17.3055263,25.6655263 17.1894737,25.6147368 17.0747368,25.6407895 C16.6739474,25.7339474 16.2631579,25.8057895 15.8539474,25.8547368 C15.7523684,25.8671053 15.6673684,25.9368421 15.6352632,26.0339474 L15.1434211,27.5271053 C15.1223684,27.5907895 15.0715789,27.6421053 15.0076316,27.6634211 L13.2331579,28.2605263 L13.5136842,27.3371053 C13.5255263,27.2978947 13.5281579,27.2563158 13.5213158,27.2163158 L13.3257895,26.0726316 C13.3060526,25.9576316 13.2131579,25.8694737 13.0976316,25.8555263 C12.69,25.8068421 12.2792105,25.735 11.8765789,25.6415789 C11.8568421,25.6371053 11.8368421,25.635 11.8171053,25.635 C11.7376316,25.635 11.6610526,25.6713158 11.6102632,25.7352632 L10.6384211,26.9689474 C10.5965789,27.0215789 10.5271053,27.0481579 10.4642105,27.0507895 L8.59263158,27.0047368 L9.17236842,26.2328947 C9.19684211,26.2002632 9.21342105,26.1621053 9.22078947,26.1218421 L9.42815789,24.9818421 C9.44894737,24.8673684 9.39210526,24.7528947 9.28842105,24.7002632 C8.91921053,24.5126316 8.55789474,24.3039474 8.21473684,24.08 C8.12894737,24.0239474 8.01868421,24.0226316 7.93236842,24.0763158 L6.59631579,24.9039474 C6.53921053,24.9394737 6.46763158,24.9455263 6.40473684,24.9210526 L4.66157895,24.2376316 L5.47026316,23.7105263 C5.50447368,23.6881579 5.53315789,23.6581579 5.55368421,23.6228947 L6.13947368,22.6207895 C6.19815789,22.5202632 6.18394737,22.3931579 6.10447368,22.3081579 C5.81368421,21.9973684 5.54447368,21.6784211 5.305,21.3597368 C5.24368421,21.2784211 5.14131579,21.2405263 5.04105263,21.2602632 L3.50421053,21.5805263 C3.43842105,21.5936842 3.36894737,21.5757895 3.31842105,21.5310526 L1.91421053,20.2928947 L2.85447368,20.0739474 C2.89421053,20.0647368 2.93131579,20.0465789 2.96289474,20.0202632 L3.85210526,19.2821053 C3.94157895,19.2076316 3.97184211,19.0831579 3.92605263,18.9763158 C3.76552632,18.6005263 3.62289474,18.2078947 3.50157895,17.8086842 C3.47184211,17.7110526 3.38842105,17.6389474 3.28736842,17.6247368 L1.73578947,17.4 C1.66921053,17.3902632 1.61,17.3492105 1.57763158,17.29 L0.681578947,15.6460526 L1.63973684,15.7623684 C1.68052632,15.7676316 1.72184211,15.7628947 1.76026316,15.7486842 L2.85078947,15.3584211 C2.96052632,15.3194737 3.03131579,15.2126316 3.025,15.0965789 C3.01394737,14.8902632 3.00763158,14.6831579 3.00763158,14.4742105 C3.00763158,14.2665789 3.01368421,14.0605263 3.02473684,13.8555263 C3.03026316,13.7534211 2.97631579,13.6578947 2.88657895,13.6094737 L1.50342105,12.8668421 C1.44421053,12.835 1.40263158,12.7760526 1.39263158,12.7094737 L1.11289474,10.8581579 L1.97368421,11.295 C2.01026316,11.3134211 2.05052632,11.3231579 2.09131579,11.3234211 L3.24789474,11.3294737 L3.24921053,11.3294737 C3.365,11.3294737 3.46736842,11.2536842 3.50105263,11.1426316 C3.62236842,10.7423684 3.765,10.3494737 3.925,9.97473684 C3.965,9.88105263 3.94710526,9.77210526 3.87921053,9.69605263 L2.83552632,8.52736842 C2.79078947,8.47736842 2.77184211,8.40763158 2.78526316,8.34184211 L3.15552632,6.50631579 L3.81473684,7.21131579 C3.84263158,7.24105263 3.87736842,7.26394737 3.91552632,7.27815789 L5.00131579,7.68 C5.11078947,7.72 5.23315789,7.68447368 5.30289474,7.59131579 C5.54263158,7.27236842 5.81131579,6.95342105 6.10184211,6.64315789 C6.17157895,6.56868421 6.19210526,6.46052632 6.15421053,6.36552632 L5.57105263,4.90526316 C5.54605263,4.84263158 5.55210526,4.77078947 5.58736842,4.71342105 L6.56315789,3.11552632 L6.94157895,4.00342105 C6.95763158,4.04105263 6.98210526,4.07447368 7.01342105,4.10078947 L7.89763158,4.85078947 C7.98657895,4.92631579 8.11473684,4.93421053 8.21184211,4.87026316 C8.55605263,4.64552632 8.91710526,4.43684211 9.28526316,4.24973684 C9.37605263,4.20342105 9.43210526,4.10894737 9.42894737,4.00684211 L9.38052632,2.43736842 C9.37842105,2.36973684 9.40868421,2.30447368 9.46131579,2.26236842 L10.9247368,1.09473684 L10.9768421,2.05815789 C10.9789474,2.09894737 10.9907895,2.13894737 11.0110526,2.17421053 L11.5852632,3.18078947 C11.6428947,3.28210526 11.7597368,3.33236842 11.8731579,3.30684211 C12.2768421,3.21342105 12.6876316,3.14131579 13.0942105,3.09263158 C13.1955263,3.08026316 13.2807895,3.01052632 13.3128947,2.91342105 L13.8047368,1.42052632 C13.8257895,1.35657895 13.8763158,1.30552632 13.9405263,1.28421053 L15.715,0.687105263 L15.4342105,1.61052632 C15.4223684,1.64973684 15.4197368,1.69131579 15.4268421,1.73157895 L15.6223684,2.875 C15.6418421,2.98973684 15.7347368,3.07789474 15.8502632,3.09184211 C16.2584211,3.14078947 16.6692105,3.21289474 17.0715789,3.30578947 C17.1710526,3.32789474 17.2744737,3.29210526 17.3376316,3.21236842 L18.3094737,1.97868421 C18.3510526,1.92605263 18.4144737,1.9 18.4836842,1.89684211 L20.355,1.94289474 L19.7755263,2.71473684 C19.7510526,2.74736842 19.7344737,2.78552632 19.7271053,2.82578947 L19.5197368,3.96578947 C19.4992105,4.08026316 19.5560526,4.19473684 19.6594737,4.24736842 C20.0276316,4.43447368 20.3889474,4.64315789 20.7331579,4.86763158 C20.8181579,4.92289474 20.9284211,4.92447368 21.0152632,4.87105263 L22.3510526,4.04394737 C22.4086842,4.00842105 22.4807895,4.00210526 22.5428947,4.02631579 L24.2857895,4.71 L23.4773684,5.23684211 C23.4431579,5.25921053 23.4144737,5.28921053 23.3939474,5.32447368 L22.8081579,6.32684211 C22.7492105,6.42763158 22.7636842,6.55447368 22.8434211,6.63947368 C23.1336842,6.94947368 23.4026316,7.26842105 23.6428947,7.58789474 C23.7042105,7.66947368 23.8057895,7.70921053 23.9068421,7.68710526 L25.4431579,7.36710526 C25.5084211,7.35289474 25.5786842,7.37184211 25.6294737,7.41631579 L27.0336842,8.65473684 L26.0934211,8.87342105 C26.0536842,8.88263158 26.0165789,8.90078947 25.985,8.92710526 L25.0957895,9.66526316 C25.0060526,9.73947368 24.9760526,9.86421053 25.0218421,9.97105263 C25.1823684,10.3471053 25.3252632,10.74 25.4463158,11.1389474 C25.4760526,11.2368421 25.5594737,11.3086842 25.6602632,11.3228947 L27.2121053,11.5473684 C27.2786842,11.5571053 27.3378947,11.5981579 27.3702632,11.6573684 L28.2660526,13.3013158 L27.3073684,13.1852632 Z" id="Shape" fill="#000000"></path>
                        <path d="M7.63157895,14.4736842 C7.63157895,18.2465789 10.7010526,21.3157895 14.4736842,21.3157895 C14.6189474,21.3157895 14.7368421,21.1981579 14.7368421,21.0526316 C14.7368421,20.9071053 14.6189474,20.7894737 14.4736842,20.7894737 C10.9913158,20.7894737 8.15789474,17.9560526 8.15789474,14.4736842 C8.15789474,10.9913158 10.9913158,8.15789474 14.4736842,8.15789474 C17.9560526,8.15789474 20.7894737,10.9913158 20.7894737,14.4736842 C20.7894737,16.4786842 19.8226316,18.3842105 18.2034211,19.5713158 C18.0860526,19.6571053 18.0607895,19.8218421 18.1465789,19.9389474 C18.2323684,20.0560526 18.3971053,20.0818421 18.5142105,19.9957895 C20.2686842,18.71 21.3157895,16.6455263 21.3157895,14.4736842 C21.3157895,10.7007895 18.2465789,7.63157895 14.4736842,7.63157895 C10.7010526,7.63157895 7.63157895,10.7007895 7.63157895,14.4736842 Z" id="Path" fill="#FFFFFF"></path>
                        <path d="M17.3478947,20.0989474 C16.7615789,20.3992105 16.1347368,20.6042105 15.4844737,20.7086842 C15.3410526,20.7318421 15.2434211,20.8668421 15.2665789,21.0102632 C15.2873684,21.1394737 15.3992105,21.2315789 15.5260526,21.2315789 C15.54,21.2315789 15.5539474,21.2305263 15.5681579,21.2281579 C16.2728947,21.1147368 16.9523684,20.8923684 17.5878947,20.5668421 C17.7171053,20.5007895 17.7684211,20.3421053 17.7021053,20.2126316 C17.6360526,20.0836842 17.4773684,20.0323684 17.3478947,20.0989474 L17.3478947,20.0989474 Z" id="Path" fill="#FFFFFF"></path>
                        <path d="M14.4736842,10.2631579 C12.1521053,10.2631579 10.2631579,12.1521053 10.2631579,14.4736842 C10.2631579,16.7952632 12.1521053,18.6842105 14.4736842,18.6842105 C16.7952632,18.6842105 18.6842105,16.7952632 18.6842105,14.4736842 C18.6842105,12.1521053 16.7952632,10.2631579 14.4736842,10.2631579 Z M14.4736842,18.1578947 C12.4421053,18.1578947 10.7894737,16.5052632 10.7894737,14.4736842 C10.7894737,12.4421053 12.4421053,10.7894737 14.4736842,10.7894737 C16.5052632,10.7894737 18.1578947,12.4421053 18.1578947,14.4736842 C18.1578947,16.5052632 16.5052632,18.1578947 14.4736842,18.1578947 Z" id="Shape" fill="#FFFFFF"></path>
                    </g>
                </g>
            </g>
        </g>
    </g>
</svg>