<?xml version="1.0" encoding="UTF-8"?>
<svg width="60px" height="20px" viewBox="0 0 60 20" version="1.1" xmlns="http://www.w3.org/2000/svg" xmlns:xlink="http://www.w3.org/1999/xlink">
    <!-- Generator: Sketch 54.1 (76490) - https://sketchapp.com -->
    <title>visa</title>
    <desc>Created with Sketch.</desc>
    <g id="Welcome" stroke="none" stroke-width="1" fill="none" fill-rule="evenodd">
        <g id="Desktop-Categorie-Selectata" transform="translate(-1086.000000, -2047.000000)" fill="#000000" fill-rule="nonzero">
            <g id="visa" transform="translate(1086.000000, 2047.000000)">
                <polygon id="Path" points="23.94125 0.99875 20.9025 18.83125 25.7625 18.83125 28.80375 0.99875"></polygon>
                <path d="M16.8275,1.01875 L12.0675,13.18 L11.56,11.34375 C10.62125,9.13125 7.95625,5.95375 4.8275,3.95125 L9.18,18.8225 L14.3225,18.81375 L21.97625,1.015 L16.8275,1.01875 Z" id="Path"></path>
                <path d="M9.715,2.295 C9.4325,1.20875 8.61375,0.885 7.5975,0.84625 L0.0625,0.84625 L0,1.20125 C5.86375,2.62375 9.74375,6.05125 11.35375,10.1725 L9.715,2.295 Z" id="Path"></path>
                <path d="M38.65375,4.4175 C40.24375,4.3925 41.39625,4.74 42.29125,5.1 L42.73,5.30625 L43.3875,1.44125 C42.425,1.08 40.91625,0.6925 39.03375,0.6925 C34.23125,0.6925 30.84625,3.11125 30.82,6.5775 C30.78875,9.13875 33.23125,10.56875 35.07625,11.4225 C36.97,12.2975 37.605,12.85375 37.59625,13.635 C37.58125,14.82875 36.08625,15.37625 34.69,15.37625 C32.74375,15.37625 31.71,15.1075 30.11375,14.4425 L29.4875,14.1575 L28.80375,18.14875 C29.94125,18.6475 32.04,19.07625 34.21875,19.09875 C39.3275,19.09875 42.6475,16.70875 42.6825,13.005 C42.70375,10.97875 41.4075,9.4325 38.59875,8.16375 C36.89875,7.33625 35.85875,6.78625 35.86875,5.95125 C35.86875,5.21 36.75125,4.4175 38.65375,4.4175 Z" id="Path"></path>
                <path d="M55.86,1.01875 L52.105,1.01875 C50.93875,1.01875 50.07125,1.33625 49.55875,2.49875 L42.3425,18.84125 L47.44625,18.84125 C47.44625,18.84125 48.27875,16.64375 48.4675,16.1625 C49.02625,16.1625 53.985,16.17 54.69125,16.17 C54.83625,16.7925 55.28375,18.84125 55.28375,18.84125 L59.7925,18.84125 L55.86,1.01875 Z M49.86625,12.5125 C50.26625,11.48875 51.8025,7.52875 51.8025,7.52875 C51.77625,7.5775 52.19875,6.4975 52.45,5.82625 L52.7775,7.36375 C52.7775,7.36375 53.70875,11.62125 53.90375,12.5125 L49.86625,12.5125 Z" id="Shape"></path>
            </g>
        </g>
    </g>
</svg>