<?xml version="1.0" encoding="UTF-8"?>
<svg width="35px" height="30px" viewBox="0 0 22 20" version="1.1" xmlns="http://www.w3.org/2000/svg" xmlns:xlink="http://www.w3.org/1999/xlink">
    <!-- Generator: Sketch 54.1 (76490) - https://sketchapp.com -->
    <title>construction-and-tools</title>
    <desc>Created with Sketch.</desc>
    <g id="Welcome" stroke="none" stroke-width="1" fill="none" fill-rule="evenodd">
        <g id="Artboard" transform="translate(-248.000000, -295.000000)" fill-rule="nonzero">
            <g id="construction-and-tools" transform="translate(248.000000, 295.000000)">
                <path d="M0.349966728,19.3264104 C0.300354898,19.3264104 0.250051756,19.3144954 0.203327172,19.2892828 C0.0528243993,19.2081146 -0.00333456562,19.020403 0.077792976,18.8699409 L1.24025508,16.7144288 C1.32138262,16.5639261 1.5091756,16.5078078 1.65959704,16.5888946 C1.81009982,16.6700628 1.86625878,16.8577745 1.78513124,17.0082366 L0.622669131,19.1637486 C0.566754159,19.2674861 0.46012939,19.3264104 0.349966728,19.3264104 Z" id="Path" fill="#000000"></path>
                <path d="M1.4343512,17.2497893 C1.39486506,17.2415342 1.35566359,17.2294159 1.31715342,17.2132311 C0.993131238,17.0770018 0.840839187,16.7038558 0.977109057,16.3798336 L6.99319409,2.23204436 C7.26768577,1.57912015 7.87632532,1.1339963 8.58174861,1.0703549 L15.0452348,0.486968577 C15.3953641,0.455371534 15.7047468,0.713556377 15.7363031,1.06360444 C15.7679002,1.41369316 15.509756,1.72311645 15.1596673,1.75467283 L8.69614048,2.33809982 C8.46101294,2.35932717 8.25813309,2.50771534 8.16663586,2.72531608 L2.15055083,16.873146 C2.03050647,17.158658 1.72657301,17.3108281 1.4343512,17.2497893 Z" id="Path" fill="#000000"></path>
                <path d="M15.7389464,1.11663216 C15.6634307,1.0935342 15.5825471,1.08487246 15.499183,1.09227357 L9.03590018,1.67582255 C8.33019224,1.73938262 7.72147135,2.18426248 7.44702033,2.83714603 L1.43109797,16.9853013 C1.39645102,17.0674455 1.38075416,17.1524362 1.38116081,17.236207 C1.35968946,17.2300259 1.33825878,17.2221774 1.31719409,17.2131091 C0.993212569,17.0769205 0.840961183,16.7038558 0.977149723,16.3798743 L6.99303142,2.23212569 C7.26748244,1.57924214 7.87620333,1.13395564 8.58191128,1.07039556 L15.0451941,0.48684658 C15.3951608,0.45549353 15.7046654,0.713434381 15.7364658,1.06380776 C15.7381331,1.08153789 15.7389464,1.09886137 15.7389464,1.11663216 Z" id="Path" fill="#000000"></path>
                <path d="M7.68259519,7.50008872 L6.59231423,7.25922736 L4.57010351,11.417146 L7.18363031,10.5798041 C7.25804806,10.5565434 7.31367837,10.4943253 7.32856192,10.417793 L7.84749353,7.74822921 C7.86965619,7.63436599 7.79617375,7.52379667 7.68259519,7.50008872 L7.68259519,7.50008872 Z" id="Path" fill="#767676"></path>
                <path d="M7.69792606,7.50395194 L6.02072089,10.9524621 L4.57010351,11.417146 L6.59231423,7.25922736 L7.68267652,7.50025139 C7.68804436,7.50147135 7.69296488,7.50269131 7.69792606,7.50395194 L7.69792606,7.50395194 Z" id="Path" fill="#5A5A5A"></path>
                <path d="M12.0577893,2.52841405 L11.8550314,0.282096118 C11.8435231,0.154731978 11.946488,0.0462365989 12.0742588,0.0510351201 L16.0186026,0.198650647 C16.125268,0.20263586 16.2123734,0.285268022 16.2219704,0.391567468 L16.3359556,1.65426987 C16.3455933,1.76089464 16.2742662,1.8580037 16.169634,1.88069501 L12.3141035,2.71669501 C12.1894233,2.74369686 12.0692569,2.65545287 12.0577893,2.52841405 L12.0577893,2.52841405 Z" id="Path" fill="#A2A2A2"></path>
                <path d="M7.57934566,5.76456932 L3.84406285,14.6502107 C3.76533457,14.8374344 3.56497597,14.9426359 3.36616266,14.9011165 L1.67342329,14.5476118 C1.41222921,14.4930795 1.26558965,14.2137893 1.36900185,13.9678041 L5.10465065,5.08220333 C5.18337893,4.89497967 5.38373752,4.78977819 5.58255083,4.8312976 L7.27492421,5.18472089 C7.5361183,5.23933457 7.68271719,5.5185841 7.57934566,5.76456932 L7.57934566,5.76456932 Z" id="Path" fill="#060606"></path>
                <path d="M18.9453403,1.81665727 C18.6689144,1.8629772 18.4132716,1.88465401 18.2213661,1.86086138 C17.4452779,1.76380319 16.9481138,1.30931615 17.1100764,0.845536079 C17.272039,0.381776754 18.0322709,0.0840887785 18.8083591,0.180939532 C18.8534297,0.186623213 18.9171669,0.198633619 18.9907579,0.215041617 C18.5407461,0.313344406 18.1833389,0.544508422 18.0784171,0.845536079 C17.9340455,1.25855714 18.3125828,1.66402762 18.9453403,1.81665727 Z" id="Path" fill="#B1E5F9"></path>
                <path d="M18.7913189,1.94091488 C17.8491339,1.83248516 17.2452458,1.32376382 17.4419644,0.804735741 C17.638683,0.285707659 18.5615752,-0.0472883528 19.5037181,0.0611413699 C19.6487506,0.0778317939 19.9479987,0.143804235 20.2095459,0.21906203 C20.3392875,0.256389153 20.3167933,0.362474324 20.1754256,0.383389584 C19.6462232,0.46166512 19.4058643,0.588828044 19.4058643,0.588828044 C20.4964096,0.675715745 21.1967613,0.927325628 21.5789092,1.11170955 C21.6987096,1.16951088 21.6082696,1.27763883 21.4503893,1.26617141 C20.4399636,1.19270105 19.4658487,1.35865354 19.4658487,1.35865354 C19.4658487,1.35865354 19.6164416,1.52643989 19.9401215,1.71172913 C20.0224316,1.75882909 19.9858681,1.83731354 19.8730603,1.85764847 C19.4614678,1.93169917 19.0708109,1.97308864 18.7913189,1.94091488 L18.7913189,1.94091488 Z" id="Path" fill="#FFA9B0"></path>
                <path d="M19.1573078,2.02154197 C18.2151228,1.9061912 17.6112348,1.36499829 17.8079533,0.812840751 C18.0046719,0.260683218 18.9275641,-0.0935678587 19.869707,0.0217829101 C20.0147395,0.0395386803 20.3139876,0.109722128 20.5755348,0.189783612 C20.7052764,0.229493318 20.6827822,0.342349883 20.5414145,0.36460016 C20.0122121,0.447872006 19.7718532,0.583151713 19.7718532,0.583151713 C20.8623985,0.675585437 21.5627503,0.943255526 21.9448982,1.13940863 C22.0646985,1.20089941 21.9742585,1.31592914 21.8163782,1.30372976 C20.8059525,1.2255698 19.8318376,1.40211501 19.8318376,1.40211501 C19.8318376,1.40211501 19.9824305,1.58061112 20.3061104,1.77772734 C20.3884205,1.82783368 20.351857,1.91132778 20.2390492,1.93296068 C19.8274567,2.01173802 19.4367998,2.05576936 19.1573078,2.02154197 L19.1573078,2.02154197 Z" id="Path-Copy" fill="#FFD18F"></path>
                <g id="Group" transform="translate(1.301294, 0.040665)">
                    <path d="M12.1946285,2.41971534 L11.012647,2.67598891 C10.8880074,2.70323475 10.7679224,2.61490943 10.7563734,2.48778928 L10.5537375,0.241471349 C10.5421885,0.113944547 10.6453567,0.00540850277 10.7728835,0.0103696858 L12.0741368,0.0590868762 C12.0225323,0.101582255 11.991586,0.168436229 11.9982144,0.241512015 L12.1946285,2.41971534 Z" id="Path" fill="#544F56"></path>
                    <path d="M5.1709353,4.9763512 C5.13006654,5.01681331 5.09663956,5.06589649 5.07313494,5.12160813 L1.06624769,14.6516747 L0.372088725,14.5068244 C0.110853974,14.4523327 -0.035663586,14.1733678 0.0679112754,13.926976 L3.80323475,5.04157856 C3.88204436,4.85419224 4.08264695,4.74899076 4.28113494,4.79067283 L5.1709353,4.9763512 Z" id="Path" fill="#000000"></path>
                </g>
            </g>
        </g>
    </g>
</svg>