<?xml version="1.0" encoding="UTF-8"?>
<svg width="36px" height="27px" viewBox="0 0 36 27" version="1.1" xmlns="http://www.w3.org/2000/svg" xmlns:xlink="http://www.w3.org/1999/xlink">
    <!-- Generator: Sketch 54.1 (76490) - https://sketchapp.com -->
    <title>Shape</title>
    <desc>Created with Sketch.</desc>
    <g id="Welcome" stroke="none" stroke-width="1" fill="none" fill-rule="evenodd">
        <g id="Desktop-Categorie-Selectata" transform="translate(-718.000000, -2040.000000)" fill="#717171" fill-rule="nonzero">
            <g id="youtube" transform="translate(718.000000, 2040.000000)">
                <path d="M35.2035,4.3935 L35.2485,4.6875 C34.8135,3.144 33.639,1.953 32.1465,1.5195 L32.115,1.512 C29.3085,0.75 18.015,0.75 18.015,0.75 C18.015,0.75 6.75,0.735 3.915,1.512 C2.394,1.953 1.218,3.144 0.7905,4.656 L0.783,4.6875 C-0.2655,10.164 -0.273,16.7445 0.8295,22.608 L0.783,22.311 C1.218,23.8545 2.3925,25.0455 3.885,25.479 L3.9165,25.4865 C6.72,26.25 18.0165,26.25 18.0165,26.25 C18.0165,26.25 29.28,26.25 32.1165,25.4865 C33.639,25.0455 34.815,23.8545 35.2425,22.3425 L35.25,22.311 C35.727,19.764 36,16.833 36,13.839 C36,13.7295 36,13.6185 35.9985,13.5075 C36,13.4055 36,13.284 36,13.1625 C36,10.167 35.727,7.236 35.2035,4.3935 L35.2035,4.3935 Z M14.412,18.9765 L14.412,8.037 L23.811,13.515 L14.412,18.9765 Z" id="Shape"></path>
            </g>
        </g>
    </g>
</svg>